<ttFont>
    <TTGlyph name="A" xMin="39" yMin="-10" xMax="604" yMax="760">
      <contour>
        <pt x="510" y="318" on="1"/>
        <pt x="554" y="319" on="1"/>
        <pt x="576" y="319" on="0"/>
        <pt x="604" y="297" on="0"/>
        <pt x="604" y="280" on="1"/>
        <pt x="604" y="242" on="0"/>
        <pt x="534" y="242" on="1"/>
        <pt x="550" y="193" on="0"/>
        <pt x="565" y="147" on="0"/>
        <pt x="578" y="112" on="1"/>
        <pt x="604" y="40" on="0"/>
        <pt x="604" y="12" on="0"/>
        <pt x="586" y="-10" on="0"/>
        <pt x="570" y="-10" on="1"/>
        <pt x="541" y="-10" on="0"/>
        <pt x="526" y="25" on="1"/>
        <pt x="512" y="63" on="0"/>
        <pt x="471" y="199" on="0"/>
        <pt x="456" y="246" on="1"/>
        <pt x="336" y="249" on="0"/>
        <pt x="242" y="249" on="0"/>
        <pt x="177" y="246" on="1"/>
        <pt x="115" y="38" on="0"/>
        <pt x="111" y="27" on="1"/>
        <pt x="97" y="-10" on="0"/>
        <pt x="72" y="-10" on="1"/>
        <pt x="57" y="-10" on="0"/>
        <pt x="39" y="10" on="0"/>
        <pt x="39" y="39" on="0"/>
        <pt x="57" y="100" on="0"/>
        <pt x="94" y="208" on="0"/>
        <pt x="105" y="244" on="1"/>
        <pt x="87" y="244" on="1"/>
        <pt x="39" y="244" on="0"/>
        <pt x="39" y="318" on="0"/>
        <pt x="87" y="318" on="1"/>
        <pt x="110" y="318" on="0"/>
        <pt x="128" y="317" on="1"/>
        <pt x="131" y="325" on="0"/>
        <pt x="259" y="700" on="1"/>
        <pt x="280" y="760" on="0"/>
        <pt x="317" y="760" on="1"/>
        <pt x="342" y="760" on="0"/>
        <pt x="369" y="731" on="0"/>
        <pt x="387" y="686" on="0"/>
        <pt x="408" y="622" on="1"/>
        <pt x="474" y="421" on="0"/>
      </contour>
      <contour>
        <pt x="199" y="315" on="1"/>
        <pt x="255" y="312" on="0"/>
        <pt x="382" y="312" on="0"/>
        <pt x="434" y="315" on="1"/>
        <pt x="331" y="646" on="0"/>
        <pt x="319" y="646" on="1"/>
        <pt x="305" y="646" on="0"/>
        <pt x="226" y="398" on="1"/>
      </contour>
    </TTGlyph>
    <TTGlyph name="A.alt" xMin="32" yMin="-15" xMax="792" yMax="760">
      <contour>
        <pt x="577" y="338" on="1"/>
        <pt x="482" y="646" on="0"/>
        <pt x="470" y="646" on="1"/>
        <pt x="457" y="646" on="0"/>
        <pt x="385" y="418" on="1"/>
        <pt x="361" y="342" on="1"/>
        <pt x="401" y="348" on="0"/>
        <pt x="517" y="348" on="0"/>
      </contour>
      <contour>
        <pt x="266" y="259" on="1"/>
        <pt x="196" y="236" on="0"/>
        <pt x="97" y="138" on="0"/>
        <pt x="97" y="95" on="1"/>
        <pt x="97" y="74" on="0"/>
        <pt x="118" y="51" on="0"/>
        <pt x="135" y="51" on="1"/>
        <pt x="190" y="51" on="0"/>
      </contour>
      <contour>
        <pt x="792" y="52" on="1"/>
        <pt x="792" y="21" on="0"/>
        <pt x="759" y="-15" on="0"/>
        <pt x="736" y="-15" on="1"/>
        <pt x="691" y="-15" on="0"/>
        <pt x="669" y="50" on="1"/>
        <pt x="624" y="184" on="0"/>
        <pt x="597" y="272" on="1"/>
        <pt x="526" y="285" on="0"/>
        <pt x="392" y="285" on="0"/>
        <pt x="344" y="275" on="1"/>
        <pt x="280" y="113" on="0"/>
        <pt x="248" y="63" on="1"/>
        <pt x="198" y="-15" on="0"/>
        <pt x="132" y="-15" on="1"/>
        <pt x="84" y="-15" on="0"/>
        <pt x="32" y="49" on="0"/>
        <pt x="32" y="93" on="1"/>
        <pt x="32" y="162" on="0"/>
        <pt x="171" y="303" on="0"/>
        <pt x="284" y="328" on="1"/>
        <pt x="319" y="422" on="0"/>
        <pt x="407" y="692" on="0"/>
        <pt x="410" y="700" on="1"/>
        <pt x="431" y="760" on="0"/>
        <pt x="468" y="760" on="1"/>
        <pt x="493" y="760" on="0"/>
        <pt x="520" y="731" on="0"/>
        <pt x="538" y="685" on="0"/>
        <pt x="577" y="565" on="0"/>
        <pt x="637" y="383" on="0"/>
        <pt x="656" y="325" on="1"/>
        <pt x="699" y="312" on="0"/>
        <pt x="749" y="274" on="0"/>
        <pt x="749" y="261" on="1"/>
        <pt x="749" y="238" on="0"/>
        <pt x="724" y="238" on="1"/>
        <pt x="714" y="238" on="0"/>
        <pt x="676" y="252" on="1"/>
        <pt x="718" y="115" on="0"/>
        <pt x="745" y="74" on="0"/>
        <pt x="754" y="69" on="1"/>
        <pt x="767" y="61" on="0"/>
        <pt x="792" y="61" on="0"/>
      </contour>
    </TTGlyph>
    <TTGlyph name="AE" xMin="39" yMin="-8" xMax="830" yMax="755">
      <contour>
        <pt x="383" y="313" on="1"/>
        <pt x="345" y="553" on="0"/>
        <pt x="319" y="646" on="1"/>
        <pt x="305" y="646" on="0"/>
        <pt x="226" y="398" on="1"/>
        <pt x="199" y="315" on="1"/>
        <pt x="255" y="312" on="0"/>
        <pt x="334" y="312" on="0"/>
        <pt x="376" y="313" on="0"/>
      </contour>
      <contour>
        <pt x="628" y="0" on="1"/>
        <pt x="479" y="-5" on="1"/>
        <pt x="431" y="-5" on="0"/>
        <pt x="424" y="38" on="1"/>
        <pt x="411" y="112" on="0"/>
        <pt x="390" y="250" on="1"/>
        <pt x="260" y="250" on="0"/>
        <pt x="177" y="246" on="1"/>
        <pt x="113" y="31" on="0"/>
        <pt x="105" y="13" on="1"/>
        <pt x="90" y="-7" on="0"/>
        <pt x="76" y="-8" on="1"/>
        <pt x="39" y="-8" on="0"/>
        <pt x="39" y="29" on="1"/>
        <pt x="39" y="45" on="0"/>
        <pt x="94" y="207" on="0"/>
        <pt x="105" y="244" on="1"/>
        <pt x="87" y="244" on="1"/>
        <pt x="39" y="244" on="0"/>
        <pt x="39" y="318" on="0"/>
        <pt x="87" y="318" on="1"/>
        <pt x="110" y="318" on="0"/>
        <pt x="128" y="317" on="1"/>
        <pt x="140" y="351" on="0"/>
        <pt x="258" y="695" on="1"/>
        <pt x="279" y="755" on="0"/>
        <pt x="317" y="755" on="1"/>
        <pt x="529" y="750" on="1"/>
        <pt x="669" y="755" on="1"/>
        <pt x="719" y="755" on="0"/>
        <pt x="719" y="679" on="0"/>
        <pt x="669" y="679" on="1"/>
        <pt x="529" y="684" on="1"/>
        <pt x="423" y="684" on="0"/>
        <pt x="389" y="680" on="1"/>
        <pt x="409" y="554" on="0"/>
        <pt x="429" y="440" on="1"/>
        <pt x="473" y="438" on="0"/>
        <pt x="502" y="438" on="1"/>
        <pt x="672" y="443" on="1"/>
        <pt x="695" y="443" on="0"/>
        <pt x="722" y="422" on="0"/>
        <pt x="722" y="404" on="1"/>
        <pt x="722" y="367" on="0"/>
        <pt x="672" y="367" on="1"/>
        <pt x="502" y="372" on="1"/>
        <pt x="478" y="372" on="0"/>
        <pt x="442" y="370" on="1"/>
        <pt x="493" y="95" on="0"/>
        <pt x="500" y="70" on="1"/>
        <pt x="564" y="66" on="0"/>
        <pt x="628" y="66" on="1"/>
        <pt x="628" y="66" on="0"/>
        <pt x="780" y="71" on="1"/>
        <pt x="830" y="71" on="0"/>
        <pt x="830" y="-5" on="0"/>
        <pt x="780" y="-5" on="1"/>
      </contour>
    </TTGlyph>
    <TTGlyph name="Aacute" xMin="39" yMin="-10" xMax="604" yMax="970">
      <contour>
        <pt x="510" y="318" on="1"/>
        <pt x="554" y="319" on="1"/>
        <pt x="576" y="319" on="0"/>
        <pt x="604" y="297" on="0"/>
        <pt x="604" y="280" on="1"/>
        <pt x="604" y="242" on="0"/>
        <pt x="534" y="242" on="1"/>
        <pt x="550" y="193" on="0"/>
        <pt x="565" y="147" on="0"/>
        <pt x="578" y="112" on="1"/>
        <pt x="604" y="40" on="0"/>
        <pt x="604" y="12" on="0"/>
        <pt x="586" y="-10" on="0"/>
        <pt x="570" y="-10" on="1"/>
        <pt x="541" y="-10" on="0"/>
        <pt x="526" y="25" on="1"/>
        <pt x="512" y="63" on="0"/>
        <pt x="471" y="199" on="0"/>
        <pt x="456" y="246" on="1"/>
        <pt x="336" y="249" on="0"/>
        <pt x="242" y="249" on="0"/>
        <pt x="177" y="246" on="1"/>
        <pt x="115" y="38" on="0"/>
        <pt x="111" y="27" on="1"/>
        <pt x="97" y="-10" on="0"/>
        <pt x="72" y="-10" on="1"/>
        <pt x="57" y="-10" on="0"/>
        <pt x="39" y="10" on="0"/>
        <pt x="39" y="39" on="0"/>
        <pt x="57" y="100" on="0"/>
        <pt x="94" y="208" on="0"/>
        <pt x="105" y="244" on="1"/>
        <pt x="87" y="244" on="1"/>
        <pt x="39" y="244" on="0"/>
        <pt x="39" y="318" on="0"/>
        <pt x="87" y="318" on="1"/>
        <pt x="110" y="318" on="0"/>
        <pt x="128" y="317" on="1"/>
        <pt x="131" y="325" on="0"/>
        <pt x="259" y="700" on="1"/>
        <pt x="280" y="760" on="0"/>
        <pt x="317" y="760" on="1"/>
        <pt x="342" y="760" on="0"/>
        <pt x="369" y="731" on="0"/>
        <pt x="387" y="686" on="0"/>
        <pt x="408" y="622" on="1"/>
        <pt x="474" y="421" on="0"/>
      </contour>
      <contour>
        <pt x="199" y="315" on="1"/>
        <pt x="255" y="312" on="0"/>
        <pt x="382" y="312" on="0"/>
        <pt x="434" y="315" on="1"/>
        <pt x="331" y="646" on="0"/>
        <pt x="319" y="646" on="1"/>
        <pt x="305" y="646" on="0"/>
        <pt x="226" y="398" on="1"/>
      </contour>
      <contour>
        <pt x="414" y="932" on="1"/>
        <pt x="414" y="889" on="0"/>
        <pt x="323" y="803" on="0"/>
        <pt x="269" y="803" on="0"/>
        <pt x="269" y="824" on="1"/>
        <pt x="269" y="836" on="0"/>
        <pt x="301" y="872" on="0"/>
        <pt x="316" y="891" on="0"/>
        <pt x="337" y="942" on="0"/>
        <pt x="360" y="970" on="0"/>
        <pt x="396" y="970" on="0"/>
        <pt x="414" y="947" on="0"/>
      </contour>
    </TTGlyph>
    <TTGlyph name="Acircumflex" xMin="39" yMin="-10" xMax="604" yMax="984">
      <contour>
        <pt x="510" y="318" on="1"/>
        <pt x="554" y="319" on="1"/>
        <pt x="576" y="319" on="0"/>
        <pt x="604" y="297" on="0"/>
        <pt x="604" y="280" on="1"/>
        <pt x="604" y="242" on="0"/>
        <pt x="534" y="242" on="1"/>
        <pt x="550" y="193" on="0"/>
        <pt x="565" y="147" on="0"/>
        <pt x="578" y="112" on="1"/>
        <pt x="604" y="40" on="0"/>
        <pt x="604" y="12" on="0"/>
        <pt x="586" y="-10" on="0"/>
        <pt x="570" y="-10" on="1"/>
        <pt x="541" y="-10" on="0"/>
        <pt x="526" y="25" on="1"/>
        <pt x="512" y="63" on="0"/>
        <pt x="471" y="199" on="0"/>
        <pt x="456" y="246" on="1"/>
        <pt x="336" y="249" on="0"/>
        <pt x="242" y="249" on="0"/>
        <pt x="177" y="246" on="1"/>
        <pt x="115" y="38" on="0"/>
        <pt x="111" y="27" on="1"/>
        <pt x="97" y="-10" on="0"/>
        <pt x="72" y="-10" on="1"/>
        <pt x="57" y="-10" on="0"/>
        <pt x="39" y="10" on="0"/>
        <pt x="39" y="39" on="0"/>
        <pt x="57" y="100" on="0"/>
        <pt x="94" y="208" on="0"/>
        <pt x="105" y="244" on="1"/>
        <pt x="87" y="244" on="1"/>
        <pt x="39" y="244" on="0"/>
        <pt x="39" y="318" on="0"/>
        <pt x="87" y="318" on="1"/>
        <pt x="110" y="318" on="0"/>
        <pt x="128" y="317" on="1"/>
        <pt x="131" y="325" on="0"/>
        <pt x="259" y="700" on="1"/>
        <pt x="280" y="760" on="0"/>
        <pt x="317" y="760" on="1"/>
        <pt x="342" y="760" on="0"/>
        <pt x="369" y="731" on="0"/>
        <pt x="387" y="686" on="0"/>
        <pt x="408" y="622" on="1"/>
        <pt x="474" y="421" on="0"/>
      </contour>
      <contour>
        <pt x="199" y="315" on="1"/>
        <pt x="255" y="312" on="0"/>
        <pt x="382" y="312" on="0"/>
        <pt x="434" y="315" on="1"/>
        <pt x="331" y="646" on="0"/>
        <pt x="319" y="646" on="1"/>
        <pt x="305" y="646" on="0"/>
        <pt x="226" y="398" on="1"/>
      </contour>
      <contour>
        <pt x="459" y="865" on="0"/>
        <pt x="467" y="850" on="0"/>
        <pt x="467" y="829" on="0"/>
        <pt x="449" y="812" on="0"/>
        <pt x="424" y="812" on="0"/>
        <pt x="402" y="830" on="0"/>
        <pt x="381" y="859" on="0"/>
        <pt x="377" y="862" on="1"/>
        <pt x="337" y="910" on="0"/>
        <pt x="306" y="910" on="0"/>
        <pt x="266" y="862" on="1"/>
        <pt x="262" y="859" on="0"/>
        <pt x="252" y="844" on="1"/>
        <pt x="228" y="812" on="0"/>
        <pt x="194" y="812" on="0"/>
        <pt x="176" y="829" on="0"/>
        <pt x="176" y="850" on="0"/>
        <pt x="185" y="865" on="0"/>
        <pt x="194" y="874" on="0"/>
        <pt x="221" y="897" on="0"/>
        <pt x="245" y="920" on="0"/>
        <pt x="280" y="966" on="0"/>
        <pt x="303" y="984" on="0"/>
        <pt x="339" y="984" on="0"/>
        <pt x="363" y="966" on="0"/>
        <pt x="399" y="920" on="0"/>
        <pt x="423" y="897" on="0"/>
        <pt x="449" y="874" on="0"/>
      </contour>
    </TTGlyph>
    <TTGlyph name="Adieresis" xMin="39" yMin="-10" xMax="604" yMax="955">
      <contour>
        <pt x="510" y="318" on="1"/>
        <pt x="554" y="319" on="1"/>
        <pt x="576" y="319" on="0"/>
        <pt x="604" y="297" on="0"/>
        <pt x="604" y="280" on="1"/>
        <pt x="604" y="242" on="0"/>
        <pt x="534" y="242" on="1"/>
        <pt x="550" y="193" on="0"/>
        <pt x="565" y="147" on="0"/>
        <pt x="578" y="112" on="1"/>
        <pt x="604" y="40" on="0"/>
        <pt x="604" y="12" on="0"/>
        <pt x="586" y="-10" on="0"/>
        <pt x="570" y="-10" on="1"/>
        <pt x="541" y="-10" on="0"/>
        <pt x="526" y="25" on="1"/>
        <pt x="512" y="63" on="0"/>
        <pt x="471" y="199" on="0"/>
        <pt x="456" y="246" on="1"/>
        <pt x="336" y="249" on="0"/>
        <pt x="242" y="249" on="0"/>
        <pt x="177" y="246" on="1"/>
        <pt x="115" y="38" on="0"/>
        <pt x="111" y="27" on="1"/>
        <pt x="97" y="-10" on="0"/>
        <pt x="72" y="-10" on="1"/>
        <pt x="57" y="-10" on="0"/>
        <pt x="39" y="10" on="0"/>
        <pt x="39" y="39" on="0"/>
        <pt x="57" y="100" on="0"/>
        <pt x="94" y="208" on="0"/>
        <pt x="105" y="244" on="1"/>
        <pt x="87" y="244" on="1"/>
        <pt x="39" y="244" on="0"/>
        <pt x="39" y="318" on="0"/>
        <pt x="87" y="318" on="1"/>
        <pt x="110" y="318" on="0"/>
        <pt x="128" y="317" on="1"/>
        <pt x="131" y="325" on="0"/>
        <pt x="259" y="700" on="1"/>
        <pt x="280" y="760" on="0"/>
        <pt x="317" y="760" on="1"/>
        <pt x="342" y="760" on="0"/>
        <pt x="369" y="731" on="0"/>
        <pt x="387" y="686" on="0"/>
        <pt x="408" y="622" on="1"/>
        <pt x="474" y="421" on="0"/>
      </contour>
      <contour>
        <pt x="199" y="315" on="1"/>
        <pt x="255" y="312" on="0"/>
        <pt x="382" y="312" on="0"/>
        <pt x="434" y="315" on="1"/>
        <pt x="331" y="646" on="0"/>
        <pt x="319" y="646" on="1"/>
        <pt x="305" y="646" on="0"/>
        <pt x="226" y="398" on="1"/>
      </contour>
      <contour>
        <pt x="272" y="955" on="0"/>
        <pt x="292" y="928" on="0"/>
        <pt x="292" y="887" on="0"/>
        <pt x="264" y="846" on="0"/>
        <pt x="222" y="846" on="0"/>
        <pt x="201" y="874" on="0"/>
        <pt x="201" y="920" on="0"/>
        <pt x="230" y="955" on="0"/>
      </contour>
      <contour>
        <pt x="432" y="955" on="0"/>
        <pt x="452" y="928" on="0"/>
        <pt x="452" y="887" on="0"/>
        <pt x="424" y="846" on="0"/>
        <pt x="382" y="846" on="0"/>
        <pt x="361" y="874" on="0"/>
        <pt x="361" y="920" on="0"/>
        <pt x="390" y="955" on="0"/>
      </contour>
    </TTGlyph>
    <TTGlyph name="Agrave" xMin="39" yMin="-10" xMax="604" yMax="970">
      <contour>
        <pt x="510" y="318" on="1"/>
        <pt x="554" y="319" on="1"/>
        <pt x="576" y="319" on="0"/>
        <pt x="604" y="297" on="0"/>
        <pt x="604" y="280" on="1"/>
        <pt x="604" y="242" on="0"/>
        <pt x="534" y="242" on="1"/>
        <pt x="550" y="193" on="0"/>
        <pt x="565" y="147" on="0"/>
        <pt x="578" y="112" on="1"/>
        <pt x="604" y="40" on="0"/>
        <pt x="604" y="12" on="0"/>
        <pt x="586" y="-10" on="0"/>
        <pt x="570" y="-10" on="1"/>
        <pt x="541" y="-10" on="0"/>
        <pt x="526" y="25" on="1"/>
        <pt x="512" y="63" on="0"/>
        <pt x="471" y="199" on="0"/>
        <pt x="456" y="246" on="1"/>
        <pt x="336" y="249" on="0"/>
        <pt x="242" y="249" on="0"/>
        <pt x="177" y="246" on="1"/>
        <pt x="115" y="38" on="0"/>
        <pt x="111" y="27" on="1"/>
        <pt x="97" y="-10" on="0"/>
        <pt x="72" y="-10" on="1"/>
        <pt x="57" y="-10" on="0"/>
        <pt x="39" y="10" on="0"/>
        <pt x="39" y="39" on="0"/>
        <pt x="57" y="100" on="0"/>
        <pt x="94" y="208" on="0"/>
        <pt x="105" y="244" on="1"/>
        <pt x="87" y="244" on="1"/>
        <pt x="39" y="244" on="0"/>
        <pt x="39" y="318" on="0"/>
        <pt x="87" y="318" on="1"/>
        <pt x="110" y="318" on="0"/>
        <pt x="128" y="317" on="1"/>
        <pt x="131" y="325" on="0"/>
        <pt x="259" y="700" on="1"/>
        <pt x="280" y="760" on="0"/>
        <pt x="317" y="760" on="1"/>
        <pt x="342" y="760" on="0"/>
        <pt x="369" y="731" on="0"/>
        <pt x="387" y="686" on="0"/>
        <pt x="408" y="622" on="1"/>
        <pt x="474" y="421" on="0"/>
      </contour>
      <contour>
        <pt x="199" y="315" on="1"/>
        <pt x="255" y="312" on="0"/>
        <pt x="382" y="312" on="0"/>
        <pt x="434" y="315" on="1"/>
        <pt x="331" y="646" on="0"/>
        <pt x="319" y="646" on="1"/>
        <pt x="305" y="646" on="0"/>
        <pt x="226" y="398" on="1"/>
      </contour>
      <contour>
        <pt x="364" y="824" on="1"/>
        <pt x="364" y="803" on="0"/>
        <pt x="310" y="803" on="0"/>
        <pt x="219" y="889" on="0"/>
        <pt x="219" y="932" on="1"/>
        <pt x="219" y="947" on="0"/>
        <pt x="237" y="970" on="0"/>
        <pt x="273" y="970" on="0"/>
        <pt x="296" y="942" on="0"/>
        <pt x="317" y="891" on="0"/>
        <pt x="332" y="872" on="0"/>
        <pt x="344" y="859" on="1"/>
        <pt x="364" y="836" on="0"/>
      </contour>
    </TTGlyph>
    <TTGlyph name="Aring" xMin="39" yMin="-10" xMax="604" yMax="986">
      <contour>
        <pt x="510" y="318" on="1"/>
        <pt x="554" y="319" on="1"/>
        <pt x="576" y="319" on="0"/>
        <pt x="604" y="297" on="0"/>
        <pt x="604" y="280" on="1"/>
        <pt x="604" y="242" on="0"/>
        <pt x="534" y="242" on="1"/>
        <pt x="550" y="193" on="0"/>
        <pt x="565" y="147" on="0"/>
        <pt x="578" y="112" on="1"/>
        <pt x="604" y="40" on="0"/>
        <pt x="604" y="12" on="0"/>
        <pt x="586" y="-10" on="0"/>
        <pt x="570" y="-10" on="1"/>
        <pt x="541" y="-10" on="0"/>
        <pt x="526" y="25" on="1"/>
        <pt x="512" y="63" on="0"/>
        <pt x="471" y="199" on="0"/>
        <pt x="456" y="246" on="1"/>
        <pt x="336" y="249" on="0"/>
        <pt x="242" y="249" on="0"/>
        <pt x="177" y="246" on="1"/>
        <pt x="115" y="38" on="0"/>
        <pt x="111" y="27" on="1"/>
        <pt x="97" y="-10" on="0"/>
        <pt x="72" y="-10" on="1"/>
        <pt x="57" y="-10" on="0"/>
        <pt x="39" y="10" on="0"/>
        <pt x="39" y="39" on="0"/>
        <pt x="57" y="100" on="0"/>
        <pt x="94" y="208" on="0"/>
        <pt x="105" y="244" on="1"/>
        <pt x="87" y="244" on="1"/>
        <pt x="39" y="244" on="0"/>
        <pt x="39" y="318" on="0"/>
        <pt x="87" y="318" on="1"/>
        <pt x="110" y="318" on="0"/>
        <pt x="128" y="317" on="1"/>
        <pt x="131" y="325" on="0"/>
        <pt x="259" y="700" on="1"/>
        <pt x="280" y="760" on="0"/>
        <pt x="317" y="760" on="1"/>
        <pt x="342" y="760" on="0"/>
        <pt x="369" y="731" on="0"/>
        <pt x="387" y="686" on="0"/>
        <pt x="408" y="622" on="1"/>
        <pt x="474" y="421" on="0"/>
      </contour>
      <contour>
        <pt x="199" y="315" on="1"/>
        <pt x="255" y="312" on="0"/>
        <pt x="382" y="312" on="0"/>
        <pt x="434" y="315" on="1"/>
        <pt x="331" y="646" on="0"/>
        <pt x="319" y="646" on="1"/>
        <pt x="305" y="646" on="0"/>
        <pt x="226" y="398" on="1"/>
      </contour>
      <contour>
        <pt x="409" y="931" on="0"/>
        <pt x="409" y="851" on="0"/>
        <pt x="359" y="797" on="0"/>
        <pt x="277" y="797" on="0"/>
        <pt x="227" y="850" on="0"/>
        <pt x="227" y="931" on="0"/>
        <pt x="279" y="986" on="0"/>
        <pt x="357" y="986" on="0"/>
      </contour>
      <contour>
        <pt x="336" y="844" on="0"/>
        <pt x="362" y="873" on="0"/>
        <pt x="362" y="910" on="0"/>
        <pt x="335" y="939" on="0"/>
        <pt x="301" y="939" on="0"/>
        <pt x="274" y="910" on="0"/>
        <pt x="274" y="873" on="0"/>
        <pt x="300" y="844" on="0"/>
      </contour>
    </TTGlyph>
    <TTGlyph name="Atilde" xMin="39" yMin="-10" xMax="604" yMax="945">
      <contour>
        <pt x="510" y="318" on="1"/>
        <pt x="554" y="319" on="1"/>
        <pt x="576" y="319" on="0"/>
        <pt x="604" y="297" on="0"/>
        <pt x="604" y="280" on="1"/>
        <pt x="604" y="242" on="0"/>
        <pt x="534" y="242" on="1"/>
        <pt x="550" y="193" on="0"/>
        <pt x="565" y="147" on="0"/>
        <pt x="578" y="112" on="1"/>
        <pt x="604" y="40" on="0"/>
        <pt x="604" y="12" on="0"/>
        <pt x="586" y="-10" on="0"/>
        <pt x="570" y="-10" on="1"/>
        <pt x="541" y="-10" on="0"/>
        <pt x="526" y="25" on="1"/>
        <pt x="512" y="63" on="0"/>
        <pt x="471" y="199" on="0"/>
        <pt x="456" y="246" on="1"/>
        <pt x="336" y="249" on="0"/>
        <pt x="242" y="249" on="0"/>
        <pt x="177" y="246" on="1"/>
        <pt x="115" y="38" on="0"/>
        <pt x="111" y="27" on="1"/>
        <pt x="97" y="-10" on="0"/>
        <pt x="72" y="-10" on="1"/>
        <pt x="57" y="-10" on="0"/>
        <pt x="39" y="10" on="0"/>
        <pt x="39" y="39" on="0"/>
        <pt x="57" y="100" on="0"/>
        <pt x="94" y="208" on="0"/>
        <pt x="105" y="244" on="1"/>
        <pt x="87" y="244" on="1"/>
        <pt x="39" y="244" on="0"/>
        <pt x="39" y="318" on="0"/>
        <pt x="87" y="318" on="1"/>
        <pt x="110" y="318" on="0"/>
        <pt x="128" y="317" on="1"/>
        <pt x="131" y="325" on="0"/>
        <pt x="259" y="700" on="1"/>
        <pt x="280" y="760" on="0"/>
        <pt x="317" y="760" on="1"/>
        <pt x="342" y="760" on="0"/>
        <pt x="369" y="731" on="0"/>
        <pt x="387" y="686" on="0"/>
        <pt x="408" y="622" on="1"/>
        <pt x="474" y="421" on="0"/>
      </contour>
      <contour>
        <pt x="199" y="315" on="1"/>
        <pt x="255" y="312" on="0"/>
        <pt x="382" y="312" on="0"/>
        <pt x="434" y="315" on="1"/>
        <pt x="331" y="646" on="0"/>
        <pt x="319" y="646" on="1"/>
        <pt x="305" y="646" on="0"/>
        <pt x="226" y="398" on="1"/>
      </contour>
      <contour>
        <pt x="500" y="912" on="1"/>
        <pt x="500" y="878" on="0"/>
        <pt x="449" y="827" on="0"/>
        <pt x="380" y="827" on="0"/>
        <pt x="284" y="882" on="0"/>
        <pt x="243" y="882" on="0"/>
        <pt x="216" y="852" on="0"/>
        <pt x="192" y="821" on="0"/>
        <pt x="163" y="821" on="0"/>
        <pt x="143" y="843" on="0"/>
        <pt x="143" y="857" on="1"/>
        <pt x="143" y="892" on="0"/>
        <pt x="207" y="945" on="0"/>
        <pt x="290" y="945" on="0"/>
        <pt x="393" y="889" on="0"/>
        <pt x="436" y="889" on="0"/>
        <pt x="470" y="940" on="0"/>
        <pt x="488" y="940" on="0"/>
        <pt x="500" y="923" on="0"/>
      </contour>
    </TTGlyph>
    <TTGlyph name="B" xMin="56" yMin="-15" xMax="607" yMax="765">
      <contour>
        <pt x="110" y="83" on="1"/>
        <pt x="113" y="368" on="1"/>
        <pt x="113" y="424" on="0"/>
        <pt x="111" y="633" on="0"/>
        <pt x="111" y="646" on="1"/>
        <pt x="99" y="644" on="0"/>
        <pt x="95" y="644" on="1"/>
        <pt x="65" y="644" on="0"/>
        <pt x="65" y="677" on="1"/>
        <pt x="65" y="699" on="0"/>
        <pt x="117" y="736" on="0"/>
        <pt x="154" y="746" on="1"/>
        <pt x="231" y="765" on="0"/>
        <pt x="354" y="765" on="0"/>
        <pt x="461" y="729" on="0"/>
        <pt x="492" y="701" on="1"/>
        <pt x="552" y="645" on="0"/>
        <pt x="552" y="581" on="1"/>
        <pt x="552" y="465" on="0"/>
        <pt x="444" y="408" on="1"/>
        <pt x="515" y="388" on="0"/>
        <pt x="607" y="275" on="0"/>
        <pt x="607" y="206" on="1"/>
        <pt x="607" y="100" on="0"/>
        <pt x="433" y="-15" on="0"/>
        <pt x="288" y="-15" on="1"/>
        <pt x="187" y="-15" on="0"/>
        <pt x="56" y="28" on="0"/>
        <pt x="56" y="62" on="1"/>
        <pt x="56" y="74" on="0"/>
        <pt x="71" y="90" on="0"/>
        <pt x="97" y="90" on="0"/>
      </contour>
      <contour>
        <pt x="285" y="52" on="1"/>
        <pt x="396" y="52" on="0"/>
        <pt x="528" y="135" on="0"/>
        <pt x="528" y="212" on="1"/>
        <pt x="528" y="275" on="0"/>
        <pt x="423" y="356" on="0"/>
        <pt x="363" y="366" on="1"/>
        <pt x="276" y="351" on="0"/>
        <pt x="213" y="351" on="0"/>
        <pt x="185" y="358" on="1"/>
        <pt x="185" y="138" on="0"/>
        <pt x="189" y="61" on="1"/>
        <pt x="236" y="52" on="0"/>
      </contour>
      <contour>
        <pt x="285" y="697" on="1"/>
        <pt x="241" y="697" on="0"/>
        <pt x="188" y="683" on="1"/>
        <pt x="185" y="630" on="0"/>
        <pt x="185" y="432" on="1"/>
        <pt x="204" y="442" on="0"/>
        <pt x="303" y="442" on="0"/>
        <pt x="345" y="434" on="1"/>
        <pt x="366" y="435" on="0"/>
        <pt x="425" y="464" on="0"/>
        <pt x="479" y="534" on="0"/>
        <pt x="479" y="625" on="0"/>
        <pt x="384" y="697" on="0"/>
      </contour>
    </TTGlyph>
    <TTGlyph name="B.alt" xMin="44" yMin="-15" xMax="689" yMax="765">
      <contour>
        <pt x="192" y="497" on="1"/>
        <pt x="183" y="650" on="0"/>
        <pt x="183" y="671" on="1"/>
        <pt x="183" y="765" on="0"/>
        <pt x="365" y="765" on="1"/>
        <pt x="492" y="765" on="0"/>
        <pt x="634" y="661" on="0"/>
        <pt x="634" y="505" on="0"/>
        <pt x="556" y="437" on="1"/>
        <pt x="689" y="364" on="0"/>
        <pt x="689" y="243" on="1"/>
        <pt x="689" y="161" on="0"/>
        <pt x="588" y="42" on="0"/>
        <pt x="430" y="-15" on="0"/>
        <pt x="262" y="-15" on="0"/>
        <pt x="122" y="29" on="0"/>
        <pt x="44" y="87" on="0"/>
        <pt x="44" y="126" on="0"/>
        <pt x="65" y="146" on="0"/>
        <pt x="92" y="146" on="0"/>
        <pt x="154" y="101" on="0"/>
        <pt x="263" y="55" on="0"/>
        <pt x="334" y="55" on="1"/>
        <pt x="452" y="55" on="0"/>
        <pt x="609" y="160" on="0"/>
        <pt x="609" y="241" on="1"/>
        <pt x="609" y="288" on="0"/>
        <pt x="553" y="368" on="0"/>
        <pt x="505" y="392" on="1"/>
        <pt x="402" y="316" on="0"/>
        <pt x="264" y="298" on="1"/>
        <pt x="268" y="170" on="1"/>
        <pt x="268" y="147" on="0"/>
        <pt x="247" y="119" on="0"/>
        <pt x="210" y="119" on="0"/>
        <pt x="187" y="147" on="0"/>
        <pt x="187" y="170" on="1"/>
        <pt x="187" y="170" on="0"/>
        <pt x="192" y="295" on="1"/>
        <pt x="123" y="298" on="0"/>
        <pt x="53" y="357" on="0"/>
        <pt x="53" y="431" on="0"/>
        <pt x="125" y="487" on="0"/>
      </contour>
      <contour>
        <pt x="262" y="672" on="1"/>
        <pt x="262" y="604" on="0"/>
        <pt x="264" y="503" on="1"/>
        <pt x="386" y="503" on="0"/>
        <pt x="493" y="465" on="1"/>
        <pt x="560" y="516" on="0"/>
        <pt x="560" y="639" on="0"/>
        <pt x="459" y="695" on="0"/>
        <pt x="310" y="695" on="0"/>
      </contour>
      <contour>
        <pt x="262" y="435" on="1"/>
        <pt x="262" y="366" on="1"/>
        <pt x="303" y="367" on="0"/>
        <pt x="413" y="399" on="0"/>
        <pt x="443" y="419" on="1"/>
        <pt x="388" y="437" on="0"/>
        <pt x="290" y="437" on="1"/>
        <pt x="269" y="437" on="0"/>
      </contour>
      <contour>
        <pt x="193" y="362" on="1"/>
        <pt x="193" y="430" on="1"/>
        <pt x="122" y="422" on="0"/>
        <pt x="122" y="397" on="1"/>
        <pt x="122" y="364" on="0"/>
      </contour>
    </TTGlyph>
    <TTGlyph name="C" xMin="57" yMin="-15" xMax="620" yMax="765">
      <contour>
        <pt x="620" y="95" on="1"/>
        <pt x="620" y="63" on="0"/>
        <pt x="477" y="-15" on="0"/>
        <pt x="381" y="-15" on="1"/>
        <pt x="241" y="-15" on="0"/>
        <pt x="57" y="212" on="0"/>
        <pt x="57" y="539" on="0"/>
        <pt x="243" y="765" on="0"/>
        <pt x="383" y="765" on="1"/>
        <pt x="466" y="765" on="0"/>
        <pt x="598" y="703" on="0"/>
        <pt x="598" y="664" on="1"/>
        <pt x="598" y="648" on="0"/>
        <pt x="579" y="630" on="0"/>
        <pt x="546" y="630" on="0"/>
        <pt x="501" y="662" on="0"/>
        <pt x="432" y="695" on="0"/>
        <pt x="383" y="695" on="1"/>
        <pt x="276" y="695" on="0"/>
        <pt x="138" y="506" on="0"/>
        <pt x="138" y="249" on="0"/>
        <pt x="276" y="55" on="0"/>
        <pt x="382" y="55" on="1"/>
        <pt x="431" y="55" on="0"/>
        <pt x="510" y="76" on="0"/>
        <pt x="550" y="100" on="0"/>
        <pt x="584" y="121" on="0"/>
        <pt x="593" y="121" on="1"/>
        <pt x="620" y="121" on="0"/>
      </contour>
    </TTGlyph>
    <TTGlyph name="C.alt" xMin="57" yMin="-15" xMax="640" yMax="765">
      <contour>
        <pt x="383" y="765" on="1"/>
        <pt x="494" y="765" on="0"/>
        <pt x="636" y="642" on="0"/>
        <pt x="636" y="558" on="1"/>
        <pt x="636" y="492" on="0"/>
        <pt x="554" y="408" on="0"/>
        <pt x="442" y="408" on="0"/>
        <pt x="366" y="481" on="0"/>
        <pt x="366" y="570" on="0"/>
        <pt x="404" y="627" on="0"/>
        <pt x="431" y="627" on="1"/>
        <pt x="446" y="627" on="0"/>
        <pt x="466" y="610" on="0"/>
        <pt x="466" y="584" on="0"/>
        <pt x="438" y="547" on="0"/>
        <pt x="438" y="503" on="0"/>
        <pt x="472" y="474" on="0"/>
        <pt x="526" y="474" on="0"/>
        <pt x="564" y="516" on="0"/>
        <pt x="564" y="553" on="1"/>
        <pt x="564" y="606" on="0"/>
        <pt x="469" y="695" on="0"/>
        <pt x="383" y="695" on="1"/>
        <pt x="276" y="695" on="0"/>
        <pt x="138" y="506" on="0"/>
        <pt x="138" y="249" on="0"/>
        <pt x="282" y="55" on="0"/>
        <pt x="392" y="55" on="1"/>
        <pt x="443" y="55" on="0"/>
        <pt x="527" y="82" on="0"/>
        <pt x="548" y="99" on="1"/>
        <pt x="601" y="143" on="0"/>
        <pt x="624" y="143" on="0"/>
        <pt x="640" y="128" on="0"/>
        <pt x="640" y="117" on="1"/>
        <pt x="640" y="79" on="0"/>
        <pt x="491" y="-15" on="0"/>
        <pt x="391" y="-15" on="1"/>
        <pt x="247" y="-15" on="0"/>
        <pt x="57" y="212" on="0"/>
        <pt x="57" y="539" on="0"/>
        <pt x="243" y="765" on="0"/>
      </contour>
    </TTGlyph>
    <TTGlyph name="Ccedilla" xMin="57" yMin="-230" xMax="600" yMax="765">
      <contour>
        <pt x="487" y="-137" on="1"/>
        <pt x="487" y="-177" on="0"/>
        <pt x="417" y="-230" on="0"/>
        <pt x="319" y="-230" on="0"/>
        <pt x="259" y="-184" on="0"/>
        <pt x="259" y="-160" on="1"/>
        <pt x="259" y="-153" on="0"/>
        <pt x="269" y="-141" on="0"/>
        <pt x="285" y="-141" on="0"/>
        <pt x="338" y="-166" on="0"/>
        <pt x="383" y="-166" on="0"/>
        <pt x="414" y="-148" on="0"/>
        <pt x="414" y="-124" on="0"/>
        <pt x="384" y="-100" on="0"/>
        <pt x="348" y="-79" on="0"/>
        <pt x="318" y="-36" on="0"/>
        <pt x="318" y="-10" on="1"/>
        <pt x="202" y="12" on="0"/>
        <pt x="57" y="230" on="0"/>
        <pt x="57" y="539" on="0"/>
        <pt x="237" y="765" on="0"/>
        <pt x="373" y="765" on="1"/>
        <pt x="452" y="765" on="0"/>
        <pt x="578" y="703" on="0"/>
        <pt x="578" y="664" on="1"/>
        <pt x="578" y="648" on="0"/>
        <pt x="559" y="630" on="0"/>
        <pt x="527" y="630" on="0"/>
        <pt x="506" y="646" on="1"/>
        <pt x="442" y="695" on="0"/>
        <pt x="373" y="695" on="1"/>
        <pt x="271" y="695" on="0"/>
        <pt x="138" y="506" on="0"/>
        <pt x="138" y="249" on="0"/>
        <pt x="271" y="55" on="0"/>
        <pt x="372" y="55" on="1"/>
        <pt x="432" y="55" on="0"/>
        <pt x="518" y="88" on="0"/>
        <pt x="563" y="121" on="0"/>
        <pt x="573" y="121" on="1"/>
        <pt x="600" y="121" on="0"/>
        <pt x="600" y="64" on="0"/>
        <pt x="470" y="-12" on="0"/>
        <pt x="382" y="-15" on="1"/>
        <pt x="385" y="-43" on="0"/>
        <pt x="437" y="-70" on="1"/>
        <pt x="456" y="-80" on="0"/>
        <pt x="487" y="-115" on="0"/>
      </contour>
    </TTGlyph>
    <TTGlyph name="D" xMin="57" yMin="-15" xMax="652" yMax="760">
      <contour>
        <pt x="114" y="368" on="1"/>
        <pt x="109" y="654" on="1"/>
        <pt x="61" y="654" on="0"/>
        <pt x="61" y="692" on="1"/>
        <pt x="61" y="726" on="0"/>
        <pt x="193" y="760" on="0"/>
        <pt x="359" y="760" on="0"/>
        <pt x="509" y="692" on="0"/>
        <pt x="556" y="636" on="1"/>
        <pt x="652" y="520" on="0"/>
        <pt x="652" y="364" on="1"/>
        <pt x="652" y="214" on="0"/>
        <pt x="559" y="104" on="1"/>
        <pt x="514" y="50" on="0"/>
        <pt x="369" y="-15" on="0"/>
        <pt x="182" y="-15" on="0"/>
        <pt x="57" y="28" on="0"/>
        <pt x="57" y="62" on="1"/>
        <pt x="57" y="74" on="0"/>
        <pt x="72" y="90" on="0"/>
        <pt x="98" y="90" on="0"/>
        <pt x="111" y="83" on="1"/>
      </contour>
      <contour>
        <pt x="498" y="589" on="1"/>
        <pt x="461" y="634" on="0"/>
        <pt x="341" y="688" on="0"/>
        <pt x="266" y="688" on="1"/>
        <pt x="229" y="688" on="0"/>
        <pt x="191" y="679" on="1"/>
        <pt x="186" y="602" on="0"/>
        <pt x="186" y="181" on="0"/>
        <pt x="192" y="61" on="1"/>
        <pt x="216" y="56" on="0"/>
        <pt x="276" y="56" on="1"/>
        <pt x="418" y="56" on="0"/>
        <pt x="574" y="238" on="0"/>
        <pt x="574" y="497" on="0"/>
      </contour>
    </TTGlyph>
    <TTGlyph name="D.alt" xMin="50" yMin="-15" xMax="767" yMax="760">
      <contour>
        <pt x="767" y="373" on="1"/>
        <pt x="767" y="272" on="0"/>
        <pt x="674" y="98" on="0"/>
        <pt x="483" y="-15" on="0"/>
        <pt x="224" y="-15" on="0"/>
        <pt x="50" y="135" on="0"/>
        <pt x="50" y="246" on="1"/>
        <pt x="50" y="327" on="0"/>
        <pt x="155" y="443" on="0"/>
        <pt x="228" y="456" on="1"/>
        <pt x="228" y="526" on="0"/>
        <pt x="224" y="658" on="1"/>
        <pt x="176" y="658" on="0"/>
        <pt x="176" y="726" on="0"/>
        <pt x="308" y="760" on="0"/>
        <pt x="474" y="760" on="0"/>
        <pt x="624" y="694" on="0"/>
        <pt x="670" y="638" on="1"/>
        <pt x="767" y="523" on="0"/>
      </contour>
      <contour>
        <pt x="225" y="215" on="1"/>
        <pt x="229" y="338" on="1"/>
        <pt x="229" y="386" on="1"/>
        <pt x="182" y="373" on="0"/>
        <pt x="128" y="295" on="0"/>
        <pt x="128" y="246" on="1"/>
        <pt x="128" y="168" on="0"/>
        <pt x="255" y="55" on="0"/>
        <pt x="357" y="55" on="1"/>
        <pt x="496" y="55" on="0"/>
        <pt x="685" y="237" on="0"/>
        <pt x="685" y="368" on="1"/>
        <pt x="685" y="489" on="0"/>
        <pt x="611" y="586" on="1"/>
        <pt x="575" y="633" on="0"/>
        <pt x="455" y="690" on="0"/>
        <pt x="381" y="690" on="1"/>
        <pt x="346" y="690" on="0"/>
        <pt x="306" y="681" on="1"/>
        <pt x="301" y="461" on="1"/>
        <pt x="368" y="457" on="0"/>
        <pt x="476" y="381" on="0"/>
        <pt x="476" y="341" on="1"/>
        <pt x="476" y="325" on="0"/>
        <pt x="457" y="307" on="0"/>
        <pt x="430" y="307" on="0"/>
        <pt x="401" y="334" on="0"/>
        <pt x="374" y="367" on="0"/>
        <pt x="327" y="394" on="0"/>
        <pt x="300" y="394" on="1"/>
        <pt x="301" y="322" on="1"/>
        <pt x="302" y="298" on="0"/>
        <pt x="306" y="227" on="0"/>
        <pt x="306" y="194" on="0"/>
        <pt x="283" y="167" on="0"/>
        <pt x="249" y="167" on="0"/>
        <pt x="225" y="193" on="0"/>
      </contour>
    </TTGlyph>
    <TTGlyph name="E" xMin="46" yMin="-5" xMax="541" yMax="755">
      <contour>
        <pt x="329" y="66" on="1"/>
        <pt x="491" y="71" on="1"/>
        <pt x="541" y="71" on="0"/>
        <pt x="541" y="-5" on="0"/>
        <pt x="491" y="-5" on="1"/>
        <pt x="329" y="0" on="1"/>
        <pt x="329" y="0" on="0"/>
        <pt x="154" y="-5" on="1"/>
        <pt x="109" y="-5" on="0"/>
        <pt x="109" y="33" on="1"/>
        <pt x="109" y="68" on="0"/>
        <pt x="114" y="234" on="0"/>
        <pt x="114" y="363" on="1"/>
        <pt x="105" y="362" on="0"/>
        <pt x="94" y="362" on="1"/>
        <pt x="46" y="362" on="0"/>
        <pt x="46" y="399" on="1"/>
        <pt x="46" y="416" on="0"/>
        <pt x="72" y="438" on="0"/>
        <pt x="105" y="438" on="0"/>
        <pt x="114" y="437" on="1"/>
        <pt x="112" y="638" on="0"/>
        <pt x="107" y="680" on="1"/>
        <pt x="95" y="697" on="0"/>
        <pt x="95" y="717" on="1"/>
        <pt x="95" y="755" on="0"/>
        <pt x="148" y="755" on="1"/>
        <pt x="341" y="750" on="1"/>
        <pt x="491" y="755" on="1"/>
        <pt x="541" y="755" on="0"/>
        <pt x="541" y="679" on="0"/>
        <pt x="491" y="679" on="1"/>
        <pt x="341" y="684" on="1"/>
        <pt x="227" y="684" on="0"/>
        <pt x="191" y="680" on="1"/>
        <pt x="186" y="549" on="0"/>
        <pt x="186" y="435" on="1"/>
        <pt x="230" y="433" on="0"/>
        <pt x="256" y="433" on="1"/>
        <pt x="436" y="438" on="1"/>
        <pt x="459" y="438" on="0"/>
        <pt x="486" y="417" on="0"/>
        <pt x="486" y="399" on="1"/>
        <pt x="486" y="362" on="0"/>
        <pt x="436" y="362" on="1"/>
        <pt x="256" y="367" on="1"/>
        <pt x="228" y="367" on="0"/>
        <pt x="186" y="365" on="1"/>
        <pt x="186" y="266" on="1"/>
        <pt x="186" y="117" on="0"/>
        <pt x="191" y="70" on="1"/>
        <pt x="261" y="66" on="0"/>
      </contour>
    </TTGlyph>
    <TTGlyph name="E.alt" xMin="53" yMin="-15" xMax="607" yMax="765">
      <contour>
        <pt x="115" y="663" on="0"/>
        <pt x="250" y="765" on="0"/>
        <pt x="419" y="765" on="0"/>
        <pt x="548" y="703" on="0"/>
        <pt x="548" y="664" on="1"/>
        <pt x="548" y="648" on="0"/>
        <pt x="529" y="630" on="0"/>
        <pt x="497" y="630" on="0"/>
        <pt x="476" y="646" on="1"/>
        <pt x="412" y="695" on="0"/>
        <pt x="286" y="695" on="0"/>
        <pt x="189" y="634" on="0"/>
        <pt x="189" y="509" on="0"/>
        <pt x="233" y="473" on="1"/>
        <pt x="307" y="508" on="0"/>
        <pt x="428" y="508" on="0"/>
        <pt x="488" y="458" on="0"/>
        <pt x="488" y="396" on="0"/>
        <pt x="423" y="342" on="0"/>
        <pt x="356" y="342" on="1"/>
        <pt x="323" y="342" on="0"/>
        <pt x="246" y="371" on="0"/>
        <pt x="218" y="392" on="1"/>
        <pt x="133" y="334" on="0"/>
        <pt x="133" y="235" on="1"/>
        <pt x="133" y="168" on="0"/>
        <pt x="251" y="55" on="0"/>
        <pt x="358" y="55" on="1"/>
        <pt x="408" y="55" on="0"/>
        <pt x="489" y="82" on="0"/>
        <pt x="529" y="114" on="0"/>
        <pt x="566" y="141" on="0"/>
        <pt x="579" y="141" on="1"/>
        <pt x="607" y="141" on="0"/>
        <pt x="607" y="115" on="1"/>
        <pt x="607" y="93" on="0"/>
        <pt x="542" y="33" on="0"/>
        <pt x="422" y="-15" on="0"/>
        <pt x="358" y="-15" on="1"/>
        <pt x="216" y="-15" on="0"/>
        <pt x="53" y="134" on="0"/>
        <pt x="53" y="226" on="1"/>
        <pt x="53" y="360" on="0"/>
        <pt x="170" y="437" on="1"/>
        <pt x="115" y="494" on="0"/>
      </contour>
      <contour>
        <pt x="273" y="428" on="1"/>
        <pt x="308" y="402" on="0"/>
        <pt x="414" y="402" on="0"/>
        <pt x="414" y="427" on="1"/>
        <pt x="414" y="448" on="0"/>
        <pt x="355" y="448" on="1"/>
        <pt x="315" y="448" on="0"/>
        <pt x="284" y="433" on="1"/>
      </contour>
    </TTGlyph>
    <TTGlyph name="Eacute" xMin="46" yMin="-5" xMax="541" yMax="970">
      <contour>
        <pt x="329" y="66" on="1"/>
        <pt x="491" y="71" on="1"/>
        <pt x="541" y="71" on="0"/>
        <pt x="541" y="-5" on="0"/>
        <pt x="491" y="-5" on="1"/>
        <pt x="329" y="0" on="1"/>
        <pt x="329" y="0" on="0"/>
        <pt x="154" y="-5" on="1"/>
        <pt x="109" y="-5" on="0"/>
        <pt x="109" y="33" on="1"/>
        <pt x="109" y="68" on="0"/>
        <pt x="114" y="234" on="0"/>
        <pt x="114" y="363" on="1"/>
        <pt x="105" y="362" on="0"/>
        <pt x="94" y="362" on="1"/>
        <pt x="46" y="362" on="0"/>
        <pt x="46" y="399" on="1"/>
        <pt x="46" y="416" on="0"/>
        <pt x="72" y="438" on="0"/>
        <pt x="105" y="438" on="0"/>
        <pt x="114" y="437" on="1"/>
        <pt x="112" y="638" on="0"/>
        <pt x="107" y="680" on="1"/>
        <pt x="95" y="697" on="0"/>
        <pt x="95" y="717" on="1"/>
        <pt x="95" y="755" on="0"/>
        <pt x="148" y="755" on="1"/>
        <pt x="341" y="750" on="1"/>
        <pt x="491" y="755" on="1"/>
        <pt x="541" y="755" on="0"/>
        <pt x="541" y="679" on="0"/>
        <pt x="491" y="679" on="1"/>
        <pt x="341" y="684" on="1"/>
        <pt x="227" y="684" on="0"/>
        <pt x="191" y="680" on="1"/>
        <pt x="186" y="549" on="0"/>
        <pt x="186" y="435" on="1"/>
        <pt x="230" y="433" on="0"/>
        <pt x="256" y="433" on="1"/>
        <pt x="436" y="438" on="1"/>
        <pt x="459" y="438" on="0"/>
        <pt x="486" y="417" on="0"/>
        <pt x="486" y="399" on="1"/>
        <pt x="486" y="362" on="0"/>
        <pt x="436" y="362" on="1"/>
        <pt x="256" y="367" on="1"/>
        <pt x="228" y="367" on="0"/>
        <pt x="186" y="365" on="1"/>
        <pt x="186" y="266" on="1"/>
        <pt x="186" y="117" on="0"/>
        <pt x="191" y="70" on="1"/>
        <pt x="261" y="66" on="0"/>
      </contour>
      <contour>
        <pt x="416" y="932" on="1"/>
        <pt x="416" y="889" on="0"/>
        <pt x="325" y="803" on="0"/>
        <pt x="271" y="803" on="0"/>
        <pt x="271" y="824" on="1"/>
        <pt x="271" y="836" on="0"/>
        <pt x="303" y="872" on="0"/>
        <pt x="318" y="891" on="0"/>
        <pt x="339" y="942" on="0"/>
        <pt x="362" y="970" on="0"/>
        <pt x="398" y="970" on="0"/>
        <pt x="416" y="947" on="0"/>
      </contour>
    </TTGlyph>
    <TTGlyph name="Ecircumflex" xMin="46" yMin="-5" xMax="541" yMax="984">
      <contour>
        <pt x="329" y="66" on="1"/>
        <pt x="491" y="71" on="1"/>
        <pt x="541" y="71" on="0"/>
        <pt x="541" y="-5" on="0"/>
        <pt x="491" y="-5" on="1"/>
        <pt x="329" y="0" on="1"/>
        <pt x="329" y="0" on="0"/>
        <pt x="154" y="-5" on="1"/>
        <pt x="109" y="-5" on="0"/>
        <pt x="109" y="33" on="1"/>
        <pt x="109" y="68" on="0"/>
        <pt x="114" y="234" on="0"/>
        <pt x="114" y="363" on="1"/>
        <pt x="105" y="362" on="0"/>
        <pt x="94" y="362" on="1"/>
        <pt x="46" y="362" on="0"/>
        <pt x="46" y="399" on="1"/>
        <pt x="46" y="416" on="0"/>
        <pt x="72" y="438" on="0"/>
        <pt x="105" y="438" on="0"/>
        <pt x="114" y="437" on="1"/>
        <pt x="112" y="638" on="0"/>
        <pt x="107" y="680" on="1"/>
        <pt x="95" y="697" on="0"/>
        <pt x="95" y="717" on="1"/>
        <pt x="95" y="755" on="0"/>
        <pt x="148" y="755" on="1"/>
        <pt x="341" y="750" on="1"/>
        <pt x="491" y="755" on="1"/>
        <pt x="541" y="755" on="0"/>
        <pt x="541" y="679" on="0"/>
        <pt x="491" y="679" on="1"/>
        <pt x="341" y="684" on="1"/>
        <pt x="227" y="684" on="0"/>
        <pt x="191" y="680" on="1"/>
        <pt x="186" y="549" on="0"/>
        <pt x="186" y="435" on="1"/>
        <pt x="230" y="433" on="0"/>
        <pt x="256" y="433" on="1"/>
        <pt x="436" y="438" on="1"/>
        <pt x="459" y="438" on="0"/>
        <pt x="486" y="417" on="0"/>
        <pt x="486" y="399" on="1"/>
        <pt x="486" y="362" on="0"/>
        <pt x="436" y="362" on="1"/>
        <pt x="256" y="367" on="1"/>
        <pt x="228" y="367" on="0"/>
        <pt x="186" y="365" on="1"/>
        <pt x="186" y="266" on="1"/>
        <pt x="186" y="117" on="0"/>
        <pt x="191" y="70" on="1"/>
        <pt x="261" y="66" on="0"/>
      </contour>
      <contour>
        <pt x="451" y="865" on="0"/>
        <pt x="459" y="850" on="0"/>
        <pt x="459" y="829" on="0"/>
        <pt x="441" y="812" on="0"/>
        <pt x="416" y="812" on="0"/>
        <pt x="394" y="830" on="0"/>
        <pt x="373" y="859" on="0"/>
        <pt x="369" y="862" on="1"/>
        <pt x="329" y="910" on="0"/>
        <pt x="298" y="910" on="0"/>
        <pt x="258" y="862" on="1"/>
        <pt x="254" y="859" on="0"/>
        <pt x="244" y="844" on="1"/>
        <pt x="220" y="812" on="0"/>
        <pt x="186" y="812" on="0"/>
        <pt x="168" y="829" on="0"/>
        <pt x="168" y="850" on="0"/>
        <pt x="177" y="865" on="0"/>
        <pt x="186" y="874" on="0"/>
        <pt x="213" y="897" on="0"/>
        <pt x="237" y="920" on="0"/>
        <pt x="272" y="966" on="0"/>
        <pt x="295" y="984" on="0"/>
        <pt x="331" y="984" on="0"/>
        <pt x="355" y="966" on="0"/>
        <pt x="391" y="920" on="0"/>
        <pt x="415" y="897" on="0"/>
        <pt x="441" y="874" on="0"/>
      </contour>
    </TTGlyph>
    <TTGlyph name="Edieresis" xMin="46" yMin="-5" xMax="541" yMax="955">
      <contour>
        <pt x="329" y="66" on="1"/>
        <pt x="491" y="71" on="1"/>
        <pt x="541" y="71" on="0"/>
        <pt x="541" y="-5" on="0"/>
        <pt x="491" y="-5" on="1"/>
        <pt x="329" y="0" on="1"/>
        <pt x="329" y="0" on="0"/>
        <pt x="154" y="-5" on="1"/>
        <pt x="109" y="-5" on="0"/>
        <pt x="109" y="33" on="1"/>
        <pt x="109" y="68" on="0"/>
        <pt x="114" y="234" on="0"/>
        <pt x="114" y="363" on="1"/>
        <pt x="105" y="362" on="0"/>
        <pt x="94" y="362" on="1"/>
        <pt x="46" y="362" on="0"/>
        <pt x="46" y="399" on="1"/>
        <pt x="46" y="416" on="0"/>
        <pt x="72" y="438" on="0"/>
        <pt x="105" y="438" on="0"/>
        <pt x="114" y="437" on="1"/>
        <pt x="112" y="638" on="0"/>
        <pt x="107" y="680" on="1"/>
        <pt x="95" y="697" on="0"/>
        <pt x="95" y="717" on="1"/>
        <pt x="95" y="755" on="0"/>
        <pt x="148" y="755" on="1"/>
        <pt x="341" y="750" on="1"/>
        <pt x="491" y="755" on="1"/>
        <pt x="541" y="755" on="0"/>
        <pt x="541" y="679" on="0"/>
        <pt x="491" y="679" on="1"/>
        <pt x="341" y="684" on="1"/>
        <pt x="227" y="684" on="0"/>
        <pt x="191" y="680" on="1"/>
        <pt x="186" y="549" on="0"/>
        <pt x="186" y="435" on="1"/>
        <pt x="230" y="433" on="0"/>
        <pt x="256" y="433" on="1"/>
        <pt x="436" y="438" on="1"/>
        <pt x="459" y="438" on="0"/>
        <pt x="486" y="417" on="0"/>
        <pt x="486" y="399" on="1"/>
        <pt x="486" y="362" on="0"/>
        <pt x="436" y="362" on="1"/>
        <pt x="256" y="367" on="1"/>
        <pt x="228" y="367" on="0"/>
        <pt x="186" y="365" on="1"/>
        <pt x="186" y="266" on="1"/>
        <pt x="186" y="117" on="0"/>
        <pt x="191" y="70" on="1"/>
        <pt x="261" y="66" on="0"/>
      </contour>
      <contour>
        <pt x="269" y="955" on="0"/>
        <pt x="289" y="928" on="0"/>
        <pt x="289" y="887" on="0"/>
        <pt x="261" y="846" on="0"/>
        <pt x="219" y="846" on="0"/>
        <pt x="198" y="874" on="0"/>
        <pt x="198" y="920" on="0"/>
        <pt x="227" y="955" on="0"/>
      </contour>
      <contour>
        <pt x="429" y="955" on="0"/>
        <pt x="449" y="928" on="0"/>
        <pt x="449" y="887" on="0"/>
        <pt x="421" y="846" on="0"/>
        <pt x="379" y="846" on="0"/>
        <pt x="358" y="874" on="0"/>
        <pt x="358" y="920" on="0"/>
        <pt x="387" y="955" on="0"/>
      </contour>
    </TTGlyph>
    <TTGlyph name="Egrave" xMin="46" yMin="-5" xMax="541" yMax="970">
      <contour>
        <pt x="329" y="66" on="1"/>
        <pt x="491" y="71" on="1"/>
        <pt x="541" y="71" on="0"/>
        <pt x="541" y="-5" on="0"/>
        <pt x="491" y="-5" on="1"/>
        <pt x="329" y="0" on="1"/>
        <pt x="329" y="0" on="0"/>
        <pt x="154" y="-5" on="1"/>
        <pt x="109" y="-5" on="0"/>
        <pt x="109" y="33" on="1"/>
        <pt x="109" y="68" on="0"/>
        <pt x="114" y="234" on="0"/>
        <pt x="114" y="363" on="1"/>
        <pt x="105" y="362" on="0"/>
        <pt x="94" y="362" on="1"/>
        <pt x="46" y="362" on="0"/>
        <pt x="46" y="399" on="1"/>
        <pt x="46" y="416" on="0"/>
        <pt x="72" y="438" on="0"/>
        <pt x="105" y="438" on="0"/>
        <pt x="114" y="437" on="1"/>
        <pt x="112" y="638" on="0"/>
        <pt x="107" y="680" on="1"/>
        <pt x="95" y="697" on="0"/>
        <pt x="95" y="717" on="1"/>
        <pt x="95" y="755" on="0"/>
        <pt x="148" y="755" on="1"/>
        <pt x="341" y="750" on="1"/>
        <pt x="491" y="755" on="1"/>
        <pt x="541" y="755" on="0"/>
        <pt x="541" y="679" on="0"/>
        <pt x="491" y="679" on="1"/>
        <pt x="341" y="684" on="1"/>
        <pt x="227" y="684" on="0"/>
        <pt x="191" y="680" on="1"/>
        <pt x="186" y="549" on="0"/>
        <pt x="186" y="435" on="1"/>
        <pt x="230" y="433" on="0"/>
        <pt x="256" y="433" on="1"/>
        <pt x="436" y="438" on="1"/>
        <pt x="459" y="438" on="0"/>
        <pt x="486" y="417" on="0"/>
        <pt x="486" y="399" on="1"/>
        <pt x="486" y="362" on="0"/>
        <pt x="436" y="362" on="1"/>
        <pt x="256" y="367" on="1"/>
        <pt x="228" y="367" on="0"/>
        <pt x="186" y="365" on="1"/>
        <pt x="186" y="266" on="1"/>
        <pt x="186" y="117" on="0"/>
        <pt x="191" y="70" on="1"/>
        <pt x="261" y="66" on="0"/>
      </contour>
      <contour>
        <pt x="346" y="824" on="1"/>
        <pt x="346" y="803" on="0"/>
        <pt x="292" y="803" on="0"/>
        <pt x="201" y="889" on="0"/>
        <pt x="201" y="932" on="1"/>
        <pt x="201" y="947" on="0"/>
        <pt x="219" y="970" on="0"/>
        <pt x="255" y="970" on="0"/>
        <pt x="278" y="942" on="0"/>
        <pt x="299" y="891" on="0"/>
        <pt x="314" y="872" on="0"/>
        <pt x="326" y="859" on="1"/>
        <pt x="346" y="836" on="0"/>
      </contour>
    </TTGlyph>
    <TTGlyph name="Eth" xMin="7" yMin="-15" xMax="672" yMax="760">
      <contour>
        <pt x="134" y="401" on="1"/>
        <pt x="129" y="654" on="1"/>
        <pt x="81" y="654" on="0"/>
        <pt x="81" y="692" on="1"/>
        <pt x="81" y="726" on="0"/>
        <pt x="213" y="760" on="0"/>
        <pt x="379" y="760" on="0"/>
        <pt x="529" y="692" on="0"/>
        <pt x="576" y="636" on="1"/>
        <pt x="672" y="520" on="0"/>
        <pt x="672" y="364" on="1"/>
        <pt x="672" y="214" on="0"/>
        <pt x="579" y="104" on="1"/>
        <pt x="534" y="50" on="0"/>
        <pt x="389" y="-15" on="0"/>
        <pt x="202" y="-15" on="0"/>
        <pt x="77" y="28" on="0"/>
        <pt x="77" y="62" on="1"/>
        <pt x="77" y="74" on="0"/>
        <pt x="92" y="90" on="0"/>
        <pt x="118" y="90" on="0"/>
        <pt x="131" y="83" on="1"/>
        <pt x="134" y="340" on="1"/>
        <pt x="54" y="338" on="0"/>
        <pt x="30" y="338" on="0"/>
        <pt x="7" y="356" on="0"/>
        <pt x="7" y="386" on="0"/>
        <pt x="30" y="404" on="0"/>
        <pt x="71" y="404" on="0"/>
      </contour>
      <contour>
        <pt x="373" y="356" on="0"/>
        <pt x="350" y="338" on="0"/>
        <pt x="293" y="338" on="0"/>
        <pt x="206" y="341" on="1"/>
        <pt x="206" y="172" on="0"/>
        <pt x="212" y="62" on="1"/>
        <pt x="240" y="56" on="0"/>
        <pt x="296" y="56" on="1"/>
        <pt x="438" y="56" on="0"/>
        <pt x="594" y="238" on="0"/>
        <pt x="594" y="369" on="1"/>
        <pt x="594" y="497" on="0"/>
        <pt x="518" y="589" on="1"/>
        <pt x="481" y="634" on="0"/>
        <pt x="361" y="688" on="0"/>
        <pt x="286" y="688" on="1"/>
        <pt x="249" y="688" on="0"/>
        <pt x="211" y="679" on="1"/>
        <pt x="206" y="609" on="0"/>
        <pt x="206" y="401" on="1"/>
        <pt x="206" y="401" on="0"/>
        <pt x="332" y="404" on="1"/>
        <pt x="350" y="404" on="0"/>
        <pt x="373" y="386" on="0"/>
      </contour>
    </TTGlyph>
    <TTGlyph name="Euro" xMin="51" yMin="-15" xMax="582" yMax="715">
      <contour>
        <pt x="269" y="315" on="1"/>
        <pt x="446" y="318" on="1"/>
        <pt x="464" y="318" on="0"/>
        <pt x="487" y="300" on="0"/>
        <pt x="487" y="270" on="0"/>
        <pt x="464" y="252" on="0"/>
        <pt x="446" y="252" on="1"/>
        <pt x="269" y="255" on="1"/>
        <pt x="229" y="255" on="0"/>
        <pt x="209" y="254" on="1"/>
        <pt x="226" y="161" on="0"/>
        <pt x="322" y="49" on="0"/>
        <pt x="396" y="49" on="1"/>
        <pt x="428" y="49" on="0"/>
        <pt x="483" y="70" on="0"/>
        <pt x="498" y="82" on="1"/>
        <pt x="539" y="115" on="0"/>
        <pt x="566" y="115" on="0"/>
        <pt x="582" y="97" on="0"/>
        <pt x="582" y="85" on="1"/>
        <pt x="582" y="55" on="0"/>
        <pt x="472" y="-15" on="0"/>
        <pt x="396" y="-15" on="1"/>
        <pt x="296" y="-15" on="0"/>
        <pt x="160" y="134" on="0"/>
        <pt x="139" y="253" on="1"/>
        <pt x="118" y="252" on="0"/>
        <pt x="74" y="252" on="0"/>
        <pt x="51" y="270" on="0"/>
        <pt x="51" y="300" on="0"/>
        <pt x="74" y="318" on="0"/>
        <pt x="92" y="318" on="1"/>
      </contour>
      <contour>
        <pt x="269" y="439" on="1"/>
        <pt x="446" y="442" on="1"/>
        <pt x="464" y="442" on="0"/>
        <pt x="487" y="424" on="0"/>
        <pt x="487" y="394" on="0"/>
        <pt x="464" y="376" on="0"/>
        <pt x="446" y="376" on="1"/>
        <pt x="269" y="379" on="1"/>
        <pt x="92" y="376" on="1"/>
        <pt x="74" y="376" on="0"/>
        <pt x="51" y="394" on="0"/>
        <pt x="51" y="424" on="0"/>
        <pt x="74" y="442" on="0"/>
        <pt x="92" y="442" on="1"/>
        <pt x="138" y="441" on="1"/>
        <pt x="157" y="563" on="0"/>
        <pt x="294" y="715" on="0"/>
        <pt x="396" y="715" on="1"/>
        <pt x="467" y="715" on="0"/>
        <pt x="568" y="652" on="0"/>
        <pt x="568" y="617" on="1"/>
        <pt x="568" y="606" on="0"/>
        <pt x="553" y="587" on="0"/>
        <pt x="525" y="587" on="0"/>
        <pt x="498" y="607" on="0"/>
        <pt x="474" y="632" on="0"/>
        <pt x="426" y="652" on="0"/>
        <pt x="396" y="652" on="1"/>
        <pt x="321" y="652" on="0"/>
        <pt x="223" y="535" on="0"/>
        <pt x="207" y="439" on="1"/>
      </contour>
    </TTGlyph>
    <TTGlyph name="F" xMin="45" yMin="-10" xMax="540" yMax="755">
      <contour>
        <pt x="255" y="433" on="1"/>
        <pt x="424" y="438" on="1"/>
        <pt x="447" y="438" on="0"/>
        <pt x="475" y="416" on="0"/>
        <pt x="475" y="382" on="0"/>
        <pt x="447" y="362" on="0"/>
        <pt x="424" y="362" on="1"/>
        <pt x="255" y="367" on="1"/>
        <pt x="227" y="367" on="0"/>
        <pt x="185" y="365" on="1"/>
        <pt x="190" y="48" on="1"/>
        <pt x="190" y="-10" on="0"/>
        <pt x="108" y="-10" on="0"/>
        <pt x="108" y="48" on="1"/>
        <pt x="108" y="87" on="0"/>
        <pt x="113" y="283" on="0"/>
        <pt x="113" y="363" on="1"/>
        <pt x="104" y="362" on="0"/>
        <pt x="93" y="362" on="1"/>
        <pt x="45" y="362" on="0"/>
        <pt x="45" y="399" on="1"/>
        <pt x="45" y="416" on="0"/>
        <pt x="71" y="438" on="0"/>
        <pt x="104" y="438" on="0"/>
        <pt x="113" y="437" on="1"/>
        <pt x="111" y="638" on="0"/>
        <pt x="106" y="680" on="1"/>
        <pt x="94" y="697" on="0"/>
        <pt x="94" y="717" on="1"/>
        <pt x="94" y="755" on="0"/>
        <pt x="150" y="755" on="1"/>
        <pt x="340" y="750" on="1"/>
        <pt x="486" y="755" on="1"/>
        <pt x="540" y="755" on="0"/>
        <pt x="540" y="679" on="0"/>
        <pt x="486" y="679" on="1"/>
        <pt x="340" y="684" on="1"/>
        <pt x="226" y="684" on="0"/>
        <pt x="190" y="680" on="1"/>
        <pt x="185" y="549" on="0"/>
        <pt x="185" y="435" on="1"/>
        <pt x="229" y="433" on="0"/>
      </contour>
    </TTGlyph>
    <TTGlyph name="F.alt" xMin="25" yMin="-10" xMax="623" yMax="785">
      <contour>
        <pt x="170" y="48" on="1"/>
        <pt x="175" y="343" on="1"/>
        <pt x="109" y="354" on="0"/>
        <pt x="109" y="389" on="1"/>
        <pt x="109" y="405" on="0"/>
        <pt x="128" y="423" on="0"/>
        <pt x="145" y="423" on="0"/>
        <pt x="175" y="418" on="1"/>
        <pt x="174" y="530" on="0"/>
        <pt x="172" y="579" on="1"/>
        <pt x="106" y="587" on="0"/>
        <pt x="25" y="649" on="0"/>
        <pt x="25" y="697" on="1"/>
        <pt x="25" y="727" on="0"/>
        <pt x="74" y="785" on="0"/>
        <pt x="178" y="785" on="0"/>
        <pt x="236" y="708" on="0"/>
        <pt x="243" y="647" on="1"/>
        <pt x="327" y="647" on="0"/>
        <pt x="459" y="691" on="0"/>
        <pt x="541" y="742" on="0"/>
        <pt x="584" y="774" on="0"/>
        <pt x="607" y="774" on="0"/>
        <pt x="623" y="759" on="0"/>
        <pt x="623" y="748" on="1"/>
        <pt x="623" y="707" on="0"/>
        <pt x="504" y="625" on="0"/>
        <pt x="328" y="573" on="0"/>
        <pt x="247" y="573" on="1"/>
        <pt x="247" y="408" on="1"/>
        <pt x="272" y="404" on="0"/>
        <pt x="375" y="404" on="0"/>
        <pt x="490" y="426" on="0"/>
        <pt x="507" y="426" on="0"/>
        <pt x="527" y="412" on="0"/>
        <pt x="527" y="398" on="1"/>
        <pt x="527" y="370" on="0"/>
        <pt x="384" y="334" on="0"/>
        <pt x="283" y="334" on="0"/>
        <pt x="247" y="336" on="1"/>
        <pt x="252" y="48" on="1"/>
        <pt x="252" y="-10" on="0"/>
        <pt x="170" y="-10" on="0"/>
      </contour>
      <contour>
        <pt x="170" y="651" on="1"/>
        <pt x="163" y="720" on="0"/>
        <pt x="124" y="720" on="1"/>
        <pt x="112" y="720" on="0"/>
        <pt x="94" y="704" on="0"/>
        <pt x="94" y="694" on="1"/>
        <pt x="94" y="660" on="0"/>
      </contour>
    </TTGlyph>
    <TTGlyph name="G" xMin="57" yMin="-16" xMax="677" yMax="765">
      <contour>
        <pt x="365" y="395" on="1"/>
        <pt x="497" y="390" on="1"/>
        <pt x="531" y="390" on="0"/>
        <pt x="621" y="396" on="0"/>
        <pt x="626" y="396" on="1"/>
        <pt x="677" y="396" on="0"/>
        <pt x="677" y="352" on="1"/>
        <pt x="677" y="183" on="0"/>
        <pt x="511" y="-16" on="0"/>
        <pt x="242" y="-16" on="0"/>
        <pt x="57" y="212" on="0"/>
        <pt x="57" y="539" on="0"/>
        <pt x="248" y="765" on="0"/>
        <pt x="393" y="765" on="1"/>
        <pt x="483" y="765" on="0"/>
        <pt x="628" y="695" on="0"/>
        <pt x="628" y="654" on="1"/>
        <pt x="628" y="638" on="0"/>
        <pt x="609" y="620" on="0"/>
        <pt x="577" y="620" on="0"/>
        <pt x="538" y="643" on="0"/>
        <pt x="503" y="672" on="0"/>
        <pt x="435" y="695" on="0"/>
        <pt x="393" y="695" on="1"/>
        <pt x="282" y="695" on="0"/>
        <pt x="138" y="506" on="0"/>
        <pt x="138" y="249" on="0"/>
        <pt x="276" y="55" on="0"/>
        <pt x="382" y="55" on="1"/>
        <pt x="472" y="55" on="0"/>
        <pt x="591" y="194" on="0"/>
        <pt x="593" y="320" on="1"/>
        <pt x="543" y="324" on="0"/>
        <pt x="497" y="324" on="1"/>
        <pt x="365" y="319" on="1"/>
        <pt x="317" y="319" on="0"/>
        <pt x="317" y="356" on="1"/>
        <pt x="317" y="374" on="0"/>
        <pt x="343" y="395" on="0"/>
      </contour>
    </TTGlyph>
    <TTGlyph name="G.alt" xMin="57" yMin="-16" xMax="766" yMax="765">
      <contour>
        <pt x="585" y="341" on="1"/>
        <pt x="573" y="355" on="0"/>
        <pt x="508" y="379" on="0"/>
        <pt x="444" y="379" on="0"/>
        <pt x="428" y="373" on="1"/>
        <pt x="397" y="362" on="0"/>
        <pt x="397" y="348" on="1"/>
        <pt x="397" y="322" on="0"/>
        <pt x="526" y="322" on="0"/>
      </contour>
      <contour>
        <pt x="595" y="281" on="1"/>
        <pt x="528" y="257" on="0"/>
        <pt x="394" y="257" on="0"/>
        <pt x="319" y="307" on="0"/>
        <pt x="319" y="381" on="0"/>
        <pt x="394" y="447" on="0"/>
        <pt x="531" y="447" on="0"/>
        <pt x="631" y="397" on="0"/>
        <pt x="650" y="371" on="1"/>
        <pt x="668" y="378" on="0"/>
        <pt x="729" y="424" on="0"/>
        <pt x="752" y="424" on="0"/>
        <pt x="766" y="408" on="0"/>
        <pt x="766" y="394" on="1"/>
        <pt x="766" y="360" on="0"/>
        <pt x="670" y="309" on="1"/>
        <pt x="670" y="170" on="0"/>
        <pt x="507" y="-16" on="0"/>
        <pt x="383" y="-16" on="1"/>
        <pt x="242" y="-16" on="0"/>
        <pt x="57" y="212" on="0"/>
        <pt x="57" y="539" on="0"/>
        <pt x="248" y="765" on="0"/>
        <pt x="393" y="765" on="1"/>
        <pt x="483" y="765" on="0"/>
        <pt x="628" y="695" on="0"/>
        <pt x="628" y="654" on="1"/>
        <pt x="628" y="638" on="0"/>
        <pt x="609" y="620" on="0"/>
        <pt x="577" y="620" on="0"/>
        <pt x="538" y="643" on="0"/>
        <pt x="503" y="672" on="0"/>
        <pt x="435" y="695" on="0"/>
        <pt x="393" y="695" on="1"/>
        <pt x="282" y="695" on="0"/>
        <pt x="138" y="506" on="0"/>
        <pt x="138" y="249" on="0"/>
        <pt x="276" y="55" on="0"/>
        <pt x="382" y="55" on="1"/>
        <pt x="469" y="55" on="0"/>
        <pt x="593" y="193" on="0"/>
      </contour>
    </TTGlyph>
    <TTGlyph name="H" xMin="44" yMin="-10" xMax="674" yMax="760">
      <contour>
        <pt x="612" y="709" on="1"/>
        <pt x="607" y="436" on="1"/>
        <pt x="623" y="436" on="1"/>
        <pt x="645" y="436" on="0"/>
        <pt x="674" y="413" on="0"/>
        <pt x="674" y="379" on="0"/>
        <pt x="646" y="358" on="0"/>
        <pt x="623" y="358" on="1"/>
        <pt x="607" y="358" on="1"/>
        <pt x="612" y="41" on="1"/>
        <pt x="612" y="19" on="0"/>
        <pt x="588" y="-10" on="0"/>
        <pt x="554" y="-10" on="0"/>
        <pt x="530" y="19" on="0"/>
        <pt x="530" y="41" on="1"/>
        <pt x="535" y="361" on="1"/>
        <pt x="388" y="364" on="0"/>
        <pt x="257" y="364" on="0"/>
        <pt x="182" y="361" on="1"/>
        <pt x="182" y="199" on="0"/>
        <pt x="187" y="49" on="0"/>
        <pt x="187" y="19" on="0"/>
        <pt x="163" y="-10" on="0"/>
        <pt x="129" y="-10" on="0"/>
        <pt x="105" y="19" on="0"/>
        <pt x="105" y="49" on="0"/>
        <pt x="106" y="94" on="1"/>
        <pt x="110" y="197" on="0"/>
        <pt x="110" y="359" on="1"/>
        <pt x="92" y="359" on="1"/>
        <pt x="44" y="359" on="0"/>
        <pt x="44" y="396" on="1"/>
        <pt x="44" y="414" on="0"/>
        <pt x="70" y="435" on="0"/>
        <pt x="92" y="435" on="1"/>
        <pt x="110" y="435" on="1"/>
        <pt x="105" y="709" on="1"/>
        <pt x="105" y="731" on="0"/>
        <pt x="129" y="760" on="0"/>
        <pt x="163" y="760" on="0"/>
        <pt x="187" y="731" on="0"/>
        <pt x="187" y="709" on="1"/>
        <pt x="182" y="432" on="1"/>
        <pt x="282" y="430" on="0"/>
        <pt x="462" y="430" on="0"/>
        <pt x="535" y="433" on="1"/>
        <pt x="530" y="709" on="1"/>
        <pt x="530" y="731" on="0"/>
        <pt x="554" y="760" on="0"/>
        <pt x="588" y="760" on="0"/>
        <pt x="612" y="731" on="0"/>
      </contour>
    </TTGlyph>
    <TTGlyph name="H.alt" xMin="45" yMin="-10" xMax="625" yMax="760">
      <contour>
        <pt x="607" y="437" on="1"/>
        <pt x="614" y="41" on="1"/>
        <pt x="614" y="19" on="0"/>
        <pt x="590" y="-10" on="0"/>
        <pt x="556" y="-10" on="0"/>
        <pt x="532" y="19" on="0"/>
        <pt x="532" y="41" on="1"/>
        <pt x="538" y="345" on="1"/>
        <pt x="538" y="377" on="1"/>
        <pt x="497" y="345" on="0"/>
        <pt x="364" y="307" on="0"/>
        <pt x="231" y="307" on="0"/>
        <pt x="184" y="317" on="1"/>
        <pt x="189" y="41" on="1"/>
        <pt x="189" y="19" on="0"/>
        <pt x="165" y="-10" on="0"/>
        <pt x="131" y="-10" on="0"/>
        <pt x="107" y="19" on="0"/>
        <pt x="107" y="41" on="1"/>
        <pt x="111" y="334" on="1"/>
        <pt x="45" y="356" on="0"/>
        <pt x="45" y="397" on="1"/>
        <pt x="45" y="414" on="0"/>
        <pt x="63" y="432" on="0"/>
        <pt x="89" y="432" on="0"/>
        <pt x="113" y="416" on="1"/>
        <pt x="107" y="709" on="1"/>
        <pt x="107" y="731" on="0"/>
        <pt x="131" y="760" on="0"/>
        <pt x="165" y="760" on="0"/>
        <pt x="189" y="731" on="0"/>
        <pt x="189" y="701" on="0"/>
        <pt x="188" y="655" on="1"/>
        <pt x="184" y="548" on="0"/>
        <pt x="184" y="389" on="1"/>
        <pt x="228" y="374" on="0"/>
        <pt x="299" y="374" on="1"/>
        <pt x="459" y="374" on="0"/>
        <pt x="537" y="472" on="1"/>
        <pt x="532" y="693" on="1"/>
        <pt x="532" y="760" on="0"/>
        <pt x="576" y="760" on="1"/>
        <pt x="610" y="760" on="0"/>
        <pt x="618" y="729" on="1"/>
        <pt x="625" y="706" on="0"/>
        <pt x="625" y="560" on="0"/>
      </contour>
    </TTGlyph>
    <TTGlyph name="Hbar" xMin="17" yMin="-10" xMax="733" yMax="760">
      <contour>
        <pt x="546" y="41" on="1"/>
        <pt x="551" y="361" on="1"/>
        <pt x="404" y="364" on="0"/>
        <pt x="273" y="364" on="0"/>
        <pt x="198" y="361" on="1"/>
        <pt x="198" y="199" on="0"/>
        <pt x="203" y="49" on="0"/>
        <pt x="203" y="19" on="0"/>
        <pt x="179" y="-10" on="0"/>
        <pt x="145" y="-10" on="0"/>
        <pt x="121" y="19" on="0"/>
        <pt x="121" y="49" on="0"/>
        <pt x="122" y="94" on="1"/>
        <pt x="126" y="197" on="0"/>
        <pt x="126" y="359" on="1"/>
        <pt x="108" y="359" on="1"/>
        <pt x="60" y="359" on="0"/>
        <pt x="60" y="396" on="1"/>
        <pt x="60" y="414" on="0"/>
        <pt x="86" y="435" on="0"/>
        <pt x="108" y="435" on="1"/>
        <pt x="123" y="435" on="1"/>
        <pt x="123" y="607" on="1"/>
        <pt x="58" y="607" on="1"/>
        <pt x="40" y="607" on="0"/>
        <pt x="17" y="625" on="0"/>
        <pt x="17" y="655" on="0"/>
        <pt x="40" y="673" on="0"/>
        <pt x="93" y="673" on="0"/>
        <pt x="121" y="672" on="1"/>
        <pt x="121" y="709" on="1"/>
        <pt x="121" y="731" on="0"/>
        <pt x="145" y="760" on="0"/>
        <pt x="179" y="760" on="0"/>
        <pt x="203" y="731" on="0"/>
        <pt x="203" y="688" on="0"/>
        <pt x="202" y="671" on="1"/>
        <pt x="256" y="670" on="0"/>
        <pt x="493" y="670" on="0"/>
        <pt x="546" y="671" on="1"/>
        <pt x="546" y="709" on="1"/>
        <pt x="546" y="731" on="0"/>
        <pt x="570" y="760" on="0"/>
        <pt x="604" y="760" on="0"/>
        <pt x="628" y="731" on="0"/>
        <pt x="628" y="689" on="0"/>
        <pt x="627" y="672" on="1"/>
        <pt x="656" y="673" on="0"/>
        <pt x="710" y="673" on="0"/>
        <pt x="733" y="655" on="0"/>
        <pt x="733" y="625" on="0"/>
        <pt x="710" y="607" on="0"/>
        <pt x="692" y="607" on="1"/>
        <pt x="625" y="607" on="1"/>
        <pt x="623" y="517" on="0"/>
        <pt x="623" y="436" on="1"/>
        <pt x="639" y="436" on="1"/>
        <pt x="661" y="436" on="0"/>
        <pt x="690" y="413" on="0"/>
        <pt x="690" y="379" on="0"/>
        <pt x="662" y="358" on="0"/>
        <pt x="639" y="358" on="1"/>
        <pt x="623" y="358" on="1"/>
        <pt x="628" y="41" on="1"/>
        <pt x="628" y="19" on="0"/>
        <pt x="604" y="-10" on="0"/>
        <pt x="570" y="-10" on="0"/>
        <pt x="546" y="19" on="0"/>
      </contour>
      <contour>
        <pt x="548" y="609" on="1"/>
        <pt x="375" y="610" on="1"/>
        <pt x="200" y="609" on="1"/>
        <pt x="198" y="515" on="0"/>
        <pt x="198" y="432" on="1"/>
        <pt x="298" y="430" on="0"/>
        <pt x="479" y="430" on="0"/>
        <pt x="548" y="433" on="1"/>
      </contour>
    </TTGlyph>
    <TTGlyph name="I" xMin="37" yMin="-6" xMax="399" yMax="756">
      <contour>
        <pt x="260" y="66" on="1"/>
        <pt x="348" y="71" on="1"/>
        <pt x="371" y="71" on="0"/>
        <pt x="398" y="50" on="0"/>
        <pt x="398" y="16" on="0"/>
        <pt x="370" y="-6" on="0"/>
        <pt x="348" y="-6" on="1"/>
        <pt x="219" y="0" on="1"/>
        <pt x="87" y="-5" on="1"/>
        <pt x="37" y="-5" on="0"/>
        <pt x="37" y="71" on="0"/>
        <pt x="87" y="71" on="1"/>
        <pt x="98" y="71" on="0"/>
        <pt x="178" y="66" on="1"/>
        <pt x="183" y="291" on="0"/>
        <pt x="183" y="458" on="0"/>
        <pt x="178" y="683" on="1"/>
        <pt x="90" y="679" on="0"/>
        <pt x="87" y="679" on="1"/>
        <pt x="39" y="679" on="0"/>
        <pt x="39" y="716" on="1"/>
        <pt x="39" y="734" on="0"/>
        <pt x="65" y="755" on="0"/>
        <pt x="87" y="755" on="1"/>
        <pt x="219" y="750" on="1"/>
        <pt x="253" y="750" on="0"/>
        <pt x="343" y="756" on="0"/>
        <pt x="370" y="756" on="0"/>
        <pt x="399" y="733" on="0"/>
        <pt x="399" y="699" on="0"/>
        <pt x="371" y="678" on="0"/>
        <pt x="340" y="678" on="0"/>
        <pt x="260" y="683" on="1"/>
        <pt x="255" y="453" on="0"/>
        <pt x="255" y="291" on="0"/>
      </contour>
    </TTGlyph>
    <TTGlyph name="I.alt" xMin="37" yMin="-15" xMax="558" yMax="760">
      <contour>
        <pt x="487" y="444" on="1"/>
        <pt x="486" y="275" on="1"/>
        <pt x="486" y="128" on="0"/>
        <pt x="346" y="-15" on="0"/>
        <pt x="144" y="-15" on="0"/>
        <pt x="37" y="102" on="0"/>
        <pt x="37" y="247" on="0"/>
        <pt x="129" y="338" on="0"/>
        <pt x="250" y="338" on="0"/>
        <pt x="319" y="262" on="0"/>
        <pt x="319" y="172" on="0"/>
        <pt x="282" y="121" on="0"/>
        <pt x="249" y="121" on="0"/>
        <pt x="249" y="135" on="1"/>
        <pt x="249" y="139" on="0"/>
        <pt x="258" y="178" on="0"/>
        <pt x="258" y="224" on="0"/>
        <pt x="217" y="271" on="0"/>
        <pt x="153" y="271" on="0"/>
        <pt x="109" y="221" on="0"/>
        <pt x="109" y="132" on="0"/>
        <pt x="174" y="55" on="0"/>
        <pt x="237" y="55" on="1"/>
        <pt x="320" y="55" on="0"/>
        <pt x="414" y="166" on="0"/>
        <pt x="414" y="266" on="1"/>
        <pt x="415" y="444" on="1"/>
        <pt x="415" y="605" on="0"/>
        <pt x="413" y="671" on="1"/>
        <pt x="355" y="662" on="0"/>
        <pt x="314" y="662" on="1"/>
        <pt x="98" y="662" on="0"/>
        <pt x="98" y="725" on="1"/>
        <pt x="98" y="760" on="0"/>
        <pt x="136" y="760" on="1"/>
        <pt x="138" y="760" on="0"/>
        <pt x="262" y="735" on="0"/>
        <pt x="366" y="735" on="0"/>
        <pt x="511" y="760" on="0"/>
        <pt x="516" y="760" on="1"/>
        <pt x="558" y="760" on="0"/>
        <pt x="558" y="693" on="0"/>
        <pt x="489" y="681" on="1"/>
        <pt x="487" y="611" on="0"/>
      </contour>
    </TTGlyph>
    <TTGlyph name="IJ" xMin="37" yMin="-10" xMax="880" yMax="757">
      <contour>
        <pt x="260" y="66" on="1"/>
        <pt x="348" y="71" on="1"/>
        <pt x="371" y="71" on="0"/>
        <pt x="398" y="50" on="0"/>
        <pt x="398" y="16" on="0"/>
        <pt x="370" y="-6" on="0"/>
        <pt x="348" y="-6" on="1"/>
        <pt x="219" y="0" on="1"/>
        <pt x="87" y="-5" on="1"/>
        <pt x="37" y="-5" on="0"/>
        <pt x="37" y="71" on="0"/>
        <pt x="87" y="71" on="1"/>
        <pt x="98" y="71" on="0"/>
        <pt x="178" y="66" on="1"/>
        <pt x="183" y="291" on="0"/>
        <pt x="183" y="458" on="0"/>
        <pt x="178" y="683" on="1"/>
        <pt x="90" y="679" on="0"/>
        <pt x="87" y="679" on="1"/>
        <pt x="39" y="679" on="0"/>
        <pt x="39" y="716" on="1"/>
        <pt x="39" y="734" on="0"/>
        <pt x="65" y="755" on="0"/>
        <pt x="87" y="755" on="1"/>
        <pt x="219" y="750" on="1"/>
        <pt x="253" y="750" on="0"/>
        <pt x="343" y="756" on="0"/>
        <pt x="370" y="756" on="0"/>
        <pt x="399" y="733" on="0"/>
        <pt x="399" y="699" on="0"/>
        <pt x="371" y="678" on="0"/>
        <pt x="340" y="678" on="0"/>
        <pt x="260" y="683" on="1"/>
        <pt x="255" y="453" on="0"/>
        <pt x="255" y="291" on="0"/>
      </contour>
      <contour>
        <pt x="809" y="374" on="1"/>
        <pt x="810" y="254" on="1"/>
        <pt x="810" y="118" on="0"/>
        <pt x="684" y="-10" on="0"/>
        <pt x="526" y="-10" on="0"/>
        <pt x="429" y="61" on="0"/>
        <pt x="429" y="91" on="1"/>
        <pt x="429" y="107" on="0"/>
        <pt x="448" y="126" on="0"/>
        <pt x="474" y="126" on="0"/>
        <pt x="500" y="104" on="0"/>
        <pt x="522" y="78" on="0"/>
        <pt x="568" y="56" on="0"/>
        <pt x="598" y="56" on="1"/>
        <pt x="655" y="56" on="0"/>
        <pt x="736" y="161" on="0"/>
        <pt x="736" y="276" on="1"/>
        <pt x="737" y="374" on="1"/>
        <pt x="737" y="598" on="0"/>
        <pt x="735" y="684" on="1"/>
        <pt x="724" y="685" on="0"/>
        <pt x="703" y="685" on="1"/>
        <pt x="568" y="680" on="1"/>
        <pt x="520" y="680" on="0"/>
        <pt x="520" y="717" on="1"/>
        <pt x="520" y="734" on="0"/>
        <pt x="546" y="756" on="0"/>
        <pt x="568" y="756" on="1"/>
        <pt x="700" y="751" on="1"/>
        <pt x="734" y="751" on="0"/>
        <pt x="824" y="757" on="0"/>
        <pt x="851" y="757" on="0"/>
        <pt x="880" y="734" on="0"/>
        <pt x="880" y="700" on="0"/>
        <pt x="849" y="679" on="0"/>
        <pt x="826" y="679" on="1"/>
        <pt x="811" y="679" on="1"/>
        <pt x="809" y="587" on="0"/>
      </contour>
    </TTGlyph>
    <TTGlyph name="Iacute" xMin="37" yMin="-6" xMax="399" yMax="970">
      <contour>
        <pt x="260" y="66" on="1"/>
        <pt x="348" y="71" on="1"/>
        <pt x="371" y="71" on="0"/>
        <pt x="398" y="50" on="0"/>
        <pt x="398" y="16" on="0"/>
        <pt x="370" y="-6" on="0"/>
        <pt x="348" y="-6" on="1"/>
        <pt x="219" y="0" on="1"/>
        <pt x="87" y="-5" on="1"/>
        <pt x="37" y="-5" on="0"/>
        <pt x="37" y="71" on="0"/>
        <pt x="87" y="71" on="1"/>
        <pt x="98" y="71" on="0"/>
        <pt x="178" y="66" on="1"/>
        <pt x="183" y="291" on="0"/>
        <pt x="183" y="458" on="0"/>
        <pt x="178" y="683" on="1"/>
        <pt x="90" y="679" on="0"/>
        <pt x="87" y="679" on="1"/>
        <pt x="39" y="679" on="0"/>
        <pt x="39" y="716" on="1"/>
        <pt x="39" y="734" on="0"/>
        <pt x="65" y="755" on="0"/>
        <pt x="87" y="755" on="1"/>
        <pt x="219" y="750" on="1"/>
        <pt x="253" y="750" on="0"/>
        <pt x="343" y="756" on="0"/>
        <pt x="370" y="756" on="0"/>
        <pt x="399" y="733" on="0"/>
        <pt x="399" y="699" on="0"/>
        <pt x="371" y="678" on="0"/>
        <pt x="340" y="678" on="0"/>
        <pt x="260" y="683" on="1"/>
        <pt x="255" y="453" on="0"/>
        <pt x="255" y="291" on="0"/>
      </contour>
      <contour>
        <pt x="321" y="932" on="1"/>
        <pt x="321" y="889" on="0"/>
        <pt x="230" y="803" on="0"/>
        <pt x="176" y="803" on="0"/>
        <pt x="176" y="824" on="1"/>
        <pt x="176" y="836" on="0"/>
        <pt x="208" y="872" on="0"/>
        <pt x="223" y="891" on="0"/>
        <pt x="244" y="942" on="0"/>
        <pt x="267" y="970" on="0"/>
        <pt x="303" y="970" on="0"/>
        <pt x="321" y="947" on="0"/>
      </contour>
    </TTGlyph>
    <TTGlyph name="Icircumflex" xMin="37" yMin="-6" xMax="399" yMax="984">
      <contour>
        <pt x="260" y="66" on="1"/>
        <pt x="348" y="71" on="1"/>
        <pt x="371" y="71" on="0"/>
        <pt x="398" y="50" on="0"/>
        <pt x="398" y="16" on="0"/>
        <pt x="370" y="-6" on="0"/>
        <pt x="348" y="-6" on="1"/>
        <pt x="219" y="0" on="1"/>
        <pt x="87" y="-5" on="1"/>
        <pt x="37" y="-5" on="0"/>
        <pt x="37" y="71" on="0"/>
        <pt x="87" y="71" on="1"/>
        <pt x="98" y="71" on="0"/>
        <pt x="178" y="66" on="1"/>
        <pt x="183" y="291" on="0"/>
        <pt x="183" y="458" on="0"/>
        <pt x="178" y="683" on="1"/>
        <pt x="90" y="679" on="0"/>
        <pt x="87" y="679" on="1"/>
        <pt x="39" y="679" on="0"/>
        <pt x="39" y="716" on="1"/>
        <pt x="39" y="734" on="0"/>
        <pt x="65" y="755" on="0"/>
        <pt x="87" y="755" on="1"/>
        <pt x="219" y="750" on="1"/>
        <pt x="253" y="750" on="0"/>
        <pt x="343" y="756" on="0"/>
        <pt x="370" y="756" on="0"/>
        <pt x="399" y="733" on="0"/>
        <pt x="399" y="699" on="0"/>
        <pt x="371" y="678" on="0"/>
        <pt x="340" y="678" on="0"/>
        <pt x="260" y="683" on="1"/>
        <pt x="255" y="453" on="0"/>
        <pt x="255" y="291" on="0"/>
      </contour>
      <contour>
        <pt x="357" y="865" on="0"/>
        <pt x="365" y="850" on="0"/>
        <pt x="365" y="829" on="0"/>
        <pt x="347" y="812" on="0"/>
        <pt x="322" y="812" on="0"/>
        <pt x="300" y="830" on="0"/>
        <pt x="279" y="859" on="0"/>
        <pt x="275" y="862" on="1"/>
        <pt x="235" y="910" on="0"/>
        <pt x="204" y="910" on="0"/>
        <pt x="164" y="862" on="1"/>
        <pt x="160" y="859" on="0"/>
        <pt x="150" y="844" on="1"/>
        <pt x="126" y="812" on="0"/>
        <pt x="92" y="812" on="0"/>
        <pt x="74" y="829" on="0"/>
        <pt x="74" y="850" on="0"/>
        <pt x="83" y="865" on="0"/>
        <pt x="92" y="874" on="0"/>
        <pt x="119" y="897" on="0"/>
        <pt x="143" y="920" on="0"/>
        <pt x="178" y="966" on="0"/>
        <pt x="201" y="984" on="0"/>
        <pt x="237" y="984" on="0"/>
        <pt x="261" y="966" on="0"/>
        <pt x="297" y="920" on="0"/>
        <pt x="321" y="897" on="0"/>
        <pt x="347" y="874" on="0"/>
      </contour>
    </TTGlyph>
    <TTGlyph name="Idieresis" xMin="37" yMin="-6" xMax="399" yMax="955">
      <contour>
        <pt x="260" y="66" on="1"/>
        <pt x="348" y="71" on="1"/>
        <pt x="371" y="71" on="0"/>
        <pt x="398" y="50" on="0"/>
        <pt x="398" y="16" on="0"/>
        <pt x="370" y="-6" on="0"/>
        <pt x="348" y="-6" on="1"/>
        <pt x="219" y="0" on="1"/>
        <pt x="87" y="-5" on="1"/>
        <pt x="37" y="-5" on="0"/>
        <pt x="37" y="71" on="0"/>
        <pt x="87" y="71" on="1"/>
        <pt x="98" y="71" on="0"/>
        <pt x="178" y="66" on="1"/>
        <pt x="183" y="291" on="0"/>
        <pt x="183" y="458" on="0"/>
        <pt x="178" y="683" on="1"/>
        <pt x="90" y="679" on="0"/>
        <pt x="87" y="679" on="1"/>
        <pt x="39" y="679" on="0"/>
        <pt x="39" y="716" on="1"/>
        <pt x="39" y="734" on="0"/>
        <pt x="65" y="755" on="0"/>
        <pt x="87" y="755" on="1"/>
        <pt x="219" y="750" on="1"/>
        <pt x="253" y="750" on="0"/>
        <pt x="343" y="756" on="0"/>
        <pt x="370" y="756" on="0"/>
        <pt x="399" y="733" on="0"/>
        <pt x="399" y="699" on="0"/>
        <pt x="371" y="678" on="0"/>
        <pt x="340" y="678" on="0"/>
        <pt x="260" y="683" on="1"/>
        <pt x="255" y="453" on="0"/>
        <pt x="255" y="291" on="0"/>
      </contour>
      <contour>
        <pt x="164" y="955" on="0"/>
        <pt x="184" y="928" on="0"/>
        <pt x="184" y="887" on="0"/>
        <pt x="156" y="846" on="0"/>
        <pt x="114" y="846" on="0"/>
        <pt x="93" y="874" on="0"/>
        <pt x="93" y="920" on="0"/>
        <pt x="122" y="955" on="0"/>
      </contour>
      <contour>
        <pt x="324" y="955" on="0"/>
        <pt x="344" y="928" on="0"/>
        <pt x="344" y="887" on="0"/>
        <pt x="316" y="846" on="0"/>
        <pt x="274" y="846" on="0"/>
        <pt x="253" y="874" on="0"/>
        <pt x="253" y="920" on="0"/>
        <pt x="282" y="955" on="0"/>
      </contour>
    </TTGlyph>
    <TTGlyph name="Idotaccent" xMin="37" yMin="-6" xMax="399" yMax="955">
      <contour>
        <pt x="260" y="66" on="1"/>
        <pt x="348" y="71" on="1"/>
        <pt x="371" y="71" on="0"/>
        <pt x="398" y="50" on="0"/>
        <pt x="398" y="16" on="0"/>
        <pt x="370" y="-6" on="0"/>
        <pt x="348" y="-6" on="1"/>
        <pt x="219" y="0" on="1"/>
        <pt x="87" y="-5" on="1"/>
        <pt x="37" y="-5" on="0"/>
        <pt x="37" y="71" on="0"/>
        <pt x="87" y="71" on="1"/>
        <pt x="98" y="71" on="0"/>
        <pt x="178" y="66" on="1"/>
        <pt x="183" y="291" on="0"/>
        <pt x="183" y="458" on="0"/>
        <pt x="178" y="683" on="1"/>
        <pt x="90" y="679" on="0"/>
        <pt x="87" y="679" on="1"/>
        <pt x="39" y="679" on="0"/>
        <pt x="39" y="716" on="1"/>
        <pt x="39" y="734" on="0"/>
        <pt x="65" y="755" on="0"/>
        <pt x="87" y="755" on="1"/>
        <pt x="219" y="750" on="1"/>
        <pt x="253" y="750" on="0"/>
        <pt x="343" y="756" on="0"/>
        <pt x="370" y="756" on="0"/>
        <pt x="399" y="733" on="0"/>
        <pt x="399" y="699" on="0"/>
        <pt x="371" y="678" on="0"/>
        <pt x="340" y="678" on="0"/>
        <pt x="260" y="683" on="1"/>
        <pt x="255" y="453" on="0"/>
        <pt x="255" y="291" on="0"/>
      </contour>
      <contour>
        <pt x="249" y="955" on="0"/>
        <pt x="269" y="928" on="0"/>
        <pt x="269" y="887" on="0"/>
        <pt x="241" y="846" on="0"/>
        <pt x="199" y="846" on="0"/>
        <pt x="178" y="874" on="0"/>
        <pt x="178" y="920" on="0"/>
        <pt x="207" y="955" on="0"/>
      </contour>
    </TTGlyph>
    <TTGlyph name="Igrave" xMin="37" yMin="-6" xMax="399" yMax="970">
      <contour>
        <pt x="260" y="66" on="1"/>
        <pt x="348" y="71" on="1"/>
        <pt x="371" y="71" on="0"/>
        <pt x="398" y="50" on="0"/>
        <pt x="398" y="16" on="0"/>
        <pt x="370" y="-6" on="0"/>
        <pt x="348" y="-6" on="1"/>
        <pt x="219" y="0" on="1"/>
        <pt x="87" y="-5" on="1"/>
        <pt x="37" y="-5" on="0"/>
        <pt x="37" y="71" on="0"/>
        <pt x="87" y="71" on="1"/>
        <pt x="98" y="71" on="0"/>
        <pt x="178" y="66" on="1"/>
        <pt x="183" y="291" on="0"/>
        <pt x="183" y="458" on="0"/>
        <pt x="178" y="683" on="1"/>
        <pt x="90" y="679" on="0"/>
        <pt x="87" y="679" on="1"/>
        <pt x="39" y="679" on="0"/>
        <pt x="39" y="716" on="1"/>
        <pt x="39" y="734" on="0"/>
        <pt x="65" y="755" on="0"/>
        <pt x="87" y="755" on="1"/>
        <pt x="219" y="750" on="1"/>
        <pt x="253" y="750" on="0"/>
        <pt x="343" y="756" on="0"/>
        <pt x="370" y="756" on="0"/>
        <pt x="399" y="733" on="0"/>
        <pt x="399" y="699" on="0"/>
        <pt x="371" y="678" on="0"/>
        <pt x="340" y="678" on="0"/>
        <pt x="260" y="683" on="1"/>
        <pt x="255" y="453" on="0"/>
        <pt x="255" y="291" on="0"/>
      </contour>
      <contour>
        <pt x="261" y="824" on="1"/>
        <pt x="261" y="803" on="0"/>
        <pt x="207" y="803" on="0"/>
        <pt x="116" y="889" on="0"/>
        <pt x="116" y="932" on="1"/>
        <pt x="116" y="947" on="0"/>
        <pt x="134" y="970" on="0"/>
        <pt x="170" y="970" on="0"/>
        <pt x="193" y="942" on="0"/>
        <pt x="214" y="891" on="0"/>
        <pt x="229" y="872" on="0"/>
        <pt x="240" y="859" on="1"/>
        <pt x="261" y="836" on="0"/>
      </contour>
    </TTGlyph>
    <TTGlyph name="Itilde" xMin="37" yMin="-6" xMax="399" yMax="935">
      <contour>
        <pt x="260" y="66" on="1"/>
        <pt x="348" y="71" on="1"/>
        <pt x="371" y="71" on="0"/>
        <pt x="398" y="50" on="0"/>
        <pt x="398" y="16" on="0"/>
        <pt x="370" y="-6" on="0"/>
        <pt x="348" y="-6" on="1"/>
        <pt x="219" y="0" on="1"/>
        <pt x="87" y="-5" on="1"/>
        <pt x="37" y="-5" on="0"/>
        <pt x="37" y="71" on="0"/>
        <pt x="87" y="71" on="1"/>
        <pt x="98" y="71" on="0"/>
        <pt x="178" y="66" on="1"/>
        <pt x="183" y="291" on="0"/>
        <pt x="183" y="458" on="0"/>
        <pt x="178" y="683" on="1"/>
        <pt x="90" y="679" on="0"/>
        <pt x="87" y="679" on="1"/>
        <pt x="39" y="679" on="0"/>
        <pt x="39" y="716" on="1"/>
        <pt x="39" y="734" on="0"/>
        <pt x="65" y="755" on="0"/>
        <pt x="87" y="755" on="1"/>
        <pt x="219" y="750" on="1"/>
        <pt x="253" y="750" on="0"/>
        <pt x="343" y="756" on="0"/>
        <pt x="370" y="756" on="0"/>
        <pt x="399" y="733" on="0"/>
        <pt x="399" y="699" on="0"/>
        <pt x="371" y="678" on="0"/>
        <pt x="340" y="678" on="0"/>
        <pt x="260" y="683" on="1"/>
        <pt x="255" y="453" on="0"/>
        <pt x="255" y="291" on="0"/>
      </contour>
      <contour>
        <pt x="397" y="902" on="1"/>
        <pt x="397" y="868" on="0"/>
        <pt x="346" y="817" on="0"/>
        <pt x="277" y="817" on="0"/>
        <pt x="181" y="872" on="0"/>
        <pt x="140" y="872" on="0"/>
        <pt x="113" y="842" on="0"/>
        <pt x="89" y="811" on="0"/>
        <pt x="60" y="811" on="0"/>
        <pt x="40" y="833" on="0"/>
        <pt x="40" y="847" on="1"/>
        <pt x="40" y="882" on="0"/>
        <pt x="104" y="935" on="0"/>
        <pt x="187" y="935" on="0"/>
        <pt x="290" y="879" on="0"/>
        <pt x="333" y="879" on="0"/>
        <pt x="367" y="930" on="0"/>
        <pt x="385" y="930" on="0"/>
        <pt x="397" y="913" on="0"/>
      </contour>
    </TTGlyph>
    <TTGlyph name="J" xMin="31" yMin="-10" xMax="482" yMax="757">
      <contour>
        <pt x="411" y="374" on="1"/>
        <pt x="412" y="254" on="1"/>
        <pt x="412" y="118" on="0"/>
        <pt x="286" y="-10" on="0"/>
        <pt x="128" y="-10" on="0"/>
        <pt x="31" y="61" on="0"/>
        <pt x="31" y="91" on="1"/>
        <pt x="31" y="107" on="0"/>
        <pt x="50" y="126" on="0"/>
        <pt x="76" y="126" on="0"/>
        <pt x="102" y="104" on="0"/>
        <pt x="124" y="78" on="0"/>
        <pt x="170" y="56" on="0"/>
        <pt x="200" y="56" on="1"/>
        <pt x="257" y="56" on="0"/>
        <pt x="338" y="161" on="0"/>
        <pt x="338" y="276" on="1"/>
        <pt x="338" y="276" on="0"/>
        <pt x="339" y="374" on="1"/>
        <pt x="339" y="598" on="0"/>
        <pt x="337" y="684" on="1"/>
        <pt x="326" y="685" on="0"/>
        <pt x="305" y="685" on="1"/>
        <pt x="170" y="680" on="1"/>
        <pt x="122" y="680" on="0"/>
        <pt x="122" y="717" on="1"/>
        <pt x="122" y="734" on="0"/>
        <pt x="148" y="756" on="0"/>
        <pt x="170" y="756" on="1"/>
        <pt x="302" y="751" on="1"/>
        <pt x="336" y="751" on="0"/>
        <pt x="426" y="757" on="0"/>
        <pt x="453" y="757" on="0"/>
        <pt x="482" y="734" on="0"/>
        <pt x="482" y="700" on="0"/>
        <pt x="451" y="679" on="0"/>
        <pt x="428" y="679" on="1"/>
        <pt x="413" y="679" on="1"/>
        <pt x="411" y="587" on="0"/>
      </contour>
    </TTGlyph>
    <TTGlyph name="J.alt" xMin="8" yMin="-235" xMax="531" yMax="761">
      <contour>
        <pt x="459" y="75" on="1"/>
        <pt x="459" y="-80" on="0"/>
        <pt x="325" y="-235" on="0"/>
        <pt x="121" y="-235" on="0"/>
        <pt x="8" y="-107" on="0"/>
        <pt x="8" y="51" on="0"/>
        <pt x="104" y="157" on="0"/>
        <pt x="231" y="157" on="0"/>
        <pt x="305" y="80" on="0"/>
        <pt x="305" y="-9" on="0"/>
        <pt x="268" y="-60" on="0"/>
        <pt x="235" y="-60" on="0"/>
        <pt x="235" y="-46" on="1"/>
        <pt x="235" y="-42" on="0"/>
        <pt x="244" y="-3" on="0"/>
        <pt x="244" y="44" on="0"/>
        <pt x="202" y="91" on="0"/>
        <pt x="130" y="91" on="0"/>
        <pt x="80" y="23" on="0"/>
        <pt x="80" y="-82" on="0"/>
        <pt x="155" y="-167" on="0"/>
        <pt x="218" y="-167" on="1"/>
        <pt x="300" y="-167" on="0"/>
        <pt x="389" y="-37" on="0"/>
        <pt x="389" y="76" on="1"/>
        <pt x="389" y="394" on="0"/>
        <pt x="386" y="669" on="0"/>
        <pt x="386" y="672" on="1"/>
        <pt x="327" y="663" on="0"/>
        <pt x="287" y="663" on="1"/>
        <pt x="71" y="663" on="0"/>
        <pt x="71" y="726" on="1"/>
        <pt x="71" y="761" on="0"/>
        <pt x="109" y="761" on="1"/>
        <pt x="112" y="761" on="0"/>
        <pt x="234" y="736" on="0"/>
        <pt x="339" y="736" on="0"/>
        <pt x="484" y="761" on="0"/>
        <pt x="489" y="761" on="1"/>
        <pt x="531" y="761" on="0"/>
        <pt x="531" y="694" on="0"/>
        <pt x="462" y="682" on="1"/>
        <pt x="462" y="677" on="0"/>
        <pt x="459" y="385" on="0"/>
      </contour>
    </TTGlyph>
    <TTGlyph name="Jcircumflex" xMin="16" yMin="-10" xMax="467" yMax="984">
      <contour>
        <pt x="396" y="374" on="1"/>
        <pt x="397" y="254" on="1"/>
        <pt x="397" y="118" on="0"/>
        <pt x="271" y="-10" on="0"/>
        <pt x="113" y="-10" on="0"/>
        <pt x="16" y="61" on="0"/>
        <pt x="16" y="91" on="1"/>
        <pt x="16" y="107" on="0"/>
        <pt x="35" y="126" on="0"/>
        <pt x="61" y="126" on="0"/>
        <pt x="87" y="104" on="0"/>
        <pt x="109" y="78" on="0"/>
        <pt x="155" y="56" on="0"/>
        <pt x="185" y="56" on="1"/>
        <pt x="242" y="56" on="0"/>
        <pt x="323" y="161" on="0"/>
        <pt x="323" y="276" on="1"/>
        <pt x="323" y="276" on="0"/>
        <pt x="324" y="374" on="1"/>
        <pt x="324" y="598" on="0"/>
        <pt x="322" y="684" on="1"/>
        <pt x="311" y="685" on="0"/>
        <pt x="290" y="685" on="1"/>
        <pt x="155" y="680" on="1"/>
        <pt x="107" y="680" on="0"/>
        <pt x="107" y="717" on="1"/>
        <pt x="107" y="734" on="0"/>
        <pt x="133" y="756" on="0"/>
        <pt x="155" y="756" on="1"/>
        <pt x="287" y="751" on="1"/>
        <pt x="321" y="751" on="0"/>
        <pt x="411" y="757" on="0"/>
        <pt x="438" y="757" on="0"/>
        <pt x="467" y="734" on="0"/>
        <pt x="467" y="700" on="0"/>
        <pt x="436" y="679" on="0"/>
        <pt x="413" y="679" on="1"/>
        <pt x="398" y="679" on="1"/>
        <pt x="396" y="587" on="0"/>
      </contour>
      <contour>
        <pt x="427" y="865" on="0"/>
        <pt x="435" y="850" on="0"/>
        <pt x="435" y="829" on="0"/>
        <pt x="417" y="812" on="0"/>
        <pt x="392" y="812" on="0"/>
        <pt x="370" y="830" on="0"/>
        <pt x="349" y="859" on="0"/>
        <pt x="345" y="862" on="1"/>
        <pt x="305" y="910" on="0"/>
        <pt x="274" y="910" on="0"/>
        <pt x="234" y="862" on="1"/>
        <pt x="230" y="859" on="0"/>
        <pt x="220" y="844" on="1"/>
        <pt x="196" y="812" on="0"/>
        <pt x="162" y="812" on="0"/>
        <pt x="144" y="829" on="0"/>
        <pt x="144" y="850" on="0"/>
        <pt x="153" y="865" on="0"/>
        <pt x="162" y="874" on="0"/>
        <pt x="189" y="897" on="0"/>
        <pt x="213" y="920" on="0"/>
        <pt x="248" y="966" on="0"/>
        <pt x="271" y="984" on="0"/>
        <pt x="307" y="984" on="0"/>
        <pt x="331" y="966" on="0"/>
        <pt x="367" y="920" on="0"/>
        <pt x="391" y="897" on="0"/>
        <pt x="417" y="874" on="0"/>
      </contour>
    </TTGlyph>
    <TTGlyph name="K" xMin="98" yMin="-10" xMax="604" yMax="760">
      <contour>
        <pt x="175" y="345" on="1"/>
        <pt x="180" y="41" on="1"/>
        <pt x="180" y="19" on="0"/>
        <pt x="156" y="-10" on="0"/>
        <pt x="122" y="-10" on="0"/>
        <pt x="98" y="19" on="0"/>
        <pt x="98" y="41" on="1"/>
        <pt x="103" y="372" on="1"/>
        <pt x="98" y="708" on="1"/>
        <pt x="98" y="730" on="0"/>
        <pt x="122" y="759" on="0"/>
        <pt x="156" y="759" on="0"/>
        <pt x="180" y="730" on="0"/>
        <pt x="180" y="701" on="0"/>
        <pt x="179" y="663" on="1"/>
        <pt x="175" y="511" on="0"/>
        <pt x="175" y="424" on="1"/>
        <pt x="205" y="436" on="0"/>
        <pt x="261" y="436" on="1"/>
        <pt x="263" y="436" on="0"/>
        <pt x="308" y="433" on="1"/>
        <pt x="357" y="475" on="0"/>
        <pt x="438" y="639" on="0"/>
        <pt x="453" y="716" on="1"/>
        <pt x="463" y="760" on="0"/>
        <pt x="494" y="760" on="1"/>
        <pt x="508" y="760" on="0"/>
        <pt x="528" y="740" on="0"/>
        <pt x="528" y="723" on="1"/>
        <pt x="528" y="656" on="0"/>
        <pt x="420" y="439" on="0"/>
        <pt x="366" y="386" on="1"/>
        <pt x="393" y="324" on="0"/>
        <pt x="495" y="146" on="0"/>
        <pt x="521" y="110" on="1"/>
        <pt x="545" y="81" on="0"/>
        <pt x="588" y="62" on="0"/>
        <pt x="604" y="63" on="0"/>
        <pt x="604" y="57" on="1"/>
        <pt x="604" y="28" on="0"/>
        <pt x="573" y="-10" on="0"/>
        <pt x="550" y="-10" on="1"/>
        <pt x="512" y="-10" on="0"/>
        <pt x="414" y="127" on="0"/>
        <pt x="297" y="349" on="1"/>
        <pt x="248" y="340" on="0"/>
        <pt x="200" y="340" on="0"/>
      </contour>
    </TTGlyph>
    <TTGlyph name="K.alt" xMin="42" yMin="-81" xMax="705" yMax="760">
      <contour>
        <pt x="238" y="437" on="1"/>
        <pt x="239" y="349" on="1"/>
        <pt x="302" y="355" on="0"/>
        <pt x="334" y="377" on="1"/>
        <pt x="301" y="427" on="0"/>
      </contour>
      <contour>
        <pt x="170" y="355" on="1"/>
        <pt x="170" y="441" on="1"/>
        <pt x="143" y="437" on="0"/>
        <pt x="111" y="414" on="0"/>
        <pt x="111" y="399" on="1"/>
        <pt x="111" y="369" on="0"/>
      </contour>
      <contour>
        <pt x="168" y="515" on="1"/>
        <pt x="163" y="709" on="1"/>
        <pt x="163" y="732" on="0"/>
        <pt x="185" y="760" on="0"/>
        <pt x="223" y="760" on="0"/>
        <pt x="245" y="733" on="0"/>
        <pt x="245" y="677" on="0"/>
        <pt x="240" y="512" on="1"/>
        <pt x="338" y="496" on="0"/>
        <pt x="390" y="426" on="1"/>
        <pt x="437" y="479" on="0"/>
        <pt x="507" y="634" on="0"/>
        <pt x="519" y="716" on="1"/>
        <pt x="526" y="760" on="0"/>
        <pt x="560" y="760" on="1"/>
        <pt x="574" y="760" on="0"/>
        <pt x="594" y="740" on="0"/>
        <pt x="594" y="723" on="1"/>
        <pt x="594" y="650" on="0"/>
        <pt x="494" y="439" on="0"/>
        <pt x="430" y="368" on="1"/>
        <pt x="532" y="160" on="0"/>
        <pt x="591" y="65" on="1"/>
        <pt x="631" y="-1" on="0"/>
        <pt x="680" y="-4" on="1"/>
        <pt x="688" y="-4" on="1"/>
        <pt x="702" y="-4" on="0"/>
        <pt x="705" y="-11" on="0"/>
        <pt x="705" y="-14" on="1"/>
        <pt x="705" y="-43" on="0"/>
        <pt x="671" y="-81" on="0"/>
        <pt x="639" y="-81" on="1"/>
        <pt x="612" y="-81" on="0"/>
        <pt x="575" y="-45" on="0"/>
        <pt x="552" y="-18" on="0"/>
        <pt x="520" y="33" on="0"/>
        <pt x="496" y="73" on="0"/>
        <pt x="458" y="146" on="0"/>
        <pt x="432" y="197" on="0"/>
        <pt x="385" y="290" on="0"/>
        <pt x="369" y="321" on="1"/>
        <pt x="313" y="289" on="0"/>
        <pt x="240" y="280" on="1"/>
        <pt x="247" y="41" on="1"/>
        <pt x="247" y="18" on="0"/>
        <pt x="225" y="-10" on="0"/>
        <pt x="187" y="-10" on="0"/>
        <pt x="165" y="18" on="0"/>
        <pt x="165" y="41" on="1"/>
        <pt x="165" y="41" on="0"/>
        <pt x="168" y="283" on="1"/>
        <pt x="107" y="295" on="0"/>
        <pt x="42" y="361" on="0"/>
        <pt x="42" y="443" on="0"/>
        <pt x="109" y="508" on="0"/>
      </contour>
    </TTGlyph>
    <TTGlyph name="Kcommaaccent" xMin="98" yMin="-235" xMax="604" yMax="760">
      <contour>
        <pt x="210" y="-86" on="0"/>
        <pt x="231" y="-55" on="0"/>
        <pt x="268" y="-55" on="0"/>
        <pt x="288" y="-81" on="0"/>
        <pt x="288" y="-99" on="1"/>
        <pt x="288" y="-142" on="0"/>
        <pt x="211" y="-235" on="0"/>
        <pt x="186" y="-235" on="1"/>
        <pt x="176" y="-235" on="0"/>
        <pt x="163" y="-223" on="0"/>
        <pt x="163" y="-208" on="0"/>
        <pt x="170" y="-192" on="0"/>
        <pt x="187" y="-166" on="0"/>
        <pt x="197" y="-144" on="0"/>
      </contour>
      <contour>
        <pt x="175" y="345" on="1"/>
        <pt x="180" y="41" on="1"/>
        <pt x="180" y="19" on="0"/>
        <pt x="156" y="-10" on="0"/>
        <pt x="122" y="-10" on="0"/>
        <pt x="98" y="19" on="0"/>
        <pt x="98" y="41" on="1"/>
        <pt x="103" y="372" on="1"/>
        <pt x="98" y="708" on="1"/>
        <pt x="98" y="730" on="0"/>
        <pt x="122" y="759" on="0"/>
        <pt x="156" y="759" on="0"/>
        <pt x="180" y="730" on="0"/>
        <pt x="180" y="701" on="0"/>
        <pt x="179" y="663" on="1"/>
        <pt x="175" y="511" on="0"/>
        <pt x="175" y="424" on="1"/>
        <pt x="205" y="436" on="0"/>
        <pt x="261" y="436" on="1"/>
        <pt x="263" y="436" on="0"/>
        <pt x="308" y="433" on="1"/>
        <pt x="357" y="475" on="0"/>
        <pt x="438" y="639" on="0"/>
        <pt x="453" y="716" on="1"/>
        <pt x="463" y="760" on="0"/>
        <pt x="494" y="760" on="1"/>
        <pt x="508" y="760" on="0"/>
        <pt x="528" y="740" on="0"/>
        <pt x="528" y="723" on="1"/>
        <pt x="528" y="660" on="0"/>
        <pt x="419" y="438" on="0"/>
        <pt x="366" y="386" on="1"/>
        <pt x="393" y="324" on="0"/>
        <pt x="495" y="146" on="0"/>
        <pt x="521" y="110" on="1"/>
        <pt x="545" y="81" on="0"/>
        <pt x="588" y="62" on="0"/>
        <pt x="604" y="63" on="0"/>
        <pt x="604" y="57" on="1"/>
        <pt x="604" y="28" on="0"/>
        <pt x="573" y="-10" on="0"/>
        <pt x="550" y="-10" on="1"/>
        <pt x="512" y="-10" on="0"/>
        <pt x="414" y="127" on="0"/>
        <pt x="297" y="349" on="1"/>
        <pt x="248" y="340" on="0"/>
        <pt x="200" y="340" on="0"/>
      </contour>
    </TTGlyph>
    <TTGlyph name="L" xMin="98" yMin="-5" xMax="512" yMax="760">
      <contour>
        <pt x="180" y="709" on="1"/>
        <pt x="175" y="372" on="1"/>
        <pt x="175" y="271" on="0"/>
        <pt x="179" y="71" on="1"/>
        <pt x="220" y="66" on="0"/>
        <pt x="349" y="66" on="0"/>
        <pt x="456" y="73" on="0"/>
        <pt x="485" y="73" on="0"/>
        <pt x="512" y="52" on="0"/>
        <pt x="512" y="16" on="0"/>
        <pt x="485" y="-5" on="0"/>
        <pt x="462" y="-5" on="1"/>
        <pt x="311" y="0" on="1"/>
        <pt x="149" y="-5" on="1"/>
        <pt x="126" y="-5" on="0"/>
        <pt x="98" y="21" on="0"/>
        <pt x="98" y="46" on="1"/>
        <pt x="103" y="372" on="1"/>
        <pt x="98" y="709" on="1"/>
        <pt x="98" y="732" on="0"/>
        <pt x="120" y="760" on="0"/>
        <pt x="158" y="760" on="0"/>
        <pt x="180" y="732" on="0"/>
      </contour>
    </TTGlyph>
    <TTGlyph name="L.alt" xMin="35" yMin="-15" xMax="587" yMax="762">
      <contour>
        <pt x="587" y="80" on="0"/>
        <pt x="452" y="-15" on="0"/>
        <pt x="280" y="-15" on="0"/>
        <pt x="160" y="13" on="1"/>
        <pt x="112" y="-9" on="0"/>
        <pt x="67" y="-9" on="0"/>
        <pt x="35" y="24" on="0"/>
        <pt x="35" y="73" on="0"/>
        <pt x="65" y="105" on="0"/>
        <pt x="99" y="105" on="0"/>
        <pt x="127" y="98" on="1"/>
        <pt x="147" y="163" on="0"/>
        <pt x="147" y="382" on="1"/>
        <pt x="147" y="492" on="0"/>
        <pt x="121" y="718" on="0"/>
        <pt x="121" y="719" on="1"/>
        <pt x="121" y="738" on="0"/>
        <pt x="143" y="762" on="0"/>
        <pt x="160" y="762" on="1"/>
        <pt x="197" y="762" on="0"/>
        <pt x="204" y="711" on="1"/>
        <pt x="219" y="602" on="0"/>
        <pt x="219" y="167" on="0"/>
        <pt x="198" y="77" on="1"/>
        <pt x="268" y="55" on="0"/>
        <pt x="366" y="55" on="1"/>
        <pt x="426" y="55" on="0"/>
        <pt x="513" y="112" on="0"/>
        <pt x="513" y="159" on="1"/>
        <pt x="513" y="182" on="0"/>
        <pt x="484" y="215" on="0"/>
        <pt x="442" y="215" on="0"/>
        <pt x="419" y="191" on="0"/>
        <pt x="416" y="176" on="1"/>
        <pt x="406" y="137" on="0"/>
        <pt x="387" y="137" on="1"/>
        <pt x="374" y="137" on="0"/>
        <pt x="357" y="169" on="0"/>
        <pt x="357" y="188" on="1"/>
        <pt x="357" y="224" on="0"/>
        <pt x="417" y="281" on="0"/>
        <pt x="511" y="281" on="0"/>
        <pt x="587" y="215" on="0"/>
        <pt x="587" y="159" on="1"/>
      </contour>
    </TTGlyph>
    <TTGlyph name="Ldot" xMin="98" yMin="-5" xMax="512" yMax="760">
      <contour>
        <pt x="180" y="709" on="1"/>
        <pt x="175" y="372" on="1"/>
        <pt x="175" y="271" on="0"/>
        <pt x="179" y="71" on="1"/>
        <pt x="220" y="66" on="0"/>
        <pt x="349" y="66" on="0"/>
        <pt x="456" y="73" on="0"/>
        <pt x="485" y="73" on="0"/>
        <pt x="512" y="52" on="0"/>
        <pt x="512" y="16" on="0"/>
        <pt x="485" y="-5" on="0"/>
        <pt x="462" y="-5" on="1"/>
        <pt x="311" y="0" on="1"/>
        <pt x="149" y="-5" on="1"/>
        <pt x="126" y="-5" on="0"/>
        <pt x="98" y="21" on="0"/>
        <pt x="98" y="46" on="1"/>
        <pt x="103" y="372" on="1"/>
        <pt x="98" y="709" on="1"/>
        <pt x="98" y="732" on="0"/>
        <pt x="120" y="760" on="0"/>
        <pt x="158" y="760" on="0"/>
        <pt x="180" y="732" on="0"/>
      </contour>
      <contour>
        <pt x="366" y="440" on="0"/>
        <pt x="388" y="409" on="0"/>
        <pt x="388" y="362" on="0"/>
        <pt x="359" y="323" on="0"/>
        <pt x="317" y="323" on="0"/>
        <pt x="294" y="355" on="0"/>
        <pt x="294" y="402" on="0"/>
        <pt x="323" y="440" on="0"/>
      </contour>
    </TTGlyph>
    <TTGlyph name="Lslash" xMin="9" yMin="-5" xMax="520" yMax="760">
      <contour>
        <pt x="111" y="449" on="1"/>
        <pt x="106" y="709" on="1"/>
        <pt x="106" y="732" on="0"/>
        <pt x="128" y="760" on="0"/>
        <pt x="166" y="760" on="0"/>
        <pt x="188" y="732" on="0"/>
        <pt x="188" y="701" on="0"/>
        <pt x="187" y="674" on="1"/>
        <pt x="184" y="591" on="0"/>
        <pt x="184" y="510" on="1"/>
        <pt x="251" y="571" on="1"/>
        <pt x="266" y="583" on="0"/>
        <pt x="293" y="583" on="0"/>
        <pt x="311" y="565" on="0"/>
        <pt x="311" y="535" on="0"/>
        <pt x="294" y="520" on="1"/>
        <pt x="293" y="520" on="0"/>
        <pt x="211" y="455" on="0"/>
        <pt x="183" y="431" on="1"/>
        <pt x="183" y="372" on="1"/>
        <pt x="183" y="271" on="0"/>
        <pt x="187" y="71" on="1"/>
        <pt x="228" y="66" on="0"/>
        <pt x="357" y="66" on="0"/>
        <pt x="464" y="73" on="0"/>
        <pt x="493" y="73" on="0"/>
        <pt x="520" y="52" on="0"/>
        <pt x="520" y="16" on="0"/>
        <pt x="493" y="-5" on="0"/>
        <pt x="470" y="-5" on="1"/>
        <pt x="319" y="0" on="1"/>
        <pt x="157" y="-5" on="1"/>
        <pt x="134" y="-5" on="0"/>
        <pt x="106" y="21" on="0"/>
        <pt x="106" y="54" on="0"/>
        <pt x="107" y="99" on="1"/>
        <pt x="111" y="279" on="0"/>
        <pt x="111" y="369" on="1"/>
        <pt x="69" y="331" on="1"/>
        <pt x="54" y="319" on="0"/>
        <pt x="27" y="319" on="0"/>
        <pt x="9" y="337" on="0"/>
        <pt x="9" y="367" on="0"/>
        <pt x="26" y="382" on="1"/>
        <pt x="31" y="387" on="0"/>
        <pt x="90" y="432" on="0"/>
      </contour>
    </TTGlyph>
    <TTGlyph name="M" xMin="98" yMin="-10" xMax="715" yMax="755">
      <contour>
        <pt x="103" y="372" on="1"/>
        <pt x="98" y="704" on="1"/>
        <pt x="98" y="730" on="0"/>
        <pt x="121" y="755" on="0"/>
        <pt x="165" y="755" on="0"/>
        <pt x="180" y="720" on="1"/>
        <pt x="261" y="537" on="0"/>
        <pt x="304" y="446" on="0"/>
        <pt x="392" y="257" on="0"/>
        <pt x="407" y="227" on="1"/>
        <pt x="505" y="416" on="0"/>
        <pt x="587" y="617" on="1"/>
        <pt x="619" y="695" on="0"/>
        <pt x="647" y="755" on="0"/>
        <pt x="674" y="755" on="1"/>
        <pt x="715" y="755" on="0"/>
        <pt x="715" y="704" on="1"/>
        <pt x="715" y="696" on="0"/>
        <pt x="712" y="603" on="0"/>
        <pt x="710" y="451" on="0"/>
        <pt x="710" y="293" on="0"/>
        <pt x="712" y="142" on="0"/>
        <pt x="715" y="49" on="0"/>
        <pt x="715" y="19" on="0"/>
        <pt x="691" y="-10" on="0"/>
        <pt x="657" y="-10" on="0"/>
        <pt x="633" y="19" on="0"/>
        <pt x="633" y="49" on="0"/>
        <pt x="634" y="96" on="1"/>
        <pt x="640" y="266" on="0"/>
        <pt x="640" y="372" on="1"/>
        <pt x="640" y="566" on="1"/>
        <pt x="447" y="142" on="1"/>
        <pt x="433" y="111" on="0"/>
        <pt x="384" y="111" on="0"/>
        <pt x="370" y="145" on="1"/>
        <pt x="249" y="415" on="0"/>
        <pt x="175" y="570" on="1"/>
        <pt x="175" y="372" on="1"/>
        <pt x="180" y="41" on="1"/>
        <pt x="180" y="19" on="0"/>
        <pt x="156" y="-10" on="0"/>
        <pt x="122" y="-10" on="0"/>
        <pt x="98" y="19" on="0"/>
        <pt x="98" y="41" on="1"/>
      </contour>
    </TTGlyph>
    <TTGlyph name="M.alt" xMin="31" yMin="-10" xMax="943" yMax="758">
      <contour>
        <pt x="868" y="707" on="1"/>
        <pt x="863" y="375" on="1"/>
        <pt x="863" y="124" on="0"/>
        <pt x="901" y="76" on="1"/>
        <pt x="906" y="70" on="0"/>
        <pt x="927" y="69" on="0"/>
        <pt x="943" y="67" on="0"/>
        <pt x="943" y="61" on="1"/>
        <pt x="943" y="30" on="0"/>
        <pt x="907" y="-7" on="0"/>
        <pt x="883" y="-7" on="1"/>
        <pt x="793" y="-7" on="0"/>
        <pt x="793" y="233" on="1"/>
        <pt x="793" y="569" on="1"/>
        <pt x="600" y="145" on="1"/>
        <pt x="586" y="114" on="0"/>
        <pt x="541" y="114" on="0"/>
        <pt x="523" y="148" on="1"/>
        <pt x="519" y="156" on="0"/>
        <pt x="498" y="206" on="1"/>
        <pt x="429" y="368" on="0"/>
        <pt x="328" y="573" on="1"/>
        <pt x="328" y="340" on="1"/>
        <pt x="328" y="180" on="0"/>
        <pt x="302" y="108" on="1"/>
        <pt x="273" y="28" on="0"/>
        <pt x="225" y="4" on="1"/>
        <pt x="196" y="-10" on="0"/>
        <pt x="159" y="-10" on="1"/>
        <pt x="101" y="-10" on="0"/>
        <pt x="31" y="74" on="0"/>
        <pt x="31" y="185" on="0"/>
        <pt x="105" y="272" on="0"/>
        <pt x="158" y="272" on="1"/>
        <pt x="179" y="272" on="0"/>
        <pt x="209" y="252" on="0"/>
        <pt x="209" y="231" on="1"/>
        <pt x="209" y="194" on="0"/>
        <pt x="161" y="194" on="1"/>
        <pt x="139" y="194" on="0"/>
        <pt x="107" y="158" on="0"/>
        <pt x="107" y="103" on="0"/>
        <pt x="136" y="67" on="0"/>
        <pt x="164" y="67" on="1"/>
        <pt x="219" y="67" on="0"/>
        <pt x="256" y="226" on="0"/>
        <pt x="256" y="395" on="1"/>
        <pt x="256" y="554" on="0"/>
        <pt x="251" y="699" on="0"/>
        <pt x="251" y="733" on="0"/>
        <pt x="274" y="758" on="0"/>
        <pt x="318" y="758" on="0"/>
        <pt x="333" y="723" on="1"/>
        <pt x="476" y="398" on="0"/>
        <pt x="560" y="230" on="1"/>
        <pt x="658" y="419" on="0"/>
        <pt x="740" y="620" on="1"/>
        <pt x="772" y="698" on="0"/>
        <pt x="800" y="758" on="0"/>
        <pt x="827" y="758" on="1"/>
        <pt x="868" y="758" on="0"/>
      </contour>
    </TTGlyph>
    <TTGlyph name="N" xMin="98" yMin="-10" xMax="595" yMax="760">
      <contour>
        <pt x="103" y="372" on="1"/>
        <pt x="98" y="708" on="1"/>
        <pt x="98" y="730" on="0"/>
        <pt x="122" y="760" on="0"/>
        <pt x="140" y="760" on="1"/>
        <pt x="172" y="760" on="0"/>
        <pt x="188" y="733" on="1"/>
        <pt x="197" y="719" on="0"/>
        <pt x="474" y="222" on="0"/>
        <pt x="518" y="151" on="1"/>
        <pt x="518" y="372" on="1"/>
        <pt x="518" y="541" on="0"/>
        <pt x="513" y="701" on="0"/>
        <pt x="513" y="731" on="0"/>
        <pt x="537" y="760" on="0"/>
        <pt x="571" y="760" on="0"/>
        <pt x="595" y="731" on="0"/>
        <pt x="595" y="701" on="0"/>
        <pt x="594" y="653" on="1"/>
        <pt x="590" y="541" on="0"/>
        <pt x="590" y="372" on="1"/>
        <pt x="592" y="41" on="1"/>
        <pt x="592" y="18" on="0"/>
        <pt x="567" y="-10" on="0"/>
        <pt x="523" y="-10" on="0"/>
        <pt x="507" y="17" on="1"/>
        <pt x="502" y="25" on="0"/>
        <pt x="470" y="82" on="1"/>
        <pt x="373" y="260" on="0"/>
        <pt x="278" y="421" on="0"/>
        <pt x="192" y="578" on="0"/>
        <pt x="175" y="605" on="1"/>
        <pt x="175" y="372" on="1"/>
        <pt x="180" y="41" on="1"/>
        <pt x="180" y="19" on="0"/>
        <pt x="156" y="-10" on="0"/>
        <pt x="122" y="-10" on="0"/>
        <pt x="98" y="19" on="0"/>
        <pt x="98" y="41" on="1"/>
      </contour>
    </TTGlyph>
    <TTGlyph name="N.alt" xMin="31" yMin="-11" xMax="854" yMax="761">
      <contour>
        <pt x="159" y="-8" on="1"/>
        <pt x="101" y="-8" on="0"/>
        <pt x="31" y="76" on="0"/>
        <pt x="31" y="187" on="0"/>
        <pt x="105" y="274" on="0"/>
        <pt x="158" y="274" on="1"/>
        <pt x="179" y="274" on="0"/>
        <pt x="209" y="254" on="0"/>
        <pt x="209" y="233" on="1"/>
        <pt x="209" y="196" on="0"/>
        <pt x="161" y="196" on="1"/>
        <pt x="139" y="196" on="0"/>
        <pt x="107" y="160" on="0"/>
        <pt x="107" y="105" on="0"/>
        <pt x="136" y="69" on="0"/>
        <pt x="164" y="69" on="1"/>
        <pt x="257" y="69" on="0"/>
        <pt x="257" y="357" on="1"/>
        <pt x="257" y="432" on="0"/>
        <pt x="225" y="696" on="0"/>
        <pt x="225" y="735" on="0"/>
        <pt x="253" y="761" on="0"/>
        <pt x="272" y="761" on="1"/>
        <pt x="300" y="761" on="0"/>
        <pt x="317" y="726" on="1"/>
        <pt x="357" y="646" on="0"/>
        <pt x="588" y="241" on="0"/>
        <pt x="644" y="153" on="1"/>
        <pt x="640" y="153" on="0"/>
        <pt x="629" y="417" on="0"/>
        <pt x="629" y="536" on="0"/>
        <pt x="638" y="620" on="0"/>
        <pt x="664" y="711" on="0"/>
        <pt x="723" y="761" on="0"/>
        <pt x="802" y="761" on="0"/>
        <pt x="854" y="719" on="0"/>
        <pt x="854" y="698" on="1"/>
        <pt x="854" y="666" on="0"/>
        <pt x="831" y="666" on="1"/>
        <pt x="825" y="666" on="0"/>
        <pt x="780" y="684" on="0"/>
        <pt x="763" y="684" on="1"/>
        <pt x="700" y="684" on="0"/>
        <pt x="700" y="395" on="1"/>
        <pt x="700" y="320" on="0"/>
        <pt x="722" y="54" on="0"/>
        <pt x="722" y="15" on="0"/>
        <pt x="695" y="-11" on="0"/>
        <pt x="677" y="-11" on="1"/>
        <pt x="649" y="-11" on="0"/>
        <pt x="630" y="24" on="1"/>
        <pt x="623" y="36" on="0"/>
        <pt x="567" y="135" on="0"/>
        <pt x="466" y="312" on="0"/>
        <pt x="414" y="405" on="0"/>
        <pt x="389" y="450" on="1"/>
        <pt x="330" y="558" on="0"/>
        <pt x="313" y="584" on="1"/>
        <pt x="327" y="457" on="0"/>
        <pt x="327" y="333" on="1"/>
        <pt x="327" y="-8" on="0"/>
      </contour>
    </TTGlyph>
    <TTGlyph name="Nacute" xMin="98" yMin="-10" xMax="595" yMax="970">
      <contour>
        <pt x="103" y="372" on="1"/>
        <pt x="98" y="708" on="1"/>
        <pt x="98" y="730" on="0"/>
        <pt x="122" y="760" on="0"/>
        <pt x="140" y="760" on="1"/>
        <pt x="172" y="760" on="0"/>
        <pt x="188" y="733" on="1"/>
        <pt x="197" y="719" on="0"/>
        <pt x="474" y="222" on="0"/>
        <pt x="518" y="151" on="1"/>
        <pt x="518" y="372" on="1"/>
        <pt x="518" y="541" on="0"/>
        <pt x="513" y="701" on="0"/>
        <pt x="513" y="731" on="0"/>
        <pt x="537" y="760" on="0"/>
        <pt x="571" y="760" on="0"/>
        <pt x="595" y="731" on="0"/>
        <pt x="595" y="701" on="0"/>
        <pt x="594" y="653" on="1"/>
        <pt x="590" y="541" on="0"/>
        <pt x="590" y="372" on="1"/>
        <pt x="592" y="41" on="1"/>
        <pt x="592" y="18" on="0"/>
        <pt x="567" y="-10" on="0"/>
        <pt x="523" y="-10" on="0"/>
        <pt x="507" y="17" on="1"/>
        <pt x="502" y="25" on="0"/>
        <pt x="470" y="82" on="1"/>
        <pt x="373" y="260" on="0"/>
        <pt x="278" y="421" on="0"/>
        <pt x="192" y="578" on="0"/>
        <pt x="175" y="605" on="1"/>
        <pt x="175" y="372" on="1"/>
        <pt x="180" y="41" on="1"/>
        <pt x="180" y="19" on="0"/>
        <pt x="156" y="-10" on="0"/>
        <pt x="122" y="-10" on="0"/>
        <pt x="98" y="19" on="0"/>
        <pt x="98" y="41" on="1"/>
      </contour>
      <contour>
        <pt x="459" y="932" on="1"/>
        <pt x="459" y="889" on="0"/>
        <pt x="368" y="803" on="0"/>
        <pt x="314" y="803" on="0"/>
        <pt x="314" y="824" on="1"/>
        <pt x="314" y="836" on="0"/>
        <pt x="346" y="872" on="0"/>
        <pt x="361" y="891" on="0"/>
        <pt x="382" y="942" on="0"/>
        <pt x="405" y="970" on="0"/>
        <pt x="441" y="970" on="0"/>
        <pt x="459" y="947" on="0"/>
      </contour>
    </TTGlyph>
    <TTGlyph name="Ntilde" xMin="97" yMin="-10" xMax="594" yMax="937">
      <contour>
        <pt x="594" y="709" on="1"/>
        <pt x="589" y="372" on="1"/>
        <pt x="591" y="41" on="1"/>
        <pt x="591" y="18" on="0"/>
        <pt x="566" y="-10" on="0"/>
        <pt x="522" y="-10" on="0"/>
        <pt x="506" y="17" on="1"/>
        <pt x="501" y="25" on="0"/>
        <pt x="470" y="82" on="1"/>
        <pt x="372" y="260" on="0"/>
        <pt x="277" y="421" on="0"/>
        <pt x="191" y="578" on="0"/>
        <pt x="174" y="605" on="1"/>
        <pt x="174" y="372" on="1"/>
        <pt x="174" y="204" on="0"/>
        <pt x="179" y="49" on="0"/>
        <pt x="179" y="19" on="0"/>
        <pt x="155" y="-10" on="0"/>
        <pt x="121" y="-10" on="0"/>
        <pt x="97" y="19" on="0"/>
        <pt x="97" y="49" on="0"/>
        <pt x="100" y="142" on="0"/>
        <pt x="102" y="293" on="0"/>
        <pt x="102" y="451" on="0"/>
        <pt x="100" y="605" on="0"/>
        <pt x="97" y="700" on="0"/>
        <pt x="97" y="730" on="0"/>
        <pt x="121" y="760" on="0"/>
        <pt x="139" y="760" on="1"/>
        <pt x="171" y="760" on="0"/>
        <pt x="187" y="733" on="1"/>
        <pt x="196" y="719" on="0"/>
        <pt x="473" y="222" on="0"/>
        <pt x="517" y="151" on="1"/>
        <pt x="517" y="372" on="1"/>
        <pt x="512" y="709" on="1"/>
        <pt x="512" y="731" on="0"/>
        <pt x="536" y="760" on="0"/>
        <pt x="570" y="760" on="0"/>
        <pt x="594" y="731" on="0"/>
      </contour>
      <contour>
        <pt x="527" y="904" on="1"/>
        <pt x="527" y="870" on="0"/>
        <pt x="476" y="819" on="0"/>
        <pt x="407" y="819" on="0"/>
        <pt x="311" y="874" on="0"/>
        <pt x="270" y="874" on="0"/>
        <pt x="243" y="844" on="0"/>
        <pt x="219" y="813" on="0"/>
        <pt x="190" y="813" on="0"/>
        <pt x="170" y="835" on="0"/>
        <pt x="170" y="849" on="1"/>
        <pt x="170" y="884" on="0"/>
        <pt x="234" y="937" on="0"/>
        <pt x="317" y="937" on="0"/>
        <pt x="420" y="881" on="0"/>
        <pt x="463" y="881" on="0"/>
        <pt x="497" y="932" on="0"/>
        <pt x="515" y="932" on="0"/>
        <pt x="527" y="915" on="0"/>
      </contour>
    </TTGlyph>
    <TTGlyph name="O" xMin="57" yMin="-15" xMax="717" yMax="765">
      <contour>
        <pt x="493" y="58" on="0"/>
        <pt x="636" y="250" on="0"/>
        <pt x="636" y="505" on="0"/>
        <pt x="494" y="692" on="0"/>
        <pt x="280" y="692" on="0"/>
        <pt x="138" y="505" on="0"/>
        <pt x="138" y="250" on="0"/>
        <pt x="281" y="58" on="0"/>
      </contour>
      <contour>
        <pt x="717" y="539" on="0"/>
        <pt x="717" y="213" on="0"/>
        <pt x="527" y="-15" on="0"/>
        <pt x="246" y="-15" on="0"/>
        <pt x="57" y="213" on="0"/>
        <pt x="57" y="538" on="0"/>
        <pt x="247" y="765" on="0"/>
        <pt x="529" y="765" on="0"/>
      </contour>
    </TTGlyph>
    <TTGlyph name="O.alt" xMin="55" yMin="-15" xMax="753" yMax="765">
      <contour>
        <pt x="462" y="695" on="1"/>
        <pt x="394" y="695" on="0"/>
        <pt x="289" y="594" on="0"/>
        <pt x="240" y="451" on="0"/>
        <pt x="240" y="324" on="0"/>
        <pt x="251" y="260" on="0"/>
        <pt x="251" y="250" on="1"/>
        <pt x="251" y="225" on="0"/>
        <pt x="228" y="225" on="1"/>
        <pt x="208" y="225" on="0"/>
        <pt x="174" y="326" on="0"/>
        <pt x="174" y="384" on="1"/>
        <pt x="174" y="536" on="0"/>
        <pt x="333" y="765" on="0"/>
        <pt x="589" y="765" on="0"/>
        <pt x="753" y="544" on="0"/>
        <pt x="753" y="215" on="0"/>
        <pt x="564" y="-15" on="0"/>
        <pt x="262" y="-15" on="0"/>
        <pt x="55" y="203" on="0"/>
        <pt x="55" y="374" on="1"/>
        <pt x="55" y="440" on="0"/>
        <pt x="83" y="531" on="0"/>
        <pt x="113" y="531" on="1"/>
        <pt x="127" y="531" on="0"/>
        <pt x="145" y="512" on="0"/>
        <pt x="145" y="483" on="0"/>
        <pt x="132" y="417" on="0"/>
        <pt x="132" y="374" on="1"/>
        <pt x="132" y="227" on="0"/>
        <pt x="298" y="55" on="0"/>
        <pt x="410" y="55" on="1"/>
        <pt x="492" y="55" on="0"/>
        <pt x="616" y="146" on="0"/>
        <pt x="676" y="289" on="0"/>
        <pt x="676" y="374" on="1"/>
        <pt x="676" y="506" on="0"/>
        <pt x="560" y="695" on="0"/>
      </contour>
    </TTGlyph>
    <TTGlyph name="OE" xMin="57" yMin="-15" xMax="902" yMax="765">
      <contour>
        <pt x="663" y="433" on="1"/>
        <pt x="783" y="438" on="0"/>
        <pt x="820" y="438" on="0"/>
        <pt x="847" y="417" on="0"/>
        <pt x="847" y="399" on="1"/>
        <pt x="847" y="362" on="0"/>
        <pt x="797" y="362" on="1"/>
        <pt x="795" y="362" on="0"/>
        <pt x="667" y="366" on="1"/>
        <pt x="666" y="277" on="0"/>
        <pt x="606" y="122" on="0"/>
        <pt x="555" y="69" on="1"/>
        <pt x="607" y="66" on="0"/>
        <pt x="690" y="66" on="1"/>
        <pt x="852" y="71" on="1"/>
        <pt x="902" y="71" on="0"/>
        <pt x="902" y="-5" on="0"/>
        <pt x="852" y="-5" on="1"/>
        <pt x="690" y="0" on="1"/>
        <pt x="515" y="-5" on="1"/>
        <pt x="485" y="-5" on="0"/>
        <pt x="475" y="11" on="1"/>
        <pt x="425" y="-15" on="0"/>
        <pt x="366" y="-15" on="1"/>
        <pt x="234" y="-15" on="0"/>
        <pt x="57" y="213" on="0"/>
        <pt x="57" y="538" on="0"/>
        <pt x="236" y="765" on="0"/>
        <pt x="368" y="765" on="1"/>
        <pt x="421" y="765" on="0"/>
        <pt x="466" y="744" on="1"/>
        <pt x="479" y="755" on="0"/>
        <pt x="509" y="755" on="1"/>
        <pt x="702" y="750" on="1"/>
        <pt x="852" y="755" on="1"/>
        <pt x="902" y="755" on="0"/>
        <pt x="902" y="679" on="0"/>
        <pt x="852" y="679" on="1"/>
        <pt x="702" y="684" on="1"/>
        <pt x="589" y="684" on="0"/>
        <pt x="556" y="680" on="1"/>
        <pt x="646" y="587" on="0"/>
      </contour>
      <contour>
        <pt x="460" y="58" on="0"/>
        <pt x="586" y="250" on="0"/>
        <pt x="586" y="505" on="0"/>
        <pt x="461" y="692" on="0"/>
        <pt x="269" y="692" on="0"/>
        <pt x="138" y="505" on="0"/>
        <pt x="138" y="250" on="0"/>
        <pt x="269" y="58" on="0"/>
      </contour>
    </TTGlyph>
    <TTGlyph name="Oacute" xMin="57" yMin="-15" xMax="717" yMax="970">
      <contour>
        <pt x="493" y="58" on="0"/>
        <pt x="636" y="250" on="0"/>
        <pt x="636" y="505" on="0"/>
        <pt x="494" y="692" on="0"/>
        <pt x="280" y="692" on="0"/>
        <pt x="138" y="505" on="0"/>
        <pt x="138" y="250" on="0"/>
        <pt x="281" y="58" on="0"/>
      </contour>
      <contour>
        <pt x="717" y="539" on="0"/>
        <pt x="717" y="213" on="0"/>
        <pt x="527" y="-15" on="0"/>
        <pt x="246" y="-15" on="0"/>
        <pt x="57" y="213" on="0"/>
        <pt x="57" y="538" on="0"/>
        <pt x="247" y="765" on="0"/>
        <pt x="529" y="765" on="0"/>
      </contour>
      <contour>
        <pt x="489" y="932" on="1"/>
        <pt x="489" y="889" on="0"/>
        <pt x="398" y="803" on="0"/>
        <pt x="344" y="803" on="0"/>
        <pt x="344" y="824" on="1"/>
        <pt x="344" y="836" on="0"/>
        <pt x="376" y="872" on="0"/>
        <pt x="391" y="891" on="0"/>
        <pt x="412" y="942" on="0"/>
        <pt x="435" y="970" on="0"/>
        <pt x="471" y="970" on="0"/>
        <pt x="489" y="947" on="0"/>
      </contour>
    </TTGlyph>
    <TTGlyph name="Ocircumflex" xMin="57" yMin="-15" xMax="717" yMax="984">
      <contour>
        <pt x="493" y="58" on="0"/>
        <pt x="636" y="250" on="0"/>
        <pt x="636" y="505" on="0"/>
        <pt x="494" y="692" on="0"/>
        <pt x="280" y="692" on="0"/>
        <pt x="138" y="505" on="0"/>
        <pt x="138" y="250" on="0"/>
        <pt x="281" y="58" on="0"/>
      </contour>
      <contour>
        <pt x="717" y="539" on="0"/>
        <pt x="717" y="213" on="0"/>
        <pt x="527" y="-15" on="0"/>
        <pt x="246" y="-15" on="0"/>
        <pt x="57" y="213" on="0"/>
        <pt x="57" y="538" on="0"/>
        <pt x="247" y="765" on="0"/>
        <pt x="529" y="765" on="0"/>
      </contour>
      <contour>
        <pt x="524" y="865" on="0"/>
        <pt x="532" y="850" on="0"/>
        <pt x="532" y="829" on="0"/>
        <pt x="514" y="812" on="0"/>
        <pt x="489" y="812" on="0"/>
        <pt x="467" y="830" on="0"/>
        <pt x="446" y="859" on="0"/>
        <pt x="442" y="862" on="1"/>
        <pt x="402" y="910" on="0"/>
        <pt x="371" y="910" on="0"/>
        <pt x="331" y="862" on="1"/>
        <pt x="327" y="859" on="0"/>
        <pt x="316" y="844" on="1"/>
        <pt x="293" y="812" on="0"/>
        <pt x="259" y="812" on="0"/>
        <pt x="241" y="829" on="0"/>
        <pt x="241" y="850" on="0"/>
        <pt x="250" y="865" on="0"/>
        <pt x="259" y="874" on="0"/>
        <pt x="286" y="897" on="0"/>
        <pt x="310" y="920" on="0"/>
        <pt x="345" y="966" on="0"/>
        <pt x="368" y="984" on="0"/>
        <pt x="404" y="984" on="0"/>
        <pt x="428" y="966" on="0"/>
        <pt x="464" y="920" on="0"/>
        <pt x="488" y="897" on="0"/>
        <pt x="514" y="874" on="0"/>
      </contour>
    </TTGlyph>
    <TTGlyph name="Odieresis" xMin="57" yMin="-15" xMax="717" yMax="955">
      <contour>
        <pt x="493" y="58" on="0"/>
        <pt x="636" y="250" on="0"/>
        <pt x="636" y="505" on="0"/>
        <pt x="494" y="692" on="0"/>
        <pt x="280" y="692" on="0"/>
        <pt x="138" y="505" on="0"/>
        <pt x="138" y="250" on="0"/>
        <pt x="281" y="58" on="0"/>
      </contour>
      <contour>
        <pt x="717" y="539" on="0"/>
        <pt x="717" y="213" on="0"/>
        <pt x="527" y="-15" on="0"/>
        <pt x="246" y="-15" on="0"/>
        <pt x="57" y="213" on="0"/>
        <pt x="57" y="538" on="0"/>
        <pt x="247" y="765" on="0"/>
        <pt x="529" y="765" on="0"/>
      </contour>
      <contour>
        <pt x="332" y="955" on="0"/>
        <pt x="352" y="928" on="0"/>
        <pt x="352" y="887" on="0"/>
        <pt x="324" y="846" on="0"/>
        <pt x="282" y="846" on="0"/>
        <pt x="261" y="874" on="0"/>
        <pt x="261" y="920" on="0"/>
        <pt x="290" y="955" on="0"/>
      </contour>
      <contour>
        <pt x="492" y="955" on="0"/>
        <pt x="512" y="928" on="0"/>
        <pt x="512" y="887" on="0"/>
        <pt x="484" y="846" on="0"/>
        <pt x="442" y="846" on="0"/>
        <pt x="421" y="874" on="0"/>
        <pt x="421" y="920" on="0"/>
        <pt x="450" y="955" on="0"/>
      </contour>
    </TTGlyph>
    <TTGlyph name="Ograve" xMin="57" yMin="-15" xMax="717" yMax="970">
      <contour>
        <pt x="493" y="58" on="0"/>
        <pt x="636" y="250" on="0"/>
        <pt x="636" y="505" on="0"/>
        <pt x="494" y="692" on="0"/>
        <pt x="280" y="692" on="0"/>
        <pt x="138" y="505" on="0"/>
        <pt x="138" y="250" on="0"/>
        <pt x="281" y="58" on="0"/>
      </contour>
      <contour>
        <pt x="717" y="539" on="0"/>
        <pt x="717" y="213" on="0"/>
        <pt x="527" y="-15" on="0"/>
        <pt x="246" y="-15" on="0"/>
        <pt x="57" y="213" on="0"/>
        <pt x="57" y="538" on="0"/>
        <pt x="247" y="765" on="0"/>
        <pt x="529" y="765" on="0"/>
      </contour>
      <contour>
        <pt x="429" y="824" on="1"/>
        <pt x="429" y="803" on="0"/>
        <pt x="375" y="803" on="0"/>
        <pt x="284" y="889" on="0"/>
        <pt x="284" y="932" on="1"/>
        <pt x="284" y="947" on="0"/>
        <pt x="302" y="970" on="0"/>
        <pt x="338" y="970" on="0"/>
        <pt x="361" y="942" on="0"/>
        <pt x="382" y="891" on="0"/>
        <pt x="397" y="872" on="0"/>
        <pt x="408" y="859" on="1"/>
        <pt x="429" y="836" on="0"/>
      </contour>
    </TTGlyph>
    <TTGlyph name="Omega" xMin="28" yMin="-7" xMax="802" yMax="715">
      <contour>
        <pt x="76" y="71" on="1"/>
        <pt x="188" y="66" on="1"/>
        <pt x="219" y="66" on="0"/>
        <pt x="234" y="67" on="1"/>
        <pt x="98" y="203" on="0"/>
        <pt x="98" y="378" on="1"/>
        <pt x="98" y="516" on="0"/>
        <pt x="287" y="715" on="0"/>
        <pt x="545" y="715" on="0"/>
        <pt x="732" y="519" on="0"/>
        <pt x="732" y="381" on="1"/>
        <pt x="732" y="204" on="0"/>
        <pt x="596" y="66" on="1"/>
        <pt x="610" y="65" on="0"/>
        <pt x="642" y="65" on="1"/>
        <pt x="754" y="70" on="1"/>
        <pt x="776" y="70" on="0"/>
        <pt x="802" y="49" on="0"/>
        <pt x="802" y="14" on="0"/>
        <pt x="776" y="-7" on="0"/>
        <pt x="754" y="-7" on="1"/>
        <pt x="642" y="-1" on="1"/>
        <pt x="613" y="-1" on="0"/>
        <pt x="537" y="-7" on="0"/>
        <pt x="510" y="-7" on="0"/>
        <pt x="482" y="14" on="0"/>
        <pt x="482" y="53" on="0"/>
        <pt x="506" y="66" on="1"/>
        <pt x="570" y="100" on="0"/>
        <pt x="654" y="285" on="0"/>
        <pt x="654" y="490" on="0"/>
        <pt x="519" y="645" on="0"/>
        <pt x="313" y="645" on="0"/>
        <pt x="176" y="488" on="0"/>
        <pt x="176" y="283" on="0"/>
        <pt x="260" y="102" on="0"/>
        <pt x="324" y="67" on="1"/>
        <pt x="348" y="53" on="0"/>
        <pt x="348" y="15" on="0"/>
        <pt x="320" y="-6" on="0"/>
        <pt x="293" y="-6" on="0"/>
        <pt x="217" y="0" on="0"/>
        <pt x="188" y="0" on="1"/>
        <pt x="76" y="-6" on="1"/>
        <pt x="54" y="-6" on="0"/>
        <pt x="28" y="15" on="0"/>
        <pt x="28" y="49" on="0"/>
        <pt x="54" y="71" on="0"/>
      </contour>
    </TTGlyph>
    <TTGlyph name="Oslash" xMin="58" yMin="-64" xMax="698" yMax="804">
      <contour>
        <pt x="698" y="376" on="1"/>
        <pt x="698" y="213" on="0"/>
        <pt x="513" y="-15" on="0"/>
        <pt x="377" y="-15" on="1"/>
        <pt x="320" y="-15" on="0"/>
        <pt x="268" y="7" on="1"/>
        <pt x="264" y="-1" on="0"/>
        <pt x="240" y="-64" on="0"/>
        <pt x="213" y="-64" on="1"/>
        <pt x="198" y="-64" on="0"/>
        <pt x="178" y="-44" on="0"/>
        <pt x="178" y="-12" on="0"/>
        <pt x="202" y="46" on="1"/>
        <pt x="135" y="99" on="0"/>
        <pt x="58" y="274" on="0"/>
        <pt x="58" y="376" on="1"/>
        <pt x="58" y="538" on="0"/>
        <pt x="243" y="765" on="0"/>
        <pt x="379" y="765" on="1"/>
        <pt x="432" y="765" on="0"/>
        <pt x="484" y="744" on="1"/>
        <pt x="494" y="769" on="1"/>
        <pt x="509" y="804" on="0"/>
        <pt x="535" y="804" on="1"/>
        <pt x="552" y="804" on="0"/>
        <pt x="570" y="782" on="0"/>
        <pt x="570" y="754" on="0"/>
        <pt x="551" y="706" on="1"/>
        <pt x="619" y="654" on="0"/>
        <pt x="698" y="479" on="0"/>
      </contour>
      <contour>
        <pt x="519" y="632" on="1"/>
        <pt x="396" y="345" on="0"/>
        <pt x="295" y="78" on="1"/>
        <pt x="333" y="58" on="0"/>
        <pt x="378" y="58" on="1"/>
        <pt x="480" y="58" on="0"/>
        <pt x="617" y="250" on="0"/>
        <pt x="617" y="376" on="1"/>
        <pt x="617" y="452" on="0"/>
        <pt x="565" y="588" on="0"/>
      </contour>
      <contour>
        <pt x="344" y="382" on="1"/>
        <pt x="458" y="674" on="1"/>
        <pt x="421" y="692" on="0"/>
        <pt x="378" y="692" on="1"/>
        <pt x="275" y="692" on="0"/>
        <pt x="139" y="505" on="0"/>
        <pt x="139" y="376" on="1"/>
        <pt x="139" y="302" on="0"/>
        <pt x="190" y="167" on="0"/>
        <pt x="234" y="122" on="1"/>
        <pt x="282" y="230" on="0"/>
      </contour>
    </TTGlyph>
    <TTGlyph name="Otilde" xMin="57" yMin="-15" xMax="717" yMax="945">
      <contour>
        <pt x="493" y="58" on="0"/>
        <pt x="636" y="250" on="0"/>
        <pt x="636" y="505" on="0"/>
        <pt x="494" y="692" on="0"/>
        <pt x="280" y="692" on="0"/>
        <pt x="138" y="505" on="0"/>
        <pt x="138" y="250" on="0"/>
        <pt x="281" y="58" on="0"/>
      </contour>
      <contour>
        <pt x="717" y="539" on="0"/>
        <pt x="717" y="213" on="0"/>
        <pt x="527" y="-15" on="0"/>
        <pt x="246" y="-15" on="0"/>
        <pt x="57" y="213" on="0"/>
        <pt x="57" y="538" on="0"/>
        <pt x="247" y="765" on="0"/>
        <pt x="529" y="765" on="0"/>
      </contour>
      <contour>
        <pt x="565" y="912" on="1"/>
        <pt x="565" y="878" on="0"/>
        <pt x="514" y="827" on="0"/>
        <pt x="445" y="827" on="0"/>
        <pt x="349" y="882" on="0"/>
        <pt x="308" y="882" on="0"/>
        <pt x="281" y="852" on="0"/>
        <pt x="257" y="821" on="0"/>
        <pt x="228" y="821" on="0"/>
        <pt x="208" y="843" on="0"/>
        <pt x="208" y="857" on="1"/>
        <pt x="208" y="892" on="0"/>
        <pt x="272" y="945" on="0"/>
        <pt x="355" y="945" on="0"/>
        <pt x="458" y="889" on="0"/>
        <pt x="501" y="889" on="0"/>
        <pt x="535" y="940" on="0"/>
        <pt x="553" y="940" on="0"/>
        <pt x="565" y="923" on="0"/>
      </contour>
    </TTGlyph>
    <TTGlyph name="P" xMin="57" yMin="-10" xMax="569" yMax="765">
      <contour>
        <pt x="283" y="696" on="1"/>
        <pt x="211" y="696" on="0"/>
        <pt x="180" y="678" on="1"/>
        <pt x="177" y="633" on="0"/>
        <pt x="177" y="421" on="0"/>
        <pt x="179" y="376" on="1"/>
        <pt x="235" y="359" on="0"/>
        <pt x="383" y="359" on="0"/>
        <pt x="495" y="455" on="0"/>
        <pt x="495" y="519" on="1"/>
        <pt x="495" y="598" on="0"/>
        <pt x="384" y="696" on="0"/>
      </contour>
      <contour>
        <pt x="179" y="308" on="1"/>
        <pt x="184" y="41" on="1"/>
        <pt x="184" y="19" on="0"/>
        <pt x="160" y="-10" on="0"/>
        <pt x="126" y="-10" on="0"/>
        <pt x="102" y="19" on="0"/>
        <pt x="102" y="50" on="0"/>
        <pt x="104" y="98" on="1"/>
        <pt x="108" y="240" on="0"/>
        <pt x="108" y="451" on="0"/>
        <pt x="106" y="570" on="0"/>
        <pt x="103" y="639" on="0"/>
        <pt x="103" y="646" on="1"/>
        <pt x="91" y="644" on="0"/>
        <pt x="87" y="644" on="1"/>
        <pt x="57" y="644" on="0"/>
        <pt x="57" y="677" on="1"/>
        <pt x="57" y="718" on="0"/>
        <pt x="215" y="765" on="0"/>
        <pt x="277" y="765" on="1"/>
        <pt x="419" y="765" on="0"/>
        <pt x="569" y="622" on="0"/>
        <pt x="569" y="431" on="0"/>
        <pt x="420" y="293" on="0"/>
        <pt x="304" y="293" on="1"/>
        <pt x="234" y="293" on="0"/>
      </contour>
    </TTGlyph>
    <TTGlyph name="P.alt" xMin="39" yMin="-10" xMax="657" yMax="760">
      <contour>
        <pt x="200" y="318" on="1"/>
        <pt x="200" y="426" on="0"/>
        <pt x="197" y="501" on="1"/>
        <pt x="156" y="495" on="0"/>
        <pt x="109" y="448" on="0"/>
        <pt x="109" y="389" on="0"/>
        <pt x="156" y="333" on="0"/>
      </contour>
      <contour>
        <pt x="269" y="238" on="1"/>
        <pt x="274" y="83" on="0"/>
        <pt x="274" y="19" on="0"/>
        <pt x="250" y="-10" on="0"/>
        <pt x="216" y="-10" on="0"/>
        <pt x="192" y="19" on="0"/>
        <pt x="192" y="41" on="1"/>
        <pt x="199" y="250" on="1"/>
        <pt x="122" y="267" on="0"/>
        <pt x="39" y="362" on="0"/>
        <pt x="39" y="472" on="0"/>
        <pt x="122" y="558" on="0"/>
        <pt x="194" y="568" on="1"/>
        <pt x="189" y="687" on="1"/>
        <pt x="190" y="722" on="0"/>
        <pt x="221" y="735" on="1"/>
        <pt x="284" y="760" on="0"/>
        <pt x="368" y="760" on="1"/>
        <pt x="492" y="760" on="0"/>
        <pt x="657" y="617" on="0"/>
        <pt x="657" y="426" on="0"/>
        <pt x="608" y="360" on="1"/>
        <pt x="517" y="237" on="0"/>
        <pt x="315" y="237" on="1"/>
        <pt x="284" y="237" on="0"/>
      </contour>
      <contour>
        <pt x="267" y="501" on="1"/>
        <pt x="268" y="462" on="0"/>
        <pt x="268" y="305" on="1"/>
        <pt x="277" y="304" on="0"/>
        <pt x="296" y="304" on="1"/>
        <pt x="419" y="304" on="0"/>
        <pt x="579" y="410" on="0"/>
        <pt x="579" y="518" on="1"/>
        <pt x="579" y="591" on="0"/>
        <pt x="454" y="691" on="0"/>
        <pt x="367" y="691" on="1"/>
        <pt x="308" y="691" on="0"/>
        <pt x="266" y="678" on="1"/>
        <pt x="266" y="624" on="0"/>
        <pt x="268" y="568" on="1"/>
        <pt x="328" y="561" on="0"/>
        <pt x="423" y="487" on="0"/>
        <pt x="423" y="448" on="1"/>
        <pt x="423" y="432" on="0"/>
        <pt x="404" y="414" on="0"/>
        <pt x="377" y="414" on="0"/>
        <pt x="344" y="454" on="0"/>
        <pt x="296" y="498" on="0"/>
      </contour>
    </TTGlyph>
    <TTGlyph name="Q" xMin="57" yMin="-148" xMax="697" yMax="765">
      <contour>
        <pt x="616" y="376" on="1"/>
        <pt x="616" y="505" on="0"/>
        <pt x="480" y="692" on="0"/>
        <pt x="274" y="692" on="0"/>
        <pt x="138" y="505" on="0"/>
        <pt x="138" y="250" on="0"/>
        <pt x="275" y="58" on="0"/>
        <pt x="377" y="58" on="1"/>
        <pt x="420" y="58" on="0"/>
        <pt x="448" y="70" on="1"/>
        <pt x="428" y="104" on="0"/>
        <pt x="385" y="170" on="0"/>
        <pt x="371" y="194" on="0"/>
        <pt x="371" y="222" on="0"/>
        <pt x="395" y="244" on="0"/>
        <pt x="431" y="244" on="0"/>
        <pt x="447" y="216" on="1"/>
        <pt x="505" y="106" on="1"/>
        <pt x="558" y="149" on="0"/>
        <pt x="616" y="292" on="0"/>
      </contour>
      <contour>
        <pt x="697" y="376" on="1"/>
        <pt x="697" y="269" on="0"/>
        <pt x="615" y="92" on="0"/>
        <pt x="542" y="41" on="1"/>
        <pt x="612" y="-74" on="0"/>
        <pt x="625" y="-97" on="0"/>
        <pt x="625" y="-126" on="0"/>
        <pt x="608" y="-148" on="0"/>
        <pt x="570" y="-148" on="0"/>
        <pt x="553" y="-118" on="1"/>
        <pt x="547" y="-108" on="0"/>
        <pt x="500" y="-20" on="0"/>
        <pt x="484" y="8" on="1"/>
        <pt x="434" y="-15" on="0"/>
        <pt x="376" y="-15" on="1"/>
        <pt x="240" y="-15" on="0"/>
        <pt x="57" y="213" on="0"/>
        <pt x="57" y="538" on="0"/>
        <pt x="242" y="765" on="0"/>
        <pt x="514" y="765" on="0"/>
        <pt x="697" y="539" on="0"/>
      </contour>
    </TTGlyph>
    <TTGlyph name="Q.alt" xMin="57" yMin="-129" xMax="771" yMax="765">
      <contour>
        <pt x="239" y="404" on="1"/>
        <pt x="239" y="338" on="0"/>
        <pt x="269" y="248" on="0"/>
        <pt x="269" y="241" on="1"/>
        <pt x="269" y="220" on="0"/>
        <pt x="248" y="220" on="1"/>
        <pt x="220" y="220" on="0"/>
        <pt x="169" y="342" on="0"/>
        <pt x="169" y="405" on="1"/>
        <pt x="169" y="554" on="0"/>
        <pt x="339" y="765" on="0"/>
        <pt x="599" y="765" on="0"/>
        <pt x="771" y="546" on="0"/>
        <pt x="771" y="384" on="1"/>
        <pt x="771" y="277" on="0"/>
        <pt x="682" y="96" on="0"/>
        <pt x="607" y="43" on="1"/>
        <pt x="683" y="-62" on="0"/>
        <pt x="694" y="-86" on="0"/>
        <pt x="694" y="-105" on="0"/>
        <pt x="676" y="-129" on="0"/>
        <pt x="650" y="-129" on="0"/>
        <pt x="634" y="-119" on="0"/>
        <pt x="614" y="-92" on="0"/>
        <pt x="598" y="-66" on="0"/>
        <pt x="580" y="-38" on="1"/>
        <pt x="549" y="11" on="1"/>
        <pt x="486" y="-15" on="0"/>
        <pt x="422" y="-15" on="1"/>
        <pt x="272" y="-15" on="0"/>
        <pt x="57" y="221" on="0"/>
        <pt x="57" y="394" on="1"/>
        <pt x="57" y="520" on="0"/>
        <pt x="82" y="550" on="1"/>
        <pt x="94" y="565" on="0"/>
        <pt x="128" y="565" on="0"/>
        <pt x="149" y="542" on="0"/>
        <pt x="149" y="521" on="0"/>
        <pt x="144" y="508" on="1"/>
        <pt x="132" y="470" on="0"/>
        <pt x="132" y="386" on="1"/>
        <pt x="132" y="250" on="0"/>
        <pt x="303" y="57" on="0"/>
        <pt x="422" y="57" on="1"/>
        <pt x="481" y="57" on="0"/>
        <pt x="507" y="72" on="1"/>
        <pt x="428" y="185" on="0"/>
        <pt x="428" y="217" on="0"/>
        <pt x="445" y="242" on="0"/>
        <pt x="472" y="242" on="0"/>
        <pt x="487" y="233" on="0"/>
        <pt x="505" y="207" on="0"/>
        <pt x="512" y="194" on="1"/>
        <pt x="537" y="149" on="0"/>
        <pt x="566" y="103" on="1"/>
        <pt x="626" y="146" on="0"/>
        <pt x="696" y="301" on="0"/>
        <pt x="696" y="391" on="1"/>
        <pt x="696" y="520" on="0"/>
        <pt x="566" y="691" on="0"/>
        <pt x="371" y="691" on="0"/>
        <pt x="239" y="529" on="0"/>
      </contour>
    </TTGlyph>
    <TTGlyph name="R" xMin="57" yMin="-10" xMax="609" yMax="765">
      <contour>
        <pt x="179" y="307" on="1"/>
        <pt x="184" y="41" on="1"/>
        <pt x="184" y="19" on="0"/>
        <pt x="160" y="-10" on="0"/>
        <pt x="126" y="-10" on="0"/>
        <pt x="102" y="19" on="0"/>
        <pt x="102" y="50" on="0"/>
        <pt x="104" y="98" on="1"/>
        <pt x="108" y="240" on="0"/>
        <pt x="108" y="451" on="0"/>
        <pt x="106" y="570" on="0"/>
        <pt x="103" y="639" on="0"/>
        <pt x="103" y="646" on="1"/>
        <pt x="91" y="644" on="0"/>
        <pt x="87" y="644" on="1"/>
        <pt x="57" y="644" on="0"/>
        <pt x="57" y="677" on="1"/>
        <pt x="57" y="718" on="0"/>
        <pt x="215" y="765" on="0"/>
        <pt x="277" y="765" on="1"/>
        <pt x="414" y="765" on="0"/>
        <pt x="554" y="636" on="0"/>
        <pt x="554" y="542" on="1"/>
        <pt x="554" y="478" on="0"/>
        <pt x="473" y="361" on="0"/>
        <pt x="403" y="332" on="1"/>
        <pt x="497" y="109" on="0"/>
        <pt x="560" y="74" on="1"/>
        <pt x="578" y="64" on="0"/>
        <pt x="588" y="66" on="1"/>
        <pt x="609" y="69" on="0"/>
        <pt x="609" y="54" on="1"/>
        <pt x="609" y="26" on="0"/>
        <pt x="573" y="-10" on="0"/>
        <pt x="550" y="-10" on="1"/>
        <pt x="512" y="-10" on="0"/>
        <pt x="470" y="46" on="1"/>
        <pt x="410" y="132" on="0"/>
        <pt x="331" y="309" on="1"/>
        <pt x="283" y="300" on="0"/>
        <pt x="236" y="300" on="1"/>
      </contour>
      <contour>
        <pt x="480" y="536" on="1"/>
        <pt x="480" y="607" on="0"/>
        <pt x="378" y="696" on="0"/>
        <pt x="211" y="696" on="0"/>
        <pt x="180" y="678" on="1"/>
        <pt x="177" y="626" on="0"/>
        <pt x="177" y="408" on="0"/>
        <pt x="178" y="385" on="1"/>
        <pt x="223" y="397" on="0"/>
        <pt x="317" y="397" on="0"/>
        <pt x="356" y="387" on="1"/>
        <pt x="401" y="396" on="0"/>
        <pt x="480" y="483" on="0"/>
      </contour>
    </TTGlyph>
    <TTGlyph name="R.alt" xMin="42" yMin="-82" xMax="715" yMax="765">
      <contour>
        <pt x="236" y="672" on="1"/>
        <pt x="236" y="633" on="0"/>
        <pt x="240" y="475" on="1"/>
        <pt x="300" y="469" on="0"/>
        <pt x="404" y="400" on="0"/>
        <pt x="433" y="358" on="1"/>
        <pt x="482" y="388" on="0"/>
        <pt x="540" y="483" on="0"/>
        <pt x="540" y="533" on="1"/>
        <pt x="540" y="608" on="0"/>
        <pt x="425" y="695" on="0"/>
        <pt x="338" y="695" on="1"/>
        <pt x="290" y="695" on="0"/>
      </contour>
      <contour>
        <pt x="239" y="410" on="1"/>
        <pt x="239" y="316" on="1"/>
        <pt x="261" y="314" on="0"/>
        <pt x="331" y="314" on="0"/>
        <pt x="364" y="327" on="1"/>
        <pt x="321" y="391" on="0"/>
      </contour>
      <contour>
        <pt x="170" y="323" on="1"/>
        <pt x="170" y="414" on="1"/>
        <pt x="111" y="407" on="0"/>
        <pt x="111" y="342" on="0"/>
      </contour>
      <contour>
        <pt x="240" y="250" on="1"/>
        <pt x="246" y="41" on="1"/>
        <pt x="246" y="18" on="0"/>
        <pt x="224" y="-10" on="0"/>
        <pt x="186" y="-10" on="0"/>
        <pt x="164" y="18" on="0"/>
        <pt x="164" y="70" on="0"/>
        <pt x="168" y="258" on="1"/>
        <pt x="104" y="272" on="0"/>
        <pt x="42" y="335" on="0"/>
        <pt x="42" y="414" on="0"/>
        <pt x="113" y="474" on="0"/>
        <pt x="168" y="479" on="1"/>
        <pt x="160" y="678" on="1"/>
        <pt x="160" y="722" on="0"/>
        <pt x="195" y="738" on="1"/>
        <pt x="255" y="765" on="0"/>
        <pt x="339" y="765" on="1"/>
        <pt x="461" y="765" on="0"/>
        <pt x="618" y="633" on="0"/>
        <pt x="618" y="535" on="1"/>
        <pt x="618" y="465" on="0"/>
        <pt x="536" y="339" on="0"/>
        <pt x="469" y="300" on="1"/>
        <pt x="580" y="99" on="0"/>
        <pt x="601" y="67" on="1"/>
        <pt x="647" y="-3" on="0"/>
        <pt x="690" y="-6" on="1"/>
        <pt x="698" y="-6" on="1"/>
        <pt x="712" y="-6" on="0"/>
        <pt x="715" y="-13" on="0"/>
        <pt x="715" y="-16" on="1"/>
        <pt x="715" y="-43" on="0"/>
        <pt x="681" y="-82" on="0"/>
        <pt x="643" y="-82" on="0"/>
        <pt x="612" y="-66" on="0"/>
        <pt x="578" y="-29" on="0"/>
        <pt x="549" y="11" on="0"/>
        <pt x="508" y="80" on="0"/>
        <pt x="492" y="110" on="1"/>
        <pt x="428" y="222" on="0"/>
        <pt x="400" y="271" on="1"/>
        <pt x="337" y="249" on="0"/>
        <pt x="273" y="249" on="1"/>
        <pt x="250" y="249" on="0"/>
      </contour>
    </TTGlyph>
    <TTGlyph name="Racute" xMin="57" yMin="-10" xMax="609" yMax="970">
      <contour>
        <pt x="179" y="307" on="1"/>
        <pt x="184" y="41" on="1"/>
        <pt x="184" y="19" on="0"/>
        <pt x="160" y="-10" on="0"/>
        <pt x="126" y="-10" on="0"/>
        <pt x="102" y="19" on="0"/>
        <pt x="102" y="50" on="0"/>
        <pt x="104" y="98" on="1"/>
        <pt x="108" y="240" on="0"/>
        <pt x="108" y="451" on="0"/>
        <pt x="106" y="570" on="0"/>
        <pt x="103" y="639" on="0"/>
        <pt x="103" y="646" on="1"/>
        <pt x="91" y="644" on="0"/>
        <pt x="87" y="644" on="1"/>
        <pt x="57" y="644" on="0"/>
        <pt x="57" y="677" on="1"/>
        <pt x="57" y="718" on="0"/>
        <pt x="215" y="765" on="0"/>
        <pt x="277" y="765" on="1"/>
        <pt x="414" y="765" on="0"/>
        <pt x="554" y="636" on="0"/>
        <pt x="554" y="542" on="1"/>
        <pt x="554" y="478" on="0"/>
        <pt x="473" y="361" on="0"/>
        <pt x="403" y="332" on="1"/>
        <pt x="497" y="109" on="0"/>
        <pt x="560" y="74" on="1"/>
        <pt x="578" y="64" on="0"/>
        <pt x="588" y="66" on="1"/>
        <pt x="609" y="69" on="0"/>
        <pt x="609" y="54" on="1"/>
        <pt x="609" y="26" on="0"/>
        <pt x="573" y="-10" on="0"/>
        <pt x="550" y="-10" on="1"/>
        <pt x="512" y="-10" on="0"/>
        <pt x="470" y="46" on="1"/>
        <pt x="410" y="132" on="0"/>
        <pt x="331" y="309" on="1"/>
        <pt x="283" y="300" on="0"/>
        <pt x="236" y="300" on="1"/>
      </contour>
      <contour>
        <pt x="480" y="536" on="1"/>
        <pt x="480" y="607" on="0"/>
        <pt x="378" y="696" on="0"/>
        <pt x="211" y="696" on="0"/>
        <pt x="180" y="678" on="1"/>
        <pt x="177" y="626" on="0"/>
        <pt x="177" y="408" on="0"/>
        <pt x="178" y="385" on="1"/>
        <pt x="223" y="397" on="0"/>
        <pt x="317" y="397" on="0"/>
        <pt x="356" y="387" on="1"/>
        <pt x="401" y="396" on="0"/>
        <pt x="480" y="483" on="0"/>
      </contour>
      <contour>
        <pt x="401" y="932" on="1"/>
        <pt x="401" y="889" on="0"/>
        <pt x="310" y="803" on="0"/>
        <pt x="256" y="803" on="0"/>
        <pt x="256" y="824" on="1"/>
        <pt x="256" y="836" on="0"/>
        <pt x="288" y="872" on="0"/>
        <pt x="303" y="891" on="0"/>
        <pt x="324" y="942" on="0"/>
        <pt x="347" y="970" on="0"/>
        <pt x="383" y="970" on="0"/>
        <pt x="401" y="947" on="0"/>
      </contour>
    </TTGlyph>
    <TTGlyph name="Rcaron" xMin="57" yMin="-10" xMax="609" yMax="984">
      <contour>
        <pt x="179" y="307" on="1"/>
        <pt x="184" y="41" on="1"/>
        <pt x="184" y="19" on="0"/>
        <pt x="160" y="-10" on="0"/>
        <pt x="126" y="-10" on="0"/>
        <pt x="102" y="19" on="0"/>
        <pt x="102" y="50" on="0"/>
        <pt x="104" y="98" on="1"/>
        <pt x="108" y="240" on="0"/>
        <pt x="108" y="451" on="0"/>
        <pt x="106" y="570" on="0"/>
        <pt x="103" y="639" on="0"/>
        <pt x="103" y="646" on="1"/>
        <pt x="91" y="644" on="0"/>
        <pt x="87" y="644" on="1"/>
        <pt x="57" y="644" on="0"/>
        <pt x="57" y="677" on="1"/>
        <pt x="57" y="718" on="0"/>
        <pt x="215" y="765" on="0"/>
        <pt x="277" y="765" on="1"/>
        <pt x="414" y="765" on="0"/>
        <pt x="554" y="636" on="0"/>
        <pt x="554" y="542" on="1"/>
        <pt x="554" y="478" on="0"/>
        <pt x="473" y="361" on="0"/>
        <pt x="403" y="332" on="1"/>
        <pt x="497" y="109" on="0"/>
        <pt x="560" y="74" on="1"/>
        <pt x="578" y="64" on="0"/>
        <pt x="588" y="66" on="1"/>
        <pt x="609" y="69" on="0"/>
        <pt x="609" y="54" on="1"/>
        <pt x="609" y="26" on="0"/>
        <pt x="573" y="-10" on="0"/>
        <pt x="550" y="-10" on="1"/>
        <pt x="512" y="-10" on="0"/>
        <pt x="470" y="46" on="1"/>
        <pt x="410" y="132" on="0"/>
        <pt x="331" y="309" on="1"/>
        <pt x="283" y="300" on="0"/>
        <pt x="236" y="300" on="1"/>
      </contour>
      <contour>
        <pt x="480" y="536" on="1"/>
        <pt x="480" y="607" on="0"/>
        <pt x="378" y="696" on="0"/>
        <pt x="211" y="696" on="0"/>
        <pt x="180" y="678" on="1"/>
        <pt x="177" y="626" on="0"/>
        <pt x="177" y="408" on="0"/>
        <pt x="178" y="385" on="1"/>
        <pt x="223" y="397" on="0"/>
        <pt x="317" y="397" on="0"/>
        <pt x="356" y="387" on="1"/>
        <pt x="401" y="396" on="0"/>
        <pt x="480" y="483" on="0"/>
      </contour>
      <contour>
        <pt x="406" y="984" on="0"/>
        <pt x="424" y="967" on="0"/>
        <pt x="424" y="946" on="0"/>
        <pt x="416" y="931" on="0"/>
        <pt x="406" y="922" on="0"/>
        <pt x="380" y="899" on="0"/>
        <pt x="356" y="876" on="0"/>
        <pt x="320" y="830" on="0"/>
        <pt x="296" y="812" on="0"/>
        <pt x="260" y="812" on="0"/>
        <pt x="237" y="830" on="0"/>
        <pt x="202" y="876" on="0"/>
        <pt x="178" y="899" on="0"/>
        <pt x="151" y="922" on="0"/>
        <pt x="146" y="926" on="1"/>
        <pt x="133" y="940" on="0"/>
        <pt x="133" y="967" on="0"/>
        <pt x="151" y="984" on="0"/>
        <pt x="176" y="984" on="0"/>
        <pt x="197" y="968" on="0"/>
        <pt x="222" y="935" on="0"/>
        <pt x="223" y="934" on="1"/>
        <pt x="268" y="886" on="0"/>
        <pt x="289" y="886" on="0"/>
        <pt x="334" y="934" on="1"/>
        <pt x="335" y="935" on="0"/>
        <pt x="348" y="952" on="1"/>
        <pt x="372" y="984" on="0"/>
      </contour>
    </TTGlyph>
    <TTGlyph name="Rcommaaccent" xMin="58" yMin="-235" xMax="610" yMax="765">
      <contour>
        <pt x="200" y="-86" on="0"/>
        <pt x="221" y="-55" on="0"/>
        <pt x="258" y="-55" on="0"/>
        <pt x="278" y="-81" on="0"/>
        <pt x="278" y="-99" on="1"/>
        <pt x="278" y="-142" on="0"/>
        <pt x="201" y="-235" on="0"/>
        <pt x="176" y="-235" on="1"/>
        <pt x="166" y="-235" on="0"/>
        <pt x="153" y="-223" on="0"/>
        <pt x="153" y="-208" on="0"/>
        <pt x="161" y="-193" on="0"/>
        <pt x="177" y="-166" on="0"/>
        <pt x="187" y="-144" on="0"/>
      </contour>
      <contour>
        <pt x="555" y="542" on="1"/>
        <pt x="555" y="478" on="0"/>
        <pt x="474" y="361" on="0"/>
        <pt x="404" y="332" on="1"/>
        <pt x="498" y="109" on="0"/>
        <pt x="561" y="74" on="1"/>
        <pt x="579" y="64" on="0"/>
        <pt x="588" y="66" on="1"/>
        <pt x="610" y="69" on="0"/>
        <pt x="610" y="54" on="1"/>
        <pt x="610" y="26" on="0"/>
        <pt x="574" y="-10" on="0"/>
        <pt x="551" y="-10" on="1"/>
        <pt x="513" y="-10" on="0"/>
        <pt x="471" y="46" on="1"/>
        <pt x="411" y="132" on="0"/>
        <pt x="332" y="309" on="1"/>
        <pt x="284" y="300" on="0"/>
        <pt x="237" y="300" on="1"/>
        <pt x="180" y="307" on="1"/>
        <pt x="180" y="168" on="0"/>
        <pt x="185" y="48" on="0"/>
        <pt x="185" y="19" on="0"/>
        <pt x="161" y="-10" on="0"/>
        <pt x="127" y="-10" on="0"/>
        <pt x="103" y="19" on="0"/>
        <pt x="103" y="50" on="0"/>
        <pt x="104" y="98" on="1"/>
        <pt x="109" y="240" on="0"/>
        <pt x="109" y="451" on="0"/>
        <pt x="106" y="570" on="0"/>
        <pt x="104" y="639" on="0"/>
        <pt x="104" y="646" on="1"/>
        <pt x="92" y="644" on="0"/>
        <pt x="88" y="644" on="1"/>
        <pt x="58" y="644" on="0"/>
        <pt x="58" y="677" on="1"/>
        <pt x="58" y="718" on="0"/>
        <pt x="216" y="765" on="0"/>
        <pt x="278" y="765" on="1"/>
        <pt x="415" y="765" on="0"/>
        <pt x="555" y="636" on="0"/>
      </contour>
      <contour>
        <pt x="481" y="536" on="1"/>
        <pt x="481" y="607" on="0"/>
        <pt x="379" y="696" on="0"/>
        <pt x="212" y="696" on="0"/>
        <pt x="181" y="678" on="1"/>
        <pt x="178" y="626" on="0"/>
        <pt x="178" y="408" on="0"/>
        <pt x="179" y="385" on="1"/>
        <pt x="224" y="397" on="0"/>
        <pt x="318" y="397" on="0"/>
        <pt x="357" y="387" on="1"/>
        <pt x="402" y="396" on="0"/>
        <pt x="481" y="483" on="0"/>
      </contour>
    </TTGlyph>
    <TTGlyph name="S" xMin="42" yMin="-15" xMax="512" yMax="765">
      <contour>
        <pt x="512" y="200" on="1"/>
        <pt x="512" y="109" on="0"/>
        <pt x="376" y="-15" on="0"/>
        <pt x="269" y="-15" on="1"/>
        <pt x="186" y="-15" on="0"/>
        <pt x="42" y="64" on="0"/>
        <pt x="42" y="103" on="1"/>
        <pt x="42" y="118" on="0"/>
        <pt x="61" y="138" on="0"/>
        <pt x="91" y="138" on="0"/>
        <pt x="128" y="112" on="0"/>
        <pt x="161" y="81" on="0"/>
        <pt x="228" y="55" on="0"/>
        <pt x="269" y="55" on="1"/>
        <pt x="339" y="55" on="0"/>
        <pt x="432" y="134" on="0"/>
        <pt x="432" y="200" on="1"/>
        <pt x="432" y="244" on="0"/>
        <pt x="357" y="321" on="0"/>
        <pt x="250" y="382" on="0"/>
        <pt x="143" y="446" on="0"/>
        <pt x="68" y="536" on="0"/>
        <pt x="68" y="590" on="1"/>
        <pt x="68" y="661" on="0"/>
        <pt x="191" y="765" on="0"/>
        <pt x="355" y="765" on="0"/>
        <pt x="471" y="709" on="0"/>
        <pt x="471" y="674" on="1"/>
        <pt x="471" y="658" on="0"/>
        <pt x="452" y="640" on="0"/>
        <pt x="422" y="640" on="0"/>
        <pt x="392" y="657" on="0"/>
        <pt x="367" y="678" on="0"/>
        <pt x="315" y="695" on="0"/>
        <pt x="228" y="695" on="0"/>
        <pt x="148" y="636" on="0"/>
        <pt x="148" y="553" on="0"/>
        <pt x="223" y="484" on="0"/>
        <pt x="330" y="423" on="0"/>
        <pt x="437" y="356" on="0"/>
        <pt x="512" y="258" on="0"/>
      </contour>
    </TTGlyph>
    <TTGlyph name="S.alt" xMin="46" yMin="-15" xMax="539" yMax="765">
      <contour>
        <pt x="539" y="118" on="0"/>
        <pt x="396" y="-15" on="0"/>
        <pt x="175" y="-15" on="0"/>
        <pt x="46" y="102" on="0"/>
        <pt x="46" y="240" on="0"/>
        <pt x="121" y="318" on="0"/>
        <pt x="235" y="318" on="0"/>
        <pt x="292" y="259" on="0"/>
        <pt x="292" y="191" on="0"/>
        <pt x="255" y="144" on="0"/>
        <pt x="212" y="144" on="0"/>
        <pt x="212" y="163" on="1"/>
        <pt x="212" y="171" on="0"/>
        <pt x="229" y="197" on="0"/>
        <pt x="229" y="225" on="0"/>
        <pt x="202" y="248" on="0"/>
        <pt x="155" y="248" on="0"/>
        <pt x="118" y="215" on="0"/>
        <pt x="118" y="183" on="1"/>
        <pt x="118" y="138" on="0"/>
        <pt x="206" y="55" on="0"/>
        <pt x="358" y="55" on="0"/>
        <pt x="459" y="145" on="0"/>
        <pt x="459" y="210" on="1"/>
        <pt x="459" y="259" on="0"/>
        <pt x="382" y="337" on="0"/>
        <pt x="272" y="393" on="0"/>
        <pt x="162" y="452" on="0"/>
        <pt x="85" y="542" on="0"/>
        <pt x="85" y="668" on="0"/>
        <pt x="208" y="765" on="0"/>
        <pt x="372" y="765" on="0"/>
        <pt x="488" y="703" on="0"/>
        <pt x="488" y="664" on="1"/>
        <pt x="488" y="648" on="0"/>
        <pt x="469" y="630" on="0"/>
        <pt x="439" y="630" on="0"/>
        <pt x="409" y="650" on="0"/>
        <pt x="385" y="675" on="0"/>
        <pt x="333" y="695" on="0"/>
        <pt x="245" y="695" on="0"/>
        <pt x="165" y="641" on="0"/>
        <pt x="165" y="562" on="0"/>
        <pt x="242" y="495" on="0"/>
        <pt x="352" y="437" on="0"/>
        <pt x="462" y="371" on="0"/>
        <pt x="539" y="271" on="0"/>
        <pt x="539" y="210" on="1"/>
      </contour>
    </TTGlyph>
    <TTGlyph name="T" xMin="27" yMin="-10" xMax="499" yMax="756">
      <contour>
        <pt x="267" y="750" on="1"/>
        <pt x="448" y="756" on="1"/>
        <pt x="471" y="756" on="0"/>
        <pt x="499" y="735" on="0"/>
        <pt x="499" y="699" on="0"/>
        <pt x="471" y="678" on="0"/>
        <pt x="448" y="678" on="1"/>
        <pt x="308" y="683" on="1"/>
        <pt x="303" y="458" on="0"/>
        <pt x="303" y="372" on="1"/>
        <pt x="308" y="41" on="1"/>
        <pt x="308" y="18" on="0"/>
        <pt x="286" y="-10" on="0"/>
        <pt x="248" y="-10" on="0"/>
        <pt x="226" y="18" on="0"/>
        <pt x="226" y="41" on="1"/>
        <pt x="231" y="372" on="1"/>
        <pt x="231" y="459" on="0"/>
        <pt x="226" y="684" on="1"/>
        <pt x="75" y="679" on="1"/>
        <pt x="27" y="679" on="0"/>
        <pt x="27" y="755" on="0"/>
        <pt x="75" y="755" on="1"/>
      </contour>
    </TTGlyph>
    <TTGlyph name="T.alt" xMin="20" yMin="-10" xMax="601" yMax="804">
      <contour>
        <pt x="319" y="126" on="0"/>
        <pt x="322" y="49" on="0"/>
        <pt x="322" y="18" on="0"/>
        <pt x="300" y="-10" on="0"/>
        <pt x="262" y="-10" on="0"/>
        <pt x="240" y="18" on="0"/>
        <pt x="240" y="49" on="0"/>
        <pt x="241" y="84" on="1"/>
        <pt x="244" y="191" on="0"/>
        <pt x="244" y="562" on="0"/>
        <pt x="255" y="624" on="1"/>
        <pt x="200" y="629" on="0"/>
        <pt x="138" y="647" on="1"/>
        <pt x="20" y="683" on="0"/>
        <pt x="20" y="725" on="1"/>
        <pt x="20" y="739" on="0"/>
        <pt x="39" y="763" on="0"/>
        <pt x="67" y="763" on="0"/>
        <pt x="91" y="750" on="0"/>
        <pt x="119" y="730" on="0"/>
        <pt x="206" y="704" on="0"/>
        <pt x="270" y="694" on="1"/>
        <pt x="295" y="747" on="0"/>
        <pt x="405" y="804" on="0"/>
        <pt x="530" y="804" on="0"/>
        <pt x="601" y="749" on="0"/>
        <pt x="601" y="676" on="0"/>
        <pt x="518" y="614" on="0"/>
        <pt x="415" y="614" on="1"/>
        <pt x="358" y="614" on="0"/>
        <pt x="326" y="617" on="1"/>
        <pt x="316" y="585" on="0"/>
        <pt x="316" y="269" on="0"/>
      </contour>
      <contour>
        <pt x="461" y="734" on="1"/>
        <pt x="377" y="734" on="0"/>
        <pt x="343" y="686" on="1"/>
        <pt x="364" y="682" on="0"/>
        <pt x="436" y="682" on="0"/>
        <pt x="501" y="694" on="0"/>
        <pt x="526" y="708" on="0"/>
        <pt x="526" y="713" on="1"/>
        <pt x="526" y="734" on="0"/>
      </contour>
    </TTGlyph>
    <TTGlyph name="Th" xMin="27" yMin="-11" xMax="999" yMax="756">
      <contour>
        <pt x="267" y="750" on="1"/>
        <pt x="558" y="756" on="1"/>
        <pt x="581" y="756" on="0"/>
        <pt x="609" y="735" on="0"/>
        <pt x="609" y="702" on="0"/>
        <pt x="604" y="479" on="0"/>
        <pt x="604" y="382" on="1"/>
        <pt x="674" y="509" on="0"/>
        <pt x="784" y="509" on="1"/>
        <pt x="864" y="509" on="0"/>
        <pt x="952" y="395" on="0"/>
        <pt x="952" y="314" on="1"/>
        <pt x="947" y="157" on="1"/>
        <pt x="947" y="129" on="0"/>
        <pt x="948" y="100" on="0"/>
        <pt x="959" y="69" on="0"/>
        <pt x="975" y="62" on="0"/>
        <pt x="992" y="60" on="0"/>
        <pt x="999" y="56" on="0"/>
        <pt x="999" y="50" on="1"/>
        <pt x="999" y="24" on="0"/>
        <pt x="966" y="-11" on="0"/>
        <pt x="944" y="-11" on="1"/>
        <pt x="905" y="-11" on="0"/>
        <pt x="877" y="48" on="0"/>
        <pt x="877" y="107" on="1"/>
        <pt x="877" y="107" on="0"/>
        <pt x="881" y="291" on="1"/>
        <pt x="881" y="358" on="0"/>
        <pt x="822" y="443" on="0"/>
        <pt x="720" y="443" on="0"/>
        <pt x="623" y="328" on="0"/>
        <pt x="605" y="257" on="1"/>
        <pt x="608" y="40" on="1"/>
        <pt x="608" y="-11" on="0"/>
        <pt x="570" y="-11" on="1"/>
        <pt x="524" y="-11" on="0"/>
        <pt x="524" y="130" on="0"/>
        <pt x="544" y="257" on="1"/>
        <pt x="544" y="344" on="0"/>
        <pt x="533" y="674" on="0"/>
        <pt x="533" y="678" on="1"/>
        <pt x="308" y="683" on="1"/>
        <pt x="303" y="458" on="0"/>
        <pt x="303" y="372" on="1"/>
        <pt x="308" y="41" on="1"/>
        <pt x="308" y="18" on="0"/>
        <pt x="286" y="-10" on="0"/>
        <pt x="248" y="-10" on="0"/>
        <pt x="226" y="18" on="0"/>
        <pt x="226" y="41" on="1"/>
        <pt x="231" y="372" on="1"/>
        <pt x="231" y="459" on="0"/>
        <pt x="226" y="684" on="1"/>
        <pt x="75" y="679" on="1"/>
        <pt x="27" y="679" on="0"/>
        <pt x="27" y="755" on="0"/>
        <pt x="75" y="755" on="1"/>
      </contour>
    </TTGlyph>
    <TTGlyph name="Thorn" xMin="98" yMin="-10" xMax="539" yMax="760">
      <contour>
        <pt x="103" y="375" on="1"/>
        <pt x="98" y="710" on="1"/>
        <pt x="98" y="760" on="0"/>
        <pt x="174" y="760" on="0"/>
        <pt x="174" y="710" on="1"/>
        <pt x="174" y="692" on="0"/>
        <pt x="171" y="605" on="1"/>
        <pt x="219" y="622" on="0"/>
        <pt x="289" y="622" on="1"/>
        <pt x="401" y="622" on="0"/>
        <pt x="539" y="502" on="0"/>
        <pt x="539" y="321" on="0"/>
        <pt x="401" y="201" on="0"/>
        <pt x="288" y="201" on="1"/>
        <pt x="218" y="201" on="0"/>
        <pt x="170" y="218" on="1"/>
        <pt x="174" y="40" on="1"/>
        <pt x="174" y="-10" on="0"/>
        <pt x="98" y="-10" on="0"/>
        <pt x="98" y="40" on="1"/>
      </contour>
      <contour>
        <pt x="365" y="264" on="0"/>
        <pt x="464" y="345" on="0"/>
        <pt x="464" y="478" on="0"/>
        <pt x="366" y="559" on="0"/>
        <pt x="224" y="559" on="0"/>
        <pt x="172" y="543" on="1"/>
        <pt x="170" y="501" on="0"/>
        <pt x="170" y="322" on="0"/>
        <pt x="171" y="280" on="1"/>
        <pt x="223" y="264" on="0"/>
      </contour>
    </TTGlyph>
    <TTGlyph name="U" xMin="91" yMin="-15" xMax="592" yMax="760">
      <contour>
        <pt x="458" y="-15" on="0"/>
        <pt x="224" y="-15" on="0"/>
        <pt x="99" y="138" on="0"/>
        <pt x="97" y="247" on="1"/>
        <pt x="91" y="705" on="0"/>
        <pt x="91" y="732" on="0"/>
        <pt x="113" y="760" on="0"/>
        <pt x="151" y="760" on="0"/>
        <pt x="173" y="732" on="0"/>
        <pt x="173" y="700" on="0"/>
        <pt x="172" y="648" on="1"/>
        <pt x="168" y="525" on="0"/>
        <pt x="168" y="293" on="0"/>
        <pt x="175" y="219" on="0"/>
        <pt x="196" y="139" on="0"/>
        <pt x="214" y="114" on="1"/>
        <pt x="257" y="55" on="0"/>
        <pt x="341" y="55" on="1"/>
        <pt x="446" y="55" on="0"/>
        <pt x="483" y="138" on="1"/>
        <pt x="515" y="210" on="0"/>
        <pt x="515" y="447" on="0"/>
        <pt x="510" y="707" on="0"/>
        <pt x="510" y="709" on="1"/>
        <pt x="510" y="732" on="0"/>
        <pt x="532" y="760" on="0"/>
        <pt x="570" y="760" on="0"/>
        <pt x="592" y="732" on="0"/>
        <pt x="592" y="709" on="1"/>
        <pt x="592" y="521" on="0"/>
        <pt x="586" y="246" on="1"/>
        <pt x="584" y="137" on="0"/>
      </contour>
    </TTGlyph>
    <TTGlyph name="U.alt" xMin="28" yMin="-15" xMax="755" yMax="765">
      <contour>
        <pt x="152" y="690" on="1"/>
        <pt x="129" y="690" on="0"/>
        <pt x="98" y="654" on="0"/>
        <pt x="98" y="604" on="0"/>
        <pt x="116" y="573" on="0"/>
        <pt x="134" y="557" on="0"/>
        <pt x="134" y="550" on="1"/>
        <pt x="134" y="526" on="0"/>
        <pt x="78" y="526" on="0"/>
        <pt x="28" y="588" on="0"/>
        <pt x="28" y="630" on="1"/>
        <pt x="28" y="673" on="0"/>
        <pt x="54" y="716" on="1"/>
        <pt x="68" y="738" on="0"/>
        <pt x="122" y="765" on="0"/>
        <pt x="157" y="765" on="1"/>
        <pt x="218" y="765" on="0"/>
        <pt x="288" y="675" on="0"/>
        <pt x="288" y="560" on="0"/>
        <pt x="237" y="289" on="0"/>
        <pt x="237" y="256" on="1"/>
        <pt x="237" y="167" on="0"/>
        <pt x="295" y="55" on="0"/>
        <pt x="416" y="55" on="0"/>
        <pt x="521" y="195" on="0"/>
        <pt x="576" y="374" on="0"/>
        <pt x="580" y="452" on="1"/>
        <pt x="577" y="523" on="0"/>
        <pt x="577" y="694" on="1"/>
        <pt x="577" y="760" on="0"/>
        <pt x="620" y="760" on="1"/>
        <pt x="672" y="760" on="0"/>
        <pt x="672" y="677" on="1"/>
        <pt x="672" y="652" on="0"/>
        <pt x="646" y="421" on="1"/>
        <pt x="647" y="313" on="0"/>
        <pt x="688" y="92" on="0"/>
        <pt x="707" y="71" on="1"/>
        <pt x="713" y="64" on="0"/>
        <pt x="737" y="62" on="0"/>
        <pt x="755" y="60" on="0"/>
        <pt x="755" y="43" on="0"/>
        <pt x="748" y="16" on="0"/>
        <pt x="716" y="-15" on="0"/>
        <pt x="680" y="-15" on="0"/>
        <pt x="660" y="-5" on="0"/>
        <pt x="645" y="15" on="0"/>
        <pt x="632" y="37" on="0"/>
        <pt x="622" y="73" on="0"/>
        <pt x="614" y="101" on="0"/>
        <pt x="607" y="144" on="0"/>
        <pt x="602" y="172" on="0"/>
        <pt x="596" y="217" on="0"/>
        <pt x="594" y="227" on="1"/>
        <pt x="570" y="134" on="0"/>
        <pt x="514" y="63" on="1"/>
        <pt x="485" y="27" on="0"/>
        <pt x="405" y="-15" on="0"/>
        <pt x="305" y="-15" on="0"/>
        <pt x="225" y="26" on="0"/>
        <pt x="202" y="62" on="1"/>
        <pt x="158" y="132" on="0"/>
        <pt x="158" y="304" on="0"/>
        <pt x="213" y="559" on="0"/>
        <pt x="213" y="609" on="1"/>
        <pt x="213" y="690" on="0"/>
      </contour>
    </TTGlyph>
    <TTGlyph name="Uacute" xMin="91" yMin="-15" xMax="592" yMax="970">
      <contour>
        <pt x="458" y="-15" on="0"/>
        <pt x="224" y="-15" on="0"/>
        <pt x="99" y="138" on="0"/>
        <pt x="97" y="247" on="1"/>
        <pt x="91" y="705" on="0"/>
        <pt x="91" y="732" on="0"/>
        <pt x="113" y="760" on="0"/>
        <pt x="151" y="760" on="0"/>
        <pt x="173" y="732" on="0"/>
        <pt x="173" y="700" on="0"/>
        <pt x="172" y="648" on="1"/>
        <pt x="168" y="525" on="0"/>
        <pt x="168" y="293" on="0"/>
        <pt x="175" y="219" on="0"/>
        <pt x="196" y="139" on="0"/>
        <pt x="214" y="114" on="1"/>
        <pt x="257" y="55" on="0"/>
        <pt x="341" y="55" on="1"/>
        <pt x="446" y="55" on="0"/>
        <pt x="483" y="138" on="1"/>
        <pt x="515" y="210" on="0"/>
        <pt x="515" y="447" on="0"/>
        <pt x="510" y="707" on="0"/>
        <pt x="510" y="709" on="1"/>
        <pt x="510" y="732" on="0"/>
        <pt x="532" y="760" on="0"/>
        <pt x="570" y="760" on="0"/>
        <pt x="592" y="732" on="0"/>
        <pt x="592" y="709" on="1"/>
        <pt x="592" y="521" on="0"/>
        <pt x="586" y="246" on="1"/>
        <pt x="584" y="137" on="0"/>
      </contour>
      <contour>
        <pt x="444" y="932" on="1"/>
        <pt x="444" y="889" on="0"/>
        <pt x="353" y="803" on="0"/>
        <pt x="299" y="803" on="0"/>
        <pt x="299" y="824" on="1"/>
        <pt x="299" y="836" on="0"/>
        <pt x="331" y="872" on="0"/>
        <pt x="346" y="891" on="0"/>
        <pt x="367" y="942" on="0"/>
        <pt x="390" y="970" on="0"/>
        <pt x="426" y="970" on="0"/>
        <pt x="444" y="947" on="0"/>
      </contour>
    </TTGlyph>
    <TTGlyph name="Ucircumflex" xMin="91" yMin="-15" xMax="592" yMax="984">
      <contour>
        <pt x="458" y="-15" on="0"/>
        <pt x="224" y="-15" on="0"/>
        <pt x="99" y="138" on="0"/>
        <pt x="97" y="247" on="1"/>
        <pt x="91" y="705" on="0"/>
        <pt x="91" y="732" on="0"/>
        <pt x="113" y="760" on="0"/>
        <pt x="151" y="760" on="0"/>
        <pt x="173" y="732" on="0"/>
        <pt x="173" y="700" on="0"/>
        <pt x="172" y="648" on="1"/>
        <pt x="168" y="525" on="0"/>
        <pt x="168" y="293" on="0"/>
        <pt x="175" y="219" on="0"/>
        <pt x="196" y="139" on="0"/>
        <pt x="214" y="114" on="1"/>
        <pt x="257" y="55" on="0"/>
        <pt x="341" y="55" on="1"/>
        <pt x="446" y="55" on="0"/>
        <pt x="483" y="138" on="1"/>
        <pt x="515" y="210" on="0"/>
        <pt x="515" y="447" on="0"/>
        <pt x="510" y="707" on="0"/>
        <pt x="510" y="709" on="1"/>
        <pt x="510" y="732" on="0"/>
        <pt x="532" y="760" on="0"/>
        <pt x="570" y="760" on="0"/>
        <pt x="592" y="732" on="0"/>
        <pt x="592" y="709" on="1"/>
        <pt x="592" y="521" on="0"/>
        <pt x="586" y="246" on="1"/>
        <pt x="584" y="137" on="0"/>
      </contour>
      <contour>
        <pt x="481" y="865" on="0"/>
        <pt x="489" y="850" on="0"/>
        <pt x="489" y="829" on="0"/>
        <pt x="471" y="812" on="0"/>
        <pt x="446" y="812" on="0"/>
        <pt x="424" y="830" on="0"/>
        <pt x="403" y="859" on="0"/>
        <pt x="399" y="862" on="1"/>
        <pt x="359" y="910" on="0"/>
        <pt x="328" y="910" on="0"/>
        <pt x="288" y="862" on="1"/>
        <pt x="284" y="859" on="0"/>
        <pt x="274" y="844" on="1"/>
        <pt x="250" y="812" on="0"/>
        <pt x="216" y="812" on="0"/>
        <pt x="198" y="829" on="0"/>
        <pt x="198" y="850" on="0"/>
        <pt x="207" y="865" on="0"/>
        <pt x="216" y="874" on="0"/>
        <pt x="243" y="897" on="0"/>
        <pt x="267" y="920" on="0"/>
        <pt x="302" y="966" on="0"/>
        <pt x="325" y="984" on="0"/>
        <pt x="361" y="984" on="0"/>
        <pt x="385" y="966" on="0"/>
        <pt x="421" y="920" on="0"/>
        <pt x="445" y="897" on="0"/>
        <pt x="471" y="874" on="0"/>
      </contour>
    </TTGlyph>
    <TTGlyph name="Udieresis" xMin="91" yMin="-15" xMax="592" yMax="955">
      <contour>
        <pt x="458" y="-15" on="0"/>
        <pt x="224" y="-15" on="0"/>
        <pt x="99" y="138" on="0"/>
        <pt x="97" y="247" on="1"/>
        <pt x="91" y="705" on="0"/>
        <pt x="91" y="732" on="0"/>
        <pt x="113" y="760" on="0"/>
        <pt x="151" y="760" on="0"/>
        <pt x="173" y="732" on="0"/>
        <pt x="173" y="700" on="0"/>
        <pt x="172" y="648" on="1"/>
        <pt x="168" y="525" on="0"/>
        <pt x="168" y="293" on="0"/>
        <pt x="175" y="219" on="0"/>
        <pt x="196" y="139" on="0"/>
        <pt x="214" y="114" on="1"/>
        <pt x="257" y="55" on="0"/>
        <pt x="341" y="55" on="1"/>
        <pt x="446" y="55" on="0"/>
        <pt x="483" y="138" on="1"/>
        <pt x="515" y="210" on="0"/>
        <pt x="515" y="447" on="0"/>
        <pt x="510" y="707" on="0"/>
        <pt x="510" y="709" on="1"/>
        <pt x="510" y="732" on="0"/>
        <pt x="532" y="760" on="0"/>
        <pt x="570" y="760" on="0"/>
        <pt x="592" y="732" on="0"/>
        <pt x="592" y="709" on="1"/>
        <pt x="592" y="521" on="0"/>
        <pt x="586" y="246" on="1"/>
        <pt x="584" y="137" on="0"/>
      </contour>
      <contour>
        <pt x="288" y="955" on="0"/>
        <pt x="308" y="928" on="0"/>
        <pt x="308" y="887" on="0"/>
        <pt x="280" y="846" on="0"/>
        <pt x="238" y="846" on="0"/>
        <pt x="217" y="874" on="0"/>
        <pt x="217" y="920" on="0"/>
        <pt x="246" y="955" on="0"/>
      </contour>
      <contour>
        <pt x="448" y="955" on="0"/>
        <pt x="468" y="928" on="0"/>
        <pt x="468" y="887" on="0"/>
        <pt x="440" y="846" on="0"/>
        <pt x="398" y="846" on="0"/>
        <pt x="377" y="874" on="0"/>
        <pt x="377" y="920" on="0"/>
        <pt x="406" y="955" on="0"/>
      </contour>
    </TTGlyph>
    <TTGlyph name="Ugrave" xMin="91" yMin="-15" xMax="592" yMax="970">
      <contour>
        <pt x="458" y="-15" on="0"/>
        <pt x="224" y="-15" on="0"/>
        <pt x="99" y="138" on="0"/>
        <pt x="97" y="247" on="1"/>
        <pt x="91" y="705" on="0"/>
        <pt x="91" y="732" on="0"/>
        <pt x="113" y="760" on="0"/>
        <pt x="151" y="760" on="0"/>
        <pt x="173" y="732" on="0"/>
        <pt x="173" y="700" on="0"/>
        <pt x="172" y="648" on="1"/>
        <pt x="168" y="525" on="0"/>
        <pt x="168" y="293" on="0"/>
        <pt x="175" y="219" on="0"/>
        <pt x="196" y="139" on="0"/>
        <pt x="214" y="114" on="1"/>
        <pt x="257" y="55" on="0"/>
        <pt x="341" y="55" on="1"/>
        <pt x="446" y="55" on="0"/>
        <pt x="483" y="138" on="1"/>
        <pt x="515" y="210" on="0"/>
        <pt x="515" y="447" on="0"/>
        <pt x="510" y="707" on="0"/>
        <pt x="510" y="709" on="1"/>
        <pt x="510" y="732" on="0"/>
        <pt x="532" y="760" on="0"/>
        <pt x="570" y="760" on="0"/>
        <pt x="592" y="732" on="0"/>
        <pt x="592" y="709" on="1"/>
        <pt x="592" y="521" on="0"/>
        <pt x="586" y="246" on="1"/>
        <pt x="584" y="137" on="0"/>
      </contour>
      <contour>
        <pt x="394" y="824" on="1"/>
        <pt x="394" y="803" on="0"/>
        <pt x="340" y="803" on="0"/>
        <pt x="249" y="889" on="0"/>
        <pt x="249" y="932" on="1"/>
        <pt x="249" y="947" on="0"/>
        <pt x="267" y="970" on="0"/>
        <pt x="303" y="970" on="0"/>
        <pt x="326" y="942" on="0"/>
        <pt x="347" y="891" on="0"/>
        <pt x="362" y="872" on="0"/>
        <pt x="374" y="859" on="1"/>
        <pt x="394" y="836" on="0"/>
      </contour>
    </TTGlyph>
    <TTGlyph name="V" xMin="25" yMin="-10" xMax="600" yMax="760">
      <contour>
        <pt x="371" y="30" on="1"/>
        <pt x="356" y="-10" on="0"/>
        <pt x="284" y="-10" on="0"/>
        <pt x="269" y="27" on="1"/>
        <pt x="221" y="152" on="0"/>
        <pt x="120" y="432" on="0"/>
        <pt x="75" y="555" on="0"/>
        <pt x="53" y="614" on="0"/>
        <pt x="42" y="644" on="1"/>
        <pt x="25" y="694" on="0"/>
        <pt x="25" y="737" on="0"/>
        <pt x="46" y="760" on="0"/>
        <pt x="63" y="760" on="1"/>
        <pt x="92" y="760" on="0"/>
        <pt x="107" y="723" on="1"/>
        <pt x="108" y="721" on="0"/>
        <pt x="151" y="589" on="0"/>
        <pt x="210" y="410" on="0"/>
        <pt x="241" y="320" on="1"/>
        <pt x="315" y="106" on="0"/>
        <pt x="329" y="106" on="0"/>
        <pt x="416" y="374" on="0"/>
        <pt x="521" y="719" on="0"/>
        <pt x="521" y="720" on="1"/>
        <pt x="533" y="760" on="0"/>
        <pt x="563" y="760" on="1"/>
        <pt x="581" y="760" on="0"/>
        <pt x="600" y="738" on="0"/>
        <pt x="600" y="708" on="0"/>
        <pt x="573" y="622" on="0"/>
        <pt x="508" y="429" on="0"/>
        <pt x="409" y="123" on="0"/>
      </contour>
    </TTGlyph>
    <TTGlyph name="V.alt" xMin="24" yMin="-15" xMax="710" yMax="765">
      <contour>
        <pt x="210" y="358" on="1"/>
        <pt x="213" y="528" on="1"/>
        <pt x="213" y="691" on="0"/>
        <pt x="139" y="691" on="1"/>
        <pt x="118" y="691" on="0"/>
        <pt x="92" y="666" on="0"/>
        <pt x="92" y="638" on="0"/>
        <pt x="112" y="622" on="0"/>
        <pt x="135" y="615" on="0"/>
        <pt x="155" y="598" on="0"/>
        <pt x="155" y="584" on="1"/>
        <pt x="155" y="549" on="0"/>
        <pt x="79" y="549" on="0"/>
        <pt x="24" y="610" on="0"/>
        <pt x="24" y="696" on="0"/>
        <pt x="84" y="765" on="0"/>
        <pt x="184" y="765" on="0"/>
        <pt x="246" y="731" on="0"/>
        <pt x="262" y="698" on="1"/>
        <pt x="290" y="642" on="0"/>
        <pt x="290" y="536" on="1"/>
        <pt x="290" y="536" on="0"/>
        <pt x="286" y="362" on="1"/>
        <pt x="286" y="223" on="0"/>
        <pt x="340" y="60" on="0"/>
        <pt x="387" y="60" on="1"/>
        <pt x="420" y="60" on="0"/>
        <pt x="473" y="173" on="0"/>
        <pt x="557" y="464" on="0"/>
        <pt x="606" y="636" on="0"/>
        <pt x="627" y="714" on="0"/>
        <pt x="628" y="717" on="1"/>
        <pt x="641" y="759" on="0"/>
        <pt x="672" y="759" on="1"/>
        <pt x="691" y="759" on="0"/>
        <pt x="710" y="733" on="0"/>
        <pt x="710" y="705" on="0"/>
        <pt x="700" y="674" on="1"/>
        <pt x="639" y="478" on="0"/>
        <pt x="541" y="143" on="0"/>
        <pt x="511" y="82" on="1"/>
        <pt x="463" y="-15" on="0"/>
        <pt x="298" y="-15" on="0"/>
        <pt x="210" y="181" on="0"/>
      </contour>
    </TTGlyph>
    <TTGlyph name="W" xMin="27" yMin="-10" xMax="879" yMax="760">
      <contour>
        <pt x="681" y="34" on="1"/>
        <pt x="665" y="-10" on="0"/>
        <pt x="592" y="-10" on="0"/>
        <pt x="576" y="31" on="1"/>
        <pt x="572" y="42" on="0"/>
        <pt x="514" y="240" on="0"/>
        <pt x="459" y="415" on="0"/>
        <pt x="451" y="415" on="0"/>
        <pt x="397" y="239" on="0"/>
        <pt x="341" y="42" on="0"/>
        <pt x="338" y="34" on="1"/>
        <pt x="321" y="-10" on="0"/>
        <pt x="251" y="-10" on="0"/>
        <pt x="235" y="31" on="1"/>
        <pt x="218" y="84" on="0"/>
        <pt x="103" y="466" on="0"/>
        <pt x="74" y="552" on="1"/>
        <pt x="27" y="697" on="0"/>
        <pt x="27" y="737" on="0"/>
        <pt x="47" y="760" on="0"/>
        <pt x="62" y="760" on="1"/>
        <pt x="92" y="760" on="0"/>
        <pt x="106" y="724" on="1"/>
        <pt x="107" y="722" on="0"/>
        <pt x="151" y="564" on="1"/>
        <pt x="279" y="106" on="0"/>
        <pt x="291" y="106" on="1"/>
        <pt x="303" y="106" on="0"/>
        <pt x="375" y="373" on="1"/>
        <pt x="404" y="481" on="0"/>
        <pt x="408" y="495" on="1"/>
        <pt x="422" y="546" on="0"/>
        <pt x="495" y="546" on="0"/>
        <pt x="509" y="498" on="1"/>
        <pt x="511" y="492" on="0"/>
        <pt x="542" y="382" on="1"/>
        <pt x="622" y="106" on="0"/>
        <pt x="631" y="106" on="1"/>
        <pt x="638" y="106" on="0"/>
        <pt x="764" y="564" on="0"/>
        <pt x="805" y="720" on="1"/>
        <pt x="816" y="760" on="0"/>
        <pt x="846" y="760" on="1"/>
        <pt x="879" y="760" on="0"/>
        <pt x="879" y="720" on="1"/>
        <pt x="879" y="696" on="0"/>
        <pt x="831" y="533" on="0"/>
        <pt x="811" y="465" on="1"/>
        <pt x="711" y="126" on="0"/>
      </contour>
    </TTGlyph>
    <TTGlyph name="W.alt" xMin="24" yMin="-15" xMax="1039" yMax="765">
      <contour>
        <pt x="209" y="358" on="1"/>
        <pt x="212" y="528" on="1"/>
        <pt x="212" y="691" on="0"/>
        <pt x="138" y="691" on="1"/>
        <pt x="118" y="691" on="0"/>
        <pt x="92" y="665" on="0"/>
        <pt x="92" y="637" on="0"/>
        <pt x="112" y="621" on="0"/>
        <pt x="135" y="614" on="0"/>
        <pt x="155" y="597" on="0"/>
        <pt x="155" y="583" on="1"/>
        <pt x="155" y="548" on="0"/>
        <pt x="79" y="548" on="0"/>
        <pt x="24" y="609" on="0"/>
        <pt x="24" y="696" on="0"/>
        <pt x="84" y="765" on="0"/>
        <pt x="183" y="765" on="0"/>
        <pt x="245" y="731" on="0"/>
        <pt x="261" y="698" on="1"/>
        <pt x="289" y="642" on="0"/>
        <pt x="289" y="536" on="1"/>
        <pt x="285" y="362" on="1"/>
        <pt x="285" y="222" on="0"/>
        <pt x="334" y="60" on="0"/>
        <pt x="376" y="60" on="1"/>
        <pt x="425" y="60" on="0"/>
        <pt x="507" y="226" on="0"/>
        <pt x="507" y="323" on="1"/>
        <pt x="505" y="546" on="1"/>
        <pt x="505" y="612" on="0"/>
        <pt x="548" y="612" on="1"/>
        <pt x="600" y="612" on="0"/>
        <pt x="600" y="529" on="1"/>
        <pt x="600" y="499" on="0"/>
        <pt x="580" y="317" on="1"/>
        <pt x="582" y="222" on="0"/>
        <pt x="664" y="64" on="0"/>
        <pt x="711" y="64" on="1"/>
        <pt x="755" y="64" on="0"/>
        <pt x="805" y="224" on="0"/>
        <pt x="805" y="365" on="1"/>
        <pt x="801" y="536" on="1"/>
        <pt x="801" y="640" on="0"/>
        <pt x="826" y="698" on="1"/>
        <pt x="855" y="765" on="0"/>
        <pt x="945" y="765" on="1"/>
        <pt x="983" y="765" on="0"/>
        <pt x="1039" y="717" on="0"/>
        <pt x="1039" y="693" on="1"/>
        <pt x="1039" y="681" on="0"/>
        <pt x="1026" y="669" on="0"/>
        <pt x="1009" y="669" on="0"/>
        <pt x="968" y="691" on="0"/>
        <pt x="952" y="691" on="1"/>
        <pt x="878" y="691" on="0"/>
        <pt x="878" y="528" on="1"/>
        <pt x="881" y="361" on="1"/>
        <pt x="881" y="184" on="0"/>
        <pt x="795" y="-10" on="0"/>
        <pt x="708" y="-10" on="1"/>
        <pt x="651" y="-10" on="0"/>
        <pt x="568" y="92" on="0"/>
        <pt x="544" y="176" on="1"/>
        <pt x="521" y="90" on="0"/>
        <pt x="437" y="-15" on="0"/>
        <pt x="379" y="-15" on="1"/>
        <pt x="293" y="-15" on="0"/>
        <pt x="209" y="180" on="0"/>
      </contour>
    </TTGlyph>
    <TTGlyph name="X" xMin="33" yMin="-13" xMax="613" yMax="763">
      <contour>
        <pt x="532" y="760" on="0"/>
        <pt x="552" y="738" on="0"/>
        <pt x="552" y="715" on="0"/>
        <pt x="533" y="679" on="0"/>
        <pt x="507" y="638" on="1"/>
        <pt x="421" y="502" on="0"/>
        <pt x="350" y="388" on="1"/>
        <pt x="487" y="159" on="0"/>
        <pt x="531" y="105" on="1"/>
        <pt x="550" y="81" on="0"/>
        <pt x="585" y="61" on="0"/>
        <pt x="603" y="63" on="0"/>
        <pt x="613" y="59" on="0"/>
        <pt x="613" y="49" on="1"/>
        <pt x="613" y="21" on="0"/>
        <pt x="581" y="-13" on="0"/>
        <pt x="559" y="-13" on="1"/>
        <pt x="521" y="-13" on="0"/>
        <pt x="476" y="50" on="1"/>
        <pt x="427" y="122" on="0"/>
        <pt x="306" y="321" on="1"/>
        <pt x="215" y="176" on="0"/>
        <pt x="124" y="21" on="0"/>
        <pt x="119" y="14" on="1"/>
        <pt x="102" y="-10" on="0"/>
        <pt x="80" y="-10" on="1"/>
        <pt x="40" y="-10" on="0"/>
        <pt x="40" y="25" on="1"/>
        <pt x="40" y="41" on="0"/>
        <pt x="58" y="70" on="0"/>
        <pt x="124" y="170" on="0"/>
        <pt x="225" y="323" on="0"/>
        <pt x="264" y="384" on="1"/>
        <pt x="171" y="554" on="0"/>
        <pt x="115" y="647" on="1"/>
        <pt x="99" y="669" on="0"/>
        <pt x="66" y="688" on="0"/>
        <pt x="56" y="687" on="1"/>
        <pt x="33" y="685" on="0"/>
        <pt x="33" y="702" on="1"/>
        <pt x="33" y="730" on="0"/>
        <pt x="64" y="763" on="0"/>
        <pt x="108" y="763" on="0"/>
        <pt x="143" y="739" on="0"/>
        <pt x="169" y="701" on="1"/>
        <pt x="195" y="657" on="0"/>
        <pt x="308" y="448" on="1"/>
        <pt x="358" y="531" on="0"/>
        <pt x="468" y="722" on="0"/>
        <pt x="494" y="760" on="0"/>
      </contour>
    </TTGlyph>
    <TTGlyph name="X.alt" xMin="28" yMin="-16" xMax="719" yMax="764">
      <contour>
        <pt x="365" y="321" on="1"/>
        <pt x="265" y="159" on="0"/>
        <pt x="184" y="21" on="0"/>
        <pt x="179" y="14" on="1"/>
        <pt x="162" y="-10" on="0"/>
        <pt x="140" y="-10" on="1"/>
        <pt x="100" y="-10" on="0"/>
        <pt x="100" y="25" on="1"/>
        <pt x="100" y="41" on="0"/>
        <pt x="118" y="70" on="0"/>
        <pt x="153" y="122" on="1"/>
        <pt x="232" y="238" on="0"/>
        <pt x="330" y="391" on="1"/>
        <pt x="277" y="533" on="0"/>
        <pt x="176" y="693" on="0"/>
        <pt x="136" y="693" on="1"/>
        <pt x="116" y="693" on="0"/>
        <pt x="96" y="667" on="0"/>
        <pt x="96" y="638" on="0"/>
        <pt x="116" y="622" on="0"/>
        <pt x="139" y="615" on="0"/>
        <pt x="159" y="598" on="0"/>
        <pt x="159" y="584" on="1"/>
        <pt x="159" y="549" on="0"/>
        <pt x="83" y="549" on="0"/>
        <pt x="28" y="610" on="0"/>
        <pt x="28" y="696" on="0"/>
        <pt x="87" y="764" on="0"/>
        <pt x="139" y="764" on="1"/>
        <pt x="207" y="764" on="0"/>
        <pt x="314" y="622" on="0"/>
        <pt x="376" y="463" on="1"/>
        <pt x="425" y="543" on="0"/>
        <pt x="528" y="722" on="0"/>
        <pt x="554" y="760" on="0"/>
        <pt x="592" y="760" on="0"/>
        <pt x="612" y="738" on="0"/>
        <pt x="612" y="715" on="0"/>
        <pt x="593" y="679" on="0"/>
        <pt x="545" y="600" on="0"/>
        <pt x="446" y="443" on="0"/>
        <pt x="413" y="390" on="1"/>
        <pt x="532" y="55" on="0"/>
        <pt x="611" y="55" on="1"/>
        <pt x="631" y="55" on="0"/>
        <pt x="653" y="81" on="0"/>
        <pt x="653" y="118" on="0"/>
        <pt x="626" y="137" on="0"/>
        <pt x="610" y="138" on="1"/>
        <pt x="568" y="141" on="0"/>
        <pt x="568" y="179" on="0"/>
        <pt x="605" y="195" on="0"/>
        <pt x="623" y="195" on="1"/>
        <pt x="661" y="195" on="0"/>
        <pt x="719" y="138" on="0"/>
        <pt x="719" y="52" on="0"/>
        <pt x="660" y="-16" on="0"/>
        <pt x="608" y="-16" on="1"/>
        <pt x="553" y="-16" on="0"/>
        <pt x="504" y="40" on="1"/>
        <pt x="463" y="88" on="0"/>
        <pt x="414" y="203" on="1"/>
        <pt x="394" y="248" on="0"/>
      </contour>
    </TTGlyph>
    <TTGlyph name="Y" xMin="15" yMin="-10" xMax="539" yMax="760">
      <contour>
        <pt x="237" y="40" on="1"/>
        <pt x="237" y="47" on="0"/>
        <pt x="238" y="86" on="1"/>
        <pt x="242" y="177" on="0"/>
        <pt x="242" y="314" on="1"/>
        <pt x="132" y="507" on="1"/>
        <pt x="113" y="540" on="0"/>
        <pt x="92" y="575" on="1"/>
        <pt x="59" y="630" on="1"/>
        <pt x="26" y="686" on="0"/>
        <pt x="15" y="714" on="0"/>
        <pt x="15" y="738" on="0"/>
        <pt x="33" y="760" on="0"/>
        <pt x="63" y="760" on="0"/>
        <pt x="83" y="744" on="0"/>
        <pt x="107" y="704" on="0"/>
        <pt x="118" y="682" on="1"/>
        <pt x="193" y="528" on="0"/>
        <pt x="281" y="391" on="1"/>
        <pt x="373" y="536" on="0"/>
        <pt x="434" y="662" on="1"/>
        <pt x="441" y="677" on="0"/>
        <pt x="458" y="708" on="0"/>
        <pt x="467" y="726" on="0"/>
        <pt x="478" y="743" on="0"/>
        <pt x="485" y="751" on="0"/>
        <pt x="490" y="754" on="1"/>
        <pt x="497" y="760" on="0"/>
        <pt x="522" y="760" on="0"/>
        <pt x="539" y="742" on="0"/>
        <pt x="539" y="719" on="0"/>
        <pt x="533" y="698" on="0"/>
        <pt x="513" y="660" on="0"/>
        <pt x="494" y="627" on="0"/>
        <pt x="449" y="551" on="0"/>
        <pt x="431" y="519" on="1"/>
        <pt x="314" y="314" on="1"/>
        <pt x="314" y="175" on="0"/>
        <pt x="319" y="45" on="0"/>
        <pt x="319" y="40" on="1"/>
        <pt x="319" y="-10" on="0"/>
        <pt x="237" y="-10" on="0"/>
      </contour>
    </TTGlyph>
    <TTGlyph name="Y.alt" xMin="21" yMin="-85" xMax="556" yMax="764">
      <contour>
        <pt x="223" y="308" on="0"/>
        <pt x="141" y="386" on="0"/>
        <pt x="62" y="553" on="0"/>
        <pt x="21" y="686" on="0"/>
        <pt x="21" y="713" on="1"/>
        <pt x="21" y="760" on="0"/>
        <pt x="57" y="760" on="1"/>
        <pt x="67" y="760" on="0"/>
        <pt x="92" y="736" on="0"/>
        <pt x="103" y="679" on="0"/>
        <pt x="136" y="576" on="0"/>
        <pt x="185" y="462" on="0"/>
        <pt x="252" y="381" on="0"/>
        <pt x="284" y="381" on="1"/>
        <pt x="295" y="381" on="0"/>
        <pt x="303" y="385" on="1"/>
        <pt x="346" y="663" on="0"/>
        <pt x="418" y="734" on="1"/>
        <pt x="448" y="764" on="0"/>
        <pt x="520" y="764" on="0"/>
        <pt x="556" y="718" on="0"/>
        <pt x="556" y="681" on="1"/>
        <pt x="556" y="597" on="0"/>
        <pt x="442" y="410" on="0"/>
        <pt x="373" y="342" on="1"/>
        <pt x="365" y="289" on="0"/>
        <pt x="365" y="159" on="0"/>
        <pt x="370" y="43" on="0"/>
        <pt x="375" y="-29" on="0"/>
        <pt x="375" y="-58" on="0"/>
        <pt x="353" y="-85" on="0"/>
        <pt x="334" y="-85" on="1"/>
        <pt x="305" y="-85" on="0"/>
        <pt x="290" y="-4" on="0"/>
        <pt x="290" y="171" on="0"/>
        <pt x="301" y="310" on="1"/>
        <pt x="292" y="308" on="0"/>
        <pt x="275" y="308" on="1"/>
      </contour>
      <contour>
        <pt x="477" y="692" on="1"/>
        <pt x="456" y="692" on="0"/>
        <pt x="380" y="483" on="0"/>
        <pt x="376" y="434" on="1"/>
        <pt x="416" y="481" on="0"/>
        <pt x="488" y="629" on="0"/>
        <pt x="488" y="671" on="1"/>
        <pt x="488" y="692" on="0"/>
      </contour>
    </TTGlyph>
    <TTGlyph name="Yacute" xMin="15" yMin="-10" xMax="539" yMax="970">
      <contour>
        <pt x="237" y="40" on="1"/>
        <pt x="237" y="47" on="0"/>
        <pt x="238" y="86" on="1"/>
        <pt x="242" y="177" on="0"/>
        <pt x="242" y="314" on="1"/>
        <pt x="132" y="507" on="1"/>
        <pt x="113" y="540" on="0"/>
        <pt x="92" y="575" on="1"/>
        <pt x="59" y="630" on="1"/>
        <pt x="26" y="686" on="0"/>
        <pt x="15" y="714" on="0"/>
        <pt x="15" y="738" on="0"/>
        <pt x="33" y="760" on="0"/>
        <pt x="63" y="760" on="0"/>
        <pt x="83" y="744" on="0"/>
        <pt x="107" y="704" on="0"/>
        <pt x="118" y="682" on="1"/>
        <pt x="193" y="528" on="0"/>
        <pt x="281" y="391" on="1"/>
        <pt x="373" y="536" on="0"/>
        <pt x="434" y="662" on="1"/>
        <pt x="441" y="677" on="0"/>
        <pt x="458" y="708" on="0"/>
        <pt x="467" y="726" on="0"/>
        <pt x="478" y="743" on="0"/>
        <pt x="485" y="751" on="0"/>
        <pt x="490" y="754" on="1"/>
        <pt x="497" y="760" on="0"/>
        <pt x="522" y="760" on="0"/>
        <pt x="539" y="742" on="0"/>
        <pt x="539" y="719" on="0"/>
        <pt x="533" y="698" on="0"/>
        <pt x="513" y="660" on="0"/>
        <pt x="494" y="627" on="0"/>
        <pt x="449" y="551" on="0"/>
        <pt x="431" y="519" on="1"/>
        <pt x="314" y="314" on="1"/>
        <pt x="314" y="175" on="0"/>
        <pt x="319" y="45" on="0"/>
        <pt x="319" y="40" on="1"/>
        <pt x="319" y="-10" on="0"/>
        <pt x="237" y="-10" on="0"/>
      </contour>
      <contour>
        <pt x="388" y="932" on="1"/>
        <pt x="388" y="889" on="0"/>
        <pt x="297" y="803" on="0"/>
        <pt x="243" y="803" on="0"/>
        <pt x="243" y="824" on="1"/>
        <pt x="243" y="836" on="0"/>
        <pt x="275" y="872" on="0"/>
        <pt x="290" y="891" on="0"/>
        <pt x="311" y="942" on="0"/>
        <pt x="334" y="970" on="0"/>
        <pt x="370" y="970" on="0"/>
        <pt x="388" y="947" on="0"/>
      </contour>
    </TTGlyph>
    <TTGlyph name="Ydieresis" xMin="15" yMin="-10" xMax="539" yMax="955">
      <contour>
        <pt x="237" y="40" on="1"/>
        <pt x="237" y="47" on="0"/>
        <pt x="238" y="86" on="1"/>
        <pt x="242" y="177" on="0"/>
        <pt x="242" y="314" on="1"/>
        <pt x="132" y="507" on="1"/>
        <pt x="113" y="540" on="0"/>
        <pt x="92" y="575" on="1"/>
        <pt x="59" y="630" on="1"/>
        <pt x="26" y="686" on="0"/>
        <pt x="15" y="714" on="0"/>
        <pt x="15" y="738" on="0"/>
        <pt x="33" y="760" on="0"/>
        <pt x="63" y="760" on="0"/>
        <pt x="83" y="744" on="0"/>
        <pt x="107" y="704" on="0"/>
        <pt x="118" y="682" on="1"/>
        <pt x="193" y="528" on="0"/>
        <pt x="281" y="391" on="1"/>
        <pt x="373" y="536" on="0"/>
        <pt x="434" y="662" on="1"/>
        <pt x="441" y="677" on="0"/>
        <pt x="458" y="708" on="0"/>
        <pt x="467" y="726" on="0"/>
        <pt x="478" y="743" on="0"/>
        <pt x="485" y="751" on="0"/>
        <pt x="490" y="754" on="1"/>
        <pt x="497" y="760" on="0"/>
        <pt x="522" y="760" on="0"/>
        <pt x="539" y="742" on="0"/>
        <pt x="539" y="719" on="0"/>
        <pt x="533" y="698" on="0"/>
        <pt x="513" y="660" on="0"/>
        <pt x="494" y="627" on="0"/>
        <pt x="449" y="551" on="0"/>
        <pt x="431" y="519" on="1"/>
        <pt x="314" y="314" on="1"/>
        <pt x="314" y="175" on="0"/>
        <pt x="319" y="45" on="0"/>
        <pt x="319" y="40" on="1"/>
        <pt x="319" y="-10" on="0"/>
        <pt x="237" y="-10" on="0"/>
      </contour>
      <contour>
        <pt x="231" y="955" on="0"/>
        <pt x="251" y="928" on="0"/>
        <pt x="251" y="887" on="0"/>
        <pt x="223" y="846" on="0"/>
        <pt x="181" y="846" on="0"/>
        <pt x="160" y="874" on="0"/>
        <pt x="160" y="920" on="0"/>
        <pt x="189" y="955" on="0"/>
      </contour>
      <contour>
        <pt x="391" y="955" on="0"/>
        <pt x="411" y="928" on="0"/>
        <pt x="411" y="887" on="0"/>
        <pt x="383" y="846" on="0"/>
        <pt x="341" y="846" on="0"/>
        <pt x="320" y="874" on="0"/>
        <pt x="320" y="920" on="0"/>
        <pt x="349" y="955" on="0"/>
      </contour>
    </TTGlyph>
    <TTGlyph name="Z" xMin="34" yMin="-6" xMax="535" yMax="756">
      <contour>
        <pt x="280" y="750" on="1"/>
        <pt x="469" y="756" on="1"/>
        <pt x="490" y="756" on="0"/>
        <pt x="520" y="737" on="0"/>
        <pt x="520" y="699" on="0"/>
        <pt x="504" y="672" on="0"/>
        <pt x="480" y="634" on="1"/>
        <pt x="329" y="395" on="0"/>
        <pt x="152" y="90" on="0"/>
        <pt x="139" y="69" on="1"/>
        <pt x="199" y="66" on="0"/>
        <pt x="285" y="66" on="1"/>
        <pt x="485" y="72" on="1"/>
        <pt x="508" y="72" on="0"/>
        <pt x="535" y="51" on="0"/>
        <pt x="535" y="32" on="1"/>
        <pt x="535" y="-6" on="0"/>
        <pt x="485" y="-6" on="1"/>
        <pt x="285" y="0" on="1"/>
        <pt x="83" y="-5" on="1"/>
        <pt x="34" y="-5" on="0"/>
        <pt x="34" y="35" on="1"/>
        <pt x="34" y="48" on="0"/>
        <pt x="50" y="74" on="0"/>
        <pt x="80" y="122" on="1"/>
        <pt x="164" y="254" on="0"/>
        <pt x="386" y="625" on="0"/>
        <pt x="415" y="680" on="1"/>
        <pt x="280" y="684" on="1"/>
        <pt x="98" y="679" on="1"/>
        <pt x="75" y="679" on="0"/>
        <pt x="47" y="700" on="0"/>
        <pt x="47" y="718" on="1"/>
        <pt x="47" y="755" on="0"/>
        <pt x="98" y="755" on="1"/>
      </contour>
    </TTGlyph>
</ttFont>
